 <svg  version="1.0" xmlns="http://www.w3.org/2000/svg"  width="500.000000pt" height="500.000000pt" viewBox="0 0 500.000000 500.000000"  preserveAspectRatio="xMidYMid meet">  <g transform="translate(0.000000,500.000000) scale(0.100000,-0.100000)" fill="#2d3fa2" stroke="none"> <path d="M2045 4284 c-11 -2 -45 -9 -75 -15 -114 -22 -298 -84 -395 -132 -101 -50 -216 -119 -246 -147 -9 -8 -50 -43 -91 -77 -42 -35 -109 -102 -149 -150 -40 -49 -78 -92 -84 -98 -22 -21 -94 -144 -144 -245 -58 -119 -124 -327 -141 -448 -19 -128 -8 -446 19 -546 42 -158 73 -243 128 -356 73 -150 112 -206 255 -371 53 -62 212 -196 291 -247 156 -99 371 -184 570 -223 126 -25 395 -26 518 -3 95 17 219 52 233 65 9 8 2 29 -46 139 -11 24 -24 55 -29 67 -7 18 -14 22 -36 18 -320 -52 -471 -53 -698 -3 -127 28 -361 144 -470 233 -47 39 -171 163 -210 210 -84 102 -192 317 -232 460 -23 82 -46 308 -39 393 13 175 35 282 82 401 45 113 135 272 191 339 40 47 165 172 208 207 104 85 305 188 447 228 62 18 278 47 348 47 62 0 271 -26 330 -41 136 -35 360 -148 465 -234 47 -39 171 -163 210 -210 81 -100 200 -333 229 -450 15 -59 36 -202 42 -289 l7 -89 -78 6 c-43 4 -91 7 -107 7 -27 0 -28 2 -28 49 0 101 -55 336 -98 421 -94 183 -159 268 -294 382 -165 141 -458 248 -678 248 -271 0 -580 -134 -773 -335 -46 -48 -137 -166 -137 -178 0 -3 -15 -32 -34 -64 -68 -116 -126 -348 -126 -503 0 -212 85 -472 210 -643 117 -159 309 -301 499 -367 146 -50 225 -64 361 -64 132 -1 175 7 333 56 54 17 100 29 101 27 5 -5 86 -178 86 -183 0 -2 -13 -9 -30 -16 l-29 -12 16 -37 c9 -20 31 -72 49 -116 36 -89 38 -90 113 -49 24 13 47 24 51 24 8 0 61 -67 107 -136 21 -30 25 -32 54 -24 38 11 111 60 107 71 -2 4 -32 45 -68 91 -60 76 -88 110 -195 234 -22 25 -44 52 -48 60 -4 8 -19 14 -32 14 -16 0 -30 10 -41 27 -9 16 -25 40 -35 55 -27 38 -24 54 13 69 17 7 51 28 75 46 24 18 47 33 51 33 4 0 16 -15 28 -33 l21 -32 -34 -42 -34 -42 53 -67 c29 -38 85 -114 123 -170 39 -56 82 -117 97 -136 75 -92 66 -85 83 -64 8 11 25 31 38 45 41 46 31 64 -163 303 -32 39 -37 62 -17 75 17 11 67 73 67 83 0 4 -19 20 -42 34 -72 43 -142 111 -135 130 15 38 53 31 113 -21 16 -14 43 -32 59 -40 32 -17 207 -132 215 -142 3 -4 40 -30 84 -59 l78 -53 74 27 c41 15 74 30 74 35 0 24 -45 126 -61 141 -10 9 -37 19 -58 23 l-40 7 63 121 63 122 118 12 c65 7 120 14 121 16 2 2 -35 42 -84 89 l-87 85 -100 22 c-127 28 -323 91 -342 110 -8 8 -12 23 -9 35 3 12 6 26 6 33 0 15 39 11 269 -23 l165 -24 75 24 c42 14 89 27 104 31 27 6 26 8 -46 54 l-74 49 -6 163 c-6 173 -16 226 -78 417 -29 90 -126 291 -171 355 -29 41 -98 127 -160 198 -47 55 -195 181 -273 235 -76 52 -265 143 -357 173 -211 69 -237 73 -468 77 -118 1 -224 1 -235 -2z m415 -673 c266 -69 490 -252 596 -488 38 -86 61 -152 73 -211 14 -68 14 -256 0 -322 -11 -51 -23 -60 -58 -40 -22 11 -165 50 -186 50 -9 0 -15 -9 -15 -23 0 -21 13 -27 115 -62 l114 -38 -15 -36 c-9 -20 -18 -42 -21 -48 -4 -10 9 -13 47 -13 46 0 56 -4 86 -34 30 -30 34 -40 34 -87 0 -72 -25 -112 -84 -134 -39 -15 -53 -16 -86 -6 -39 12 -90 61 -90 87 0 8 -27 -14 -60 -48 l-60 -63 -63 68 c-34 37 -70 67 -79 67 -10 0 -18 -2 -18 -4 0 -2 -3 -11 -6 -19 -3 -9 16 -39 50 -77 31 -34 56 -68 56 -76 0 -12 -108 -84 -127 -84 -4 0 -29 35 -53 78 -32 55 -52 78 -68 80 -13 2 -25 -3 -28 -12 -6 -16 24 -74 57 -111 10 -12 20 -31 21 -44 3 -21 -5 -27 -57 -48 -70 -27 -207 -53 -285 -53 -68 0 -208 24 -269 46 -263 96 -433 247 -538 474 -73 157 -77 179 -77 370 0 152 3 183 21 236 96 278 251 456 496 568 90 42 131 55 221 72 93 18 258 11 356 -15z m989 -1267 c24 -30 26 -43 10 -77 -31 -68 -129 -46 -129 30 0 68 78 99 119 47z"/> </g> </svg> 