 <svg  version="1.0" xmlns="http://www.w3.org/2000/svg"  width="300.000000pt" height="300.000000pt" viewBox="0 0 300.000000 300.000000"  preserveAspectRatio="xMidYMid meet">  <g transform="translate(0.000000,300.000000) scale(0.100000,-0.100000)" fill="#0b3a5e" stroke="none"> <path d="M1335 2515 c-88 -14 -163 -36 -240 -68 -50 -21 -178 -95 -219 -126 -28 -21 -177 -170 -196 -196 -156 -210 -230 -479 -202 -735 63 -565 568 -973 1128 -912 89 10 209 36 223 48 2 2 -11 38 -30 79 -38 87 -19 80 -164 55 -123 -22 -324 -3 -430 39 -238 96 -406 264 -506 506 -34 85 -43 145 -43 295 0 130 3 167 22 229 85 289 320 520 607 597 104 28 342 26 443 -3 262 -78 467 -267 573 -528 22 -57 41 -148 46 -228 l6 -90 -54 6 c-30 4 -62 7 -71 7 -15 0 -18 9 -18 49 0 49 -22 167 -39 206 -84 198 -197 322 -366 400 -115 54 -186 70 -305 70 -119 0 -190 -16 -305 -70 -249 -116 -405 -364 -405 -645 0 -219 90 -410 261 -557 65 -56 209 -125 299 -144 125 -27 298 -12 422 36 14 6 23 -5 43 -48 29 -65 30 -66 10 -81 -17 -12 -16 -15 32 -128 l16 -37 36 15 c20 9 41 18 47 20 6 3 28 -20 49 -51 21 -30 42 -55 47 -55 15 0 88 40 88 48 0 4 -31 44 -68 89 -37 44 -85 104 -107 132 -22 28 -46 49 -52 46 -12 -4 -63 64 -63 82 0 5 24 23 52 41 l52 33 17 -23 c17 -22 17 -24 -8 -50 l-26 -27 27 -33 c15 -18 56 -73 91 -123 35 -49 75 -103 88 -120 l24 -29 25 29 c33 38 25 68 -40 143 -27 31 -57 69 -66 84 -17 26 -16 27 13 61 l31 34 -60 44 c-55 40 -73 70 -52 83 7 4 222 -133 330 -211 22 -15 27 -15 78 1 54 17 62 24 45 42 -5 5 -14 25 -20 45 -10 31 -18 38 -46 43 -19 4 -35 10 -34 14 0 4 19 41 42 82 42 75 43 75 87 78 25 1 60 5 79 8 l34 5 -58 59 c-51 52 -66 61 -114 70 -78 16 -224 61 -238 74 -7 6 -10 21 -6 35 5 20 10 22 42 17 164 -28 249 -35 298 -22 89 24 93 30 39 61 -45 27 -46 28 -46 79 0 635 -571 1123 -1195 1021z m268 -436 c110 -16 225 -77 312 -164 101 -100 143 -182 171 -329 13 -68 14 -93 4 -153 -7 -40 -16 -73 -20 -73 -4 0 -33 9 -66 20 -74 25 -97 25 -92 3 2 -12 26 -25 73 -39 72 -23 79 -32 61 -75 -5 -12 0 -16 25 -16 23 0 40 -8 61 -31 15 -18 28 -39 28 -48 0 -29 -30 -74 -60 -89 -38 -20 -73 -11 -105 26 l-24 30 -35 -38 -36 -38 -45 48 c-38 40 -49 46 -60 37 -8 -7 -15 -14 -15 -16 0 -2 18 -22 40 -46 22 -24 40 -46 40 -50 0 -4 -19 -19 -41 -34 -46 -29 -40 -32 -85 44 -25 41 -46 52 -59 32 -4 -6 8 -33 25 -60 17 -27 29 -54 25 -60 -26 -42 -278 -60 -390 -26 -93 27 -184 83 -255 155 -96 98 -143 191 -170 339 -12 64 -11 83 4 165 26 134 73 224 166 317 145 145 315 200 523 169z m697 -854 c7 -8 10 -25 6 -39 -13 -51 -86 -40 -86 13 0 15 3 31 7 34 12 13 60 7 73 -8z"/> </g> </svg> 