 <svg  version="1.0" xmlns="http://www.w3.org/2000/svg"  width="500.000000pt" height="500.000000pt" viewBox="0 0 500.000000 500.000000"  preserveAspectRatio="xMidYMid meet">  <g transform="translate(0.000000,500.000000) scale(0.100000,-0.100000)" fill="#260db9" stroke="none"> <path d="M2040 4284 c-272 -50 -573 -175 -720 -301 -14 -11 -56 -48 -95 -81 -38 -33 -101 -97 -140 -143 -38 -46 -73 -86 -77 -89 -18 -14 -90 -135 -141 -240 -64 -130 -120 -301 -143 -434 -21 -122 -15 -448 10 -551 59 -239 187 -521 285 -625 9 -9 43 -49 76 -89 33 -40 98 -105 145 -144 47 -40 87 -75 90 -78 16 -18 116 -78 215 -129 130 -68 287 -122 434 -150 130 -25 398 -28 522 -5 94 18 219 53 233 66 6 5 2 26 -8 51 -33 80 -70 163 -76 170 -3 3 -63 -3 -135 -14 -216 -33 -424 -27 -606 18 -127 31 -362 151 -456 233 -188 163 -295 305 -383 510 -53 126 -66 174 -86 331 -18 144 -16 223 11 403 25 165 141 423 243 537 23 26 42 51 42 54 0 8 110 114 175 169 95 81 308 191 445 230 63 18 279 47 350 47 71 0 286 -29 350 -47 137 -39 350 -150 445 -231 59 -50 155 -146 206 -205 76 -87 198 -321 230 -439 16 -60 37 -202 45 -302 l7 -89 -78 6 c-43 4 -91 7 -107 7 -27 0 -28 2 -28 49 0 101 -55 336 -98 421 -125 243 -235 364 -442 482 -152 87 -370 148 -530 148 -159 0 -386 -64 -535 -150 -103 -60 -158 -102 -234 -180 -49 -51 -141 -170 -141 -183 0 -3 -15 -32 -34 -64 -68 -116 -126 -348 -126 -503 0 -124 44 -329 93 -440 145 -322 409 -531 777 -617 91 -21 299 -24 380 -5 30 8 99 27 153 44 54 17 100 29 101 27 5 -5 86 -178 86 -183 0 -2 -13 -9 -30 -16 l-29 -12 16 -37 c9 -20 31 -72 49 -116 36 -89 38 -90 113 -49 24 13 47 24 51 24 8 0 77 -91 105 -138 16 -26 23 -30 44 -25 32 7 68 26 101 52 22 18 23 21 9 38 -28 33 -173 214 -200 248 -60 78 -118 135 -137 135 -15 0 -30 16 -49 50 -15 27 -31 50 -35 50 -5 0 -8 8 -8 19 0 11 12 24 32 32 17 7 52 28 77 47 l45 35 27 -33 28 -33 -35 -43 -35 -43 58 -74 c32 -41 95 -128 140 -193 46 -66 96 -135 112 -154 l29 -35 40 45 c34 39 38 48 32 76 -4 18 -25 54 -47 81 -101 123 -163 204 -163 212 0 5 18 29 40 53 22 23 40 48 40 55 0 6 -17 22 -37 34 -54 33 -143 111 -143 125 0 6 7 17 15 24 19 15 41 7 106 -40 24 -17 91 -62 149 -100 58 -38 145 -97 194 -130 l89 -61 73 27 c41 15 74 30 74 35 0 24 -45 126 -61 141 -10 9 -37 19 -58 23 l-40 7 63 121 63 122 118 12 c65 7 120 14 121 16 2 2 -35 42 -84 89 l-87 85 -100 22 c-126 28 -323 91 -342 109 -9 10 -12 25 -7 46 3 17 7 32 8 33 3 3 171 -17 296 -37 l134 -20 76 24 c41 13 88 27 103 30 27 7 26 8 -46 55 l-75 49 -4 159 c-6 170 -16 227 -74 406 -48 148 -167 377 -233 447 -9 9 -43 49 -76 89 -33 40 -98 105 -145 144 -47 40 -87 75 -90 78 -41 46 -302 180 -437 223 -198 64 -230 69 -458 72 -115 1 -221 0 -235 -2z m420 -673 c265 -68 491 -254 596 -488 38 -86 61 -152 73 -211 14 -68 14 -256 0 -322 -11 -51 -23 -60 -58 -40 -22 11 -165 50 -186 50 -9 0 -15 -9 -15 -23 0 -20 13 -27 114 -62 l115 -39 -16 -35 c-8 -20 -17 -41 -19 -47 -3 -7 15 -13 52 -16 49 -4 62 -10 86 -37 23 -26 28 -41 28 -82 0 -68 -20 -102 -75 -129 -34 -17 -55 -20 -82 -15 -39 7 -103 62 -103 89 0 9 -26 -11 -62 -47 l-61 -61 -61 67 c-34 37 -69 67 -78 67 -10 0 -18 -2 -18 -4 0 -2 -3 -11 -6 -19 -3 -9 16 -39 50 -77 31 -34 56 -68 56 -76 0 -12 -108 -84 -127 -84 -5 0 -16 12 -24 28 -44 86 -80 132 -104 132 -36 0 -32 -22 21 -107 25 -40 43 -77 40 -81 -18 -30 -241 -82 -346 -82 -141 0 -329 56 -474 142 -82 49 -219 180 -268 258 -41 64 -86 158 -119 250 -21 59 -23 81 -23 240 0 152 3 183 21 236 57 164 132 289 235 390 131 128 298 215 482 250 93 18 258 11 356 -15z m989 -1267 c24 -30 26 -43 10 -77 -31 -68 -129 -46 -129 30 0 68 78 99 119 47z"/> </g> </svg> 