<?xml version="1.0" encoding="utf-8"?>
<!-- Generator: Adobe Illustrator 22.1.0, SVG Export Plug-In . SVG Version: 6.00 Build 0)  -->
<svg version="1.1" id="Layer_1" xmlns="http://www.w3.org/2000/svg" xmlns:xlink="http://www.w3.org/1999/xlink" x="0px" y="0px"
	 viewBox="0 0 500 500" style="enable-background:new 0 0 500 500;" xml:space="preserve">
<style type="text/css">
	.st0{fill:#260DB9;}
</style>
<g transform="translate(0.000000,500.000000) scale(0.100000,-0.100000)">
	<path class="st0" d="M2138.1,4729.7c-385.4-70.8-811.8-247.9-1020.1-426.5c-19.8-15.6-79.3-68-134.6-114.8
		c-53.8-46.8-143.1-137.4-198.4-202.6c-53.8-65.2-103.4-121.8-109.1-126.1c-25.5-19.8-127.5-191.3-199.8-340
		c-90.7-184.2-170-426.5-202.6-614.9c-29.8-172.9-21.3-634.7,14.2-780.7c83.6-338.6,264.9-738.2,403.8-885.5
		c12.8-12.8,60.9-69.4,107.7-126.1s138.8-148.8,205.4-204c66.6-56.7,123.3-106.3,127.5-110.5c22.7-25.5,164.4-110.5,304.6-182.8
		c184.2-96.3,406.6-172.9,614.9-212.5c184.2-35.4,563.9-39.7,739.6-7.1c133.2,25.5,310.3,75.1,330.1,93.5
		c8.5,7.1,2.8,36.8-11.3,72.3c-46.8,113.3-99.2,230.9-107.7,240.9c-4.3,4.3-89.3-4.3-191.3-19.8c-306-46.8-600.7-38.3-858.6,25.5
		c-179.9,43.9-512.9,213.9-646.1,330.1c-266.4,230.9-418,432.1-542.6,722.6c-75.1,178.5-93.5,246.5-121.8,469
		c-25.5,204-22.7,316,15.6,571c35.4,233.8,199.8,599.3,344.3,760.8c32.6,36.8,59.5,72.3,59.5,76.5c0,11.3,155.9,161.5,247.9,239.4
		c134.6,114.8,436.4,270.6,630.5,325.9c89.3,25.5,395.3,66.6,495.9,66.6s405.2-41.1,495.9-66.6c194.1-55.3,495.9-212.5,630.5-327.3
		c83.6-70.8,219.6-206.9,291.9-290.5c107.7-123.3,280.5-454.8,325.9-622c22.7-85,52.4-286.2,63.8-427.9l9.9-126.1l-110.5,8.5
		c-60.9,5.7-128.9,9.9-151.6,9.9c-38.3,0-39.7,2.8-39.7,69.4c0,143.1-77.9,476.1-138.8,596.5c-177.1,344.3-333,515.7-626.2,682.9
		c-215.4,123.3-524.2,209.7-750.9,209.7c-225.3,0-546.9-90.7-758-212.5c-145.9-85-223.9-144.5-331.5-255
		c-69.4-72.3-199.8-240.9-199.8-259.3c0-4.3-21.3-45.3-48.2-90.7c-96.3-164.4-178.5-493.1-178.5-712.7
		c0-175.7,62.3-466.1,131.8-623.4c205.4-456.2,579.5-752.3,1100.9-874.2c128.9-29.8,423.6-34,538.4-7.1
		c42.5,11.3,140.3,38.3,216.8,62.3c76.5,24.1,141.7,41.1,143.1,38.3c7.1-7.1,121.8-252.2,121.8-259.3c0-2.8-18.4-12.8-42.5-22.7
		l-41.1-17l22.7-52.4c12.8-28.3,43.9-102,69.4-164.4c51-126.1,53.8-127.5,160.1-69.4c34,18.4,66.6,34,72.3,34
		c11.3,0,109.1-128.9,148.8-195.5c22.7-36.8,32.6-42.5,62.3-35.4c45.3,9.9,96.3,36.8,143.1,73.7c31.2,25.5,32.6,29.8,12.8,53.8
		c-39.7,46.8-245.1,303.2-283.4,351.4c-85,110.5-167.2,191.3-194.1,191.3c-21.3,0-42.5,22.7-69.4,70.8
		c-21.3,38.3-43.9,70.8-49.6,70.8c-7.1,0-11.3,11.3-11.3,26.9s17,34,45.3,45.3c24.1,9.9,73.7,39.7,109.1,66.6l63.8,49.6l38.3-46.8
		l39.7-46.8l-49.6-60.9l-49.6-60.9l82.2-104.8c45.3-58.1,134.6-181.4,198.4-273.4c65.2-93.5,136-191.3,158.7-218.2l41.1-49.6
		l56.7,63.8c48.2,55.3,53.8,68,45.3,107.7c-5.7,25.5-35.4,76.5-66.6,114.8c-143.1,174.3-230.9,289-230.9,300.4
		c0,7.1,25.5,41.1,56.7,75.1c31.2,32.6,56.7,68,56.7,77.9c0,8.5-24.1,31.2-52.4,48.2c-76.5,46.8-202.6,157.3-202.6,177.1
		c0,8.5,9.9,24.1,21.3,34c26.9,21.3,58.1,9.9,150.2-56.7c34-24.1,128.9-87.8,211.1-141.7c82.2-53.8,205.4-137.4,274.9-184.2
		l126.1-86.4l103.4,38.3c58.1,21.3,104.8,42.5,104.8,49.6c0,34-63.8,178.5-86.4,199.8c-14.2,12.8-52.4,26.9-82.2,32.6l-56.7,9.9
		l89.3,171.4l89.3,172.9l167.2,17c92.1,9.9,170,19.8,171.4,22.7c2.8,2.8-49.6,59.5-119,126.1l-123.3,120.4l-141.7,31.2
		c-178.5,39.7-457.6,128.9-484.6,154.4c-12.8,14.2-17,35.4-9.9,65.2c4.3,24.1,9.9,45.3,11.3,46.8c4.3,4.3,242.3-24.1,419.4-52.4
		l189.9-28.3l107.7,34c58.1,18.4,124.7,38.3,145.9,42.5c38.3,9.9,36.8,11.3-65.2,77.9l-106.3,69.4l-5.7,225.3
		c-8.5,240.9-22.7,321.6-104.8,575.2c-68,209.7-236.6,534.1-330.1,633.3c-12.8,12.8-60.9,69.4-107.7,126.1s-138.8,148.8-205.4,204
		c-66.6,56.7-123.3,106.3-127.5,110.5c-58.1,65.2-427.9,255-619.2,316c-280.5,90.7-325.9,97.8-648.9,102
		C2308.1,4734,2157.9,4732.5,2138.1,4729.7z M2733.2,3776.2c375.5-96.3,695.7-359.9,844.4-691.4c53.8-121.8,86.4-215.4,103.4-299
		c19.8-96.3,19.8-362.7,0-456.2c-15.6-72.3-32.6-85-82.2-56.7c-31.2,15.6-233.8,70.8-263.5,70.8c-12.8,0-21.3-12.8-21.3-32.6
		c0-28.3,18.4-38.3,161.5-87.8l162.9-55.3l-22.7-49.6c-11.3-28.3-24.1-58.1-26.9-66.6c-4.3-9.9,21.3-18.4,73.7-22.7
		c69.4-5.7,87.8-14.2,121.8-52.4c32.6-36.8,39.7-58.1,39.7-116.2c0-96.3-28.3-144.5-106.3-182.8c-48.2-24.1-77.9-28.3-116.2-21.3
		c-55.3,9.9-145.9,87.8-145.9,126.1c0,12.8-36.8-15.6-87.8-66.6l-86.4-86.4l-86.4,94.9c-48.2,52.4-97.8,94.9-110.5,94.9
		c-14.2,0-25.5-2.8-25.5-5.7c0-2.8-4.3-15.6-8.5-26.9c-4.3-12.8,22.7-55.3,70.8-109.1c43.9-48.2,79.3-96.3,79.3-107.7
		c0-17-153-119-179.9-119c-7.1,0-22.7,17-34,39.7c-62.3,121.8-113.3,187-147.4,187c-51,0-45.3-31.2,29.8-151.6
		c35.4-56.7,60.9-109.1,56.7-114.8c-25.5-42.5-341.5-116.2-490.2-116.2c-199.8,0-466.1,79.3-671.6,201.2
		c-116.2,69.4-310.3,255-379.7,365.5c-58.1,90.7-121.8,223.9-168.6,354.2c-29.8,83.6-32.6,114.8-32.6,340
		c0,215.4,4.3,259.3,29.8,334.4c80.8,232.4,187,409.5,333,552.6c185.6,181.4,422.2,304.6,682.9,354.2
		C2360.5,3822.9,2594.3,3813,2733.2,3776.2z M4134.4,1981c34-42.5,36.8-60.9,14.2-109.1c-43.9-96.3-182.8-65.2-182.8,42.5
		C3965.8,2010.8,4076.3,2054.7,4134.4,1981z"/>
</g>
</svg>
