<svg id="Layer_1" data-name="Layer 1" xmlns="http://www.w3.org/2000/svg" viewBox="0 0 324.88 311.06"><defs><style>.cls-1{fill:#2d3fa2;stroke:#fff;stroke-miterlimit:10;stroke-width:3px;}</style></defs><title>archsymbol4</title><path class="cls-1" d="M204.5,71.6c-1.1.2-4.5.9-7.5,1.5-11.4,2.2-29.8,8.4-39.5,13.2-10.1,5-21.6,11.9-24.6,14.7-.9.8-5,4.3-9.1,7.7a140.92,140.92,0,0,0-14.9,15c-4,4.9-7.8,9.2-8.4,9.8-2.2,2.1-9.4,14.4-14.4,24.5-5.8,11.9-12.4,32.7-14.1,44.8-1.9,12.8-.8,44.6,1.9,54.6,4.2,15.8,7.3,24.3,12.8,35.6,7.3,15,11.2,20.6,25.5,37.1,5.3,6.2,21.2,19.6,29.1,24.7,15.6,9.9,37.1,18.4,57,22.3,12.6,2.5,39.5,2.6,51.8.3,9.5-1.7,21.9-5.2,23.3-6.5.9-.8.2-2.9-4.6-13.9-1.1-2.4-2.4-5.5-2.9-6.7-.7-1.8-1.4-2.2-3.6-1.8-32,5.2-47.1,5.3-69.8.3-12.7-2.8-36.1-14.4-47-23.3a260.07,260.07,0,0,1-21-21c-8.4-10.2-19.2-31.7-23.2-46-2.3-8.2-4.6-30.8-3.9-39.3,1.3-17.5,3.5-28.2,8.2-40.1,4.5-11.3,13.5-27.2,19.1-33.9,4-4.7,16.5-17.2,20.8-20.7,10.4-8.5,30.5-18.8,44.7-22.8C196.4,99.9,218,97,225,97c6.2,0,27.1,2.6,33,4.1,13.6,3.5,36,14.8,46.5,23.4a260.07,260.07,0,0,1,21,21c8.1,10,20,33.3,22.9,45,1.5,5.9,3.6,20.2,4.2,28.9l.7,8.9-7.8-.6c-4.3-.4-9.1-.7-10.7-.7-2.7,0-2.8-.2-2.8-4.9,0-10.1-5.5-33.6-9.8-42.1-9.4-18.3-15.9-26.8-29.4-38.2C276.3,127.7,247,117,225,117c-27.1,0-58,13.4-77.3,33.5-4.6,4.8-13.7,16.6-13.7,17.8a48.2,48.2,0,0,1-3.4,6.4C123.8,186.3,118,209.5,118,225c0,21.2,8.5,47.2,21,64.3,11.7,15.9,30.9,30.1,49.9,36.7,14.6,5,22.5,6.4,36.1,6.4,13.2.1,17.5-.7,33.3-5.6,5.4-1.7,10-2.9,10.1-2.7.5.5,8.6,17.8,8.6,18.3a9.26,9.26,0,0,1-3,1.6l-2.9,1.2,1.6,3.7c.9,2,3.1,7.2,4.9,11.6,3.6,8.9,3.8,9,11.3,4.9A29.47,29.47,0,0,1,294,363c.8,0,6.1,6.7,10.7,13.6,2.1,3,2.5,3.2,5.4,2.4,3.8-1.1,11.1-6,10.7-7.1-.2-.4-3.2-4.5-6.8-9.1-6-7.6-8.8-11-19.5-23.4a54.07,54.07,0,0,1-4.8-6c-.4-.8-1.9-1.4-3.2-1.4-1.6,0-3-1-4.1-2.7-.9-1.6-2.5-4-3.5-5.5-2.7-3.8-2.4-5.4,1.3-6.9a44.79,44.79,0,0,0,7.5-4.6c2.4-1.8,4.7-3.3,5.1-3.3s1.6,1.5,2.8,3.3l2.1,3.2-3.4,4.2-3.4,4.2,5.3,6.7c2.9,3.8,8.5,11.4,12.3,17s8.2,11.7,9.7,13.6c7.5,9.2,6.6,8.5,8.3,6.4.8-1.1,2.5-3.1,3.8-4.5,4.1-4.6,3.1-6.4-16.3-30.3-3.2-3.9-3.7-6.2-1.7-7.5,1.7-1.1,6.7-7.3,6.7-8.3,0-.4-1.9-2-4.2-3.4-7.2-4.3-14.2-11.1-13.5-13,1.5-3.8,5.3-3.1,11.3,2.1a34.15,34.15,0,0,0,5.9,4c3.2,1.7,20.7,13.2,21.5,14.2a99.24,99.24,0,0,0,8.4,5.9l7.8,5.3,7.4-2.7c4.1-1.5,7.4-3,7.4-3.5,0-2.4-4.5-12.6-6.1-14.1a14.93,14.93,0,0,0-5.8-2.3l-4-.7,6.3-12.1,6.3-12.2,11.8-1.2c6.5-.7,12-1.4,12.1-1.6s-3.5-4.2-8.4-8.9l-8.7-8.5-10-2.2c-12.7-2.8-32.3-9.1-34.2-11a4,4,0,0,1-.9-3.5,18,18,0,0,0,.6-3.3c0-1.5,3.9-1.1,26.9,2.3l16.5,2.4,7.5-2.4c4.2-1.4,8.9-2.7,10.4-3.1,2.7-.6,2.6-.8-4.6-5.4l-7.4-4.9-.6-16.3c-.6-17.3-1.6-22.6-7.8-41.7-2.9-9-12.6-29.1-17.1-35.5-2.9-4.1-9.8-12.7-16-19.8-4.7-5.5-19.5-18.1-27.3-23.5-7.6-5.2-26.5-14.3-35.7-17.3-21.1-6.9-23.7-7.3-46.8-7.7C216.2,71.3,205.6,71.3,204.5,71.6ZM246,138.9c26.6,6.9,49,25.2,59.6,48.8,3.8,8.6,6.1,15.2,7.3,21.1,1.4,6.8,1.4,25.6,0,32.2-1.1,5.1-2.3,6-5.8,4-2.2-1.1-16.5-5-18.6-5-.9,0-1.5.9-1.5,2.3,0,2.1,1.3,2.7,11.5,6.2l11.4,3.8-1.5,3.6c-.9,2-1.8,4.2-2.1,4.8-.4,1,.9,1.3,4.7,1.3,4.6,0,5.6.4,8.6,3.4s3.4,4,3.4,8.7c0,7.2-2.5,11.2-8.4,13.4-3.9,1.5-5.3,1.6-8.6.6-3.9-1.2-9-6.1-9-8.7,0-.8-2.7,1.4-6,4.8l-6,6.3-6.3-6.8c-3.4-3.7-7-6.7-7.9-6.7s-1.8.2-1.8.4a11.8,11.8,0,0,1-.6,1.9c-.3.9,1.6,3.9,5,7.7,3.1,3.4,5.6,6.8,5.6,7.6,0,1.2-10.8,8.4-12.7,8.4-.4,0-2.9-3.5-5.3-7.8-3.2-5.5-5.2-7.8-6.8-8a2.44,2.44,0,0,0-2.8,1.2c-.6,1.6,2.4,7.4,5.7,11.1a9.41,9.41,0,0,1,2.1,4.4c.3,2.1-.5,2.7-5.7,4.8-7,2.7-20.7,5.3-28.5,5.3-6.8,0-20.8-2.4-26.9-4.6-26.3-9.6-43.3-24.7-53.8-47.4-7.3-15.7-7.7-17.9-7.7-37,0-15.2.3-18.3,2.1-23.6,9.6-27.8,25.1-45.6,49.6-56.8,9-4.2,13.1-5.5,22.1-7.2C219.7,135.6,236.2,136.3,246,138.9Zm98.9,126.7c2.4,3,2.6,4.3,1,7.7a6.73,6.73,0,0,1-12.9-3C333,263.5,340.8,260.4,344.9,265.6Z" transform="translate(-69.55 -69.84)"/></svg>