<?xml version="1.0" encoding="UTF-8"?>
<svg version="1.1" xmlns="http://www.w3.org/2000/svg" width="100" height="100">
<path d="M0,0 L16,0 L16,1 L21,1 L21,2 L25,2 L25,3 L27,3 L27,4 L29,4 L29,5 L31,5 L31,6 L33,6 L33,7 L35,7 L35,8 L36,8 L36,9 L38,9 L38,10 L39,10 L39,11 L41,11 L41,12 L42,12 L42,13 L43,13 L43,14 L44,14 L44,15 L45,15 L45,16 L46,16 L46,17 L47,17 L47,19 L48,19 L48,20 L49,20 L49,21 L50,21 L50,23 L51,23 L51,24 L52,24 L52,26 L53,26 L53,28 L54,28 L54,30 L55,30 L55,33 L56,33 L56,36 L57,36 L57,40 L58,40 L58,61 L57,61 L57,65 L56,65 L56,68 L55,68 L55,70 L54,70 L54,72 L53,72 L53,74 L52,74 L52,76 L51,76 L51,78 L50,78 L50,79 L49,79 L49,80 L48,80 L48,82 L47,82 L47,83 L46,83 L46,84 L45,84 L45,85 L44,85 L44,86 L43,86 L43,87 L42,87 L42,88 L41,88 L41,89 L40,89 L40,90 L38,90 L38,91 L37,91 L37,92 L36,92 L36,93 L34,93 L34,94 L32,94 L32,95 L30,95 L30,96 L28,96 L28,97 L26,97 L26,98 L23,98 L23,99 L19,99 L19,100 L-3,100 L-3,99 L-7,99 L-7,98 L-10,98 L-10,97 L-12,97 L-12,96 L-14,96 L-14,95 L-16,95 L-16,94 L-18,94 L-18,93 L-19,93 L-19,92 L-21,92 L-21,91 L-22,91 L-22,90 L-24,90 L-24,89 L-25,89 L-25,88 L-26,88 L-26,87 L-27,87 L-27,86 L-28,86 L-28,85 L-29,85 L-29,84 L-30,84 L-30,83 L-31,83 L-31,81 L-32,81 L-32,80 L-33,80 L-33,79 L-34,79 L-34,77 L-35,77 L-35,75 L-36,75 L-36,74 L-37,74 L-37,72 L-38,72 L-38,69 L-39,69 L-39,67 L-40,67 L-40,64 L-41,64 L-41,37 L-40,37 L-40,34 L-39,34 L-39,31 L-38,31 L-38,29 L-37,29 L-37,27 L-36,27 L-36,25 L-35,25 L-35,23 L-34,23 L-34,22 L-33,22 L-33,20 L-32,20 L-32,19 L-31,19 L-31,18 L-30,18 L-30,17 L-29,17 L-29,16 L-28,16 L-28,15 L-27,15 L-27,14 L-26,14 L-26,13 L-25,13 L-25,12 L-24,12 L-24,11 L-23,11 L-23,10 L-22,10 L-22,9 L-20,9 L-20,8 L-19,8 L-19,7 L-17,7 L-17,6 L-15,6 L-15,5 L-13,5 L-13,4 L-11,4 L-11,3 L-8,3 L-8,2 L-5,2 L-5,1 L0,1 Z M8,7 L8,8 L0,8 L0,9 L-4,9 L-4,10 L-7,10 L-7,11 L-9,11 L-9,12 L-12,12 L-12,13 L-13,13 L-13,14 L-15,14 L-15,15 L-17,15 L-17,16 L-18,16 L-18,17 L-19,17 L-19,18 L-20,18 L-20,19 L-21,19 L-21,20 L-22,20 L-22,21 L-23,21 L-23,22 L-24,22 L-24,23 L-25,23 L-25,24 L-26,24 L-26,25 L-27,25 L-27,27 L-25,27 L-25,26 L-22,26 L-22,33 L-23,33 L-23,35 L-24,35 L-24,42 L-23,42 L-23,44 L-22,44 L-22,45 L-21,45 L-21,46 L-18,46 L-18,47 L-17,47 L-17,48 L-16,48 L-16,49 L-15,49 L-15,50 L-14,50 L-14,51 L-12,51 L-12,52 L-10,52 L-10,53 L-8,53 L-8,54 L-5,54 L-5,55 L-2,55 L-2,56 L5,56 L5,57 L11,57 L11,56 L18,56 L18,55 L21,55 L21,54 L24,54 L24,53 L26,53 L26,52 L28,52 L28,51 L30,51 L30,50 L31,50 L31,49 L33,49 L33,48 L34,48 L34,46 L38,46 L38,44 L39,44 L39,43 L40,43 L40,40 L41,40 L41,36 L40,36 L40,34 L39,34 L39,31 L38,31 L38,27 L39,27 L39,26 L42,26 L42,27 L43,27 L43,28 L44,28 L44,26 L43,26 L43,25 L42,25 L42,24 L41,24 L41,22 L40,22 L40,21 L39,21 L39,20 L38,20 L38,19 L37,19 L37,18 L36,18 L36,17 L34,17 L34,16 L33,16 L33,15 L31,15 L31,14 L30,14 L30,13 L28,13 L28,12 L26,12 L26,11 L23,11 L23,10 L20,10 L20,9 L17,9 L17,8 L9,8 L9,7 Z M-28,27 L-28,28 L-27,28 L-27,27 Z M-29,28 L-29,29 L-28,29 L-28,28 Z M44,28 L44,29 L45,29 L45,28 Z M-30,30 L-30,31 L-29,31 L-29,30 Z M46,31 L46,32 L47,32 L47,31 Z M-31,32 L-31,33 L-30,33 L-30,32 Z M47,33 L47,34 L48,34 L48,33 Z M49,40 L49,41 L50,41 L50,40 Z M-31,55 L-31,64 L-30,64 L-30,67 L-29,67 L-29,69 L-28,69 L-28,71 L-27,71 L-27,73 L-26,73 L-26,74 L-25,74 L-25,75 L-24,75 L-24,77 L-23,77 L-23,78 L-22,78 L-22,79 L-21,79 L-21,80 L-20,80 L-20,81 L-18,81 L-18,82 L-16,82 L-16,83 L-12,83 L-12,82 L-10,82 L-10,81 L-7,81 L-7,80 L-2,80 L-2,79 L19,79 L19,80 L23,80 L23,81 L26,81 L26,82 L29,82 L29,83 L32,83 L32,82 L35,82 L35,81 L36,81 L36,80 L37,80 L37,79 L38,79 L38,78 L39,78 L39,77 L40,77 L40,76 L41,76 L41,75 L42,75 L42,73 L43,73 L43,72 L44,72 L44,70 L45,70 L45,68 L46,68 L46,65 L47,65 L47,61 L48,61 L48,57 L47,57 L47,55 L46,55 L46,56 L45,56 L45,57 L43,57 L43,58 L42,58 L42,59 L40,59 L40,60 L37,60 L37,61 L35,61 L35,62 L33,62 L33,63 L31,63 L31,64 L27,64 L27,65 L22,65 L22,66 L-5,66 L-5,65 L-11,65 L-11,64 L-14,64 L-14,63 L-17,63 L-17,62 L-19,62 L-19,61 L-21,61 L-21,60 L-23,60 L-23,59 L-25,59 L-25,58 L-27,58 L-27,57 L-28,57 L-28,56 L-30,56 L-30,55 Z M4,85 L4,86 L2,86 L2,89 L3,89 L3,90 L4,90 L4,91 L5,91 L5,92 L11,92 L11,91 L13,91 L13,90 L14,90 L14,88 L15,88 L15,87 L14,87 L14,86 L12,86 L12,85 Z " fill="#000000" transform="translate(42,0)"/>
<path d="M0,0 L8,0 L8,1 L9,1 L9,2 L10,2 L10,6 L9,6 L9,7 L8,7 L8,8 L0,8 L0,7 L-1,7 L-1,1 L0,1 Z " fill="#000000" transform="translate(46,12)"/>
</svg>
