<?xml version="1.0" encoding="UTF-8"?>
<svg version="1.1" xmlns="http://www.w3.org/2000/svg" width="310" height="310">
<path d="M0 0 C1.87468429 1.69940893 3.73500972 3.41484067 5.578125 5.1484375 C7.58809819 7.03238343 9.62922078 8.80533604 11.7578125 10.55078125 C15.60101117 13.82933936 18.82225692 17.51381237 22.0078125 21.42578125 C23.02488281 22.66908203 23.02488281 22.66908203 24.0625 23.9375 C49.3552323 56.20598587 60.86655146 96.98644348 56.5078125 137.7421875 C51.97270512 173.2740667 36.62151056 203.59795459 12.0078125 229.42578125 C11.00814453 230.50472656 11.00814453 230.50472656 9.98828125 231.60546875 C-15.09127052 257.89939882 -53.85937757 273.51633001 -89.8359375 274.6640625 C-133.58341984 275.39236334 -173.22114849 261.48962339 -205.08203125 231.26953125 C-234.26013728 203.01817884 -251.31727221 164.3052567 -252.27539062 123.61425781 C-252.54003233 98.19983313 -247.21201475 74.19080023 -235.9921875 51.42578125 C-235.6631543 50.74999023 -235.33412109 50.07419922 -234.99511719 49.37792969 C-228.52519731 36.22522118 -220.09427102 25.05144836 -209.9921875 14.42578125 C-209.48558594 13.88663086 -208.97898438 13.34748047 -208.45703125 12.79199219 C-155.18569646 -43.5962824 -59.74158206 -51.39647856 0 0 Z M-107.625 -13.4375 C-138.30673869 -11.48129463 -172.47033172 4.55216732 -193.9921875 26.42578125 C-194.87648438 27.31136719 -195.76078125 28.19695313 -196.671875 29.109375 C-204.70014077 37.52529846 -212.35956619 47.66867754 -216.9921875 58.42578125 C-216.6621875 59.08578125 -216.3321875 59.74578125 -215.9921875 60.42578125 C-215.0021875 60.42578125 -214.0121875 60.42578125 -212.9921875 60.42578125 C-210.56504991 57.80726882 -210.56504991 57.80726882 -209.9921875 54.42578125 C-209.41339844 54.16796875 -208.83460938 53.91015625 -208.23828125 53.64453125 C-205.80766259 52.32565643 -204.07168933 50.810979 -202.0546875 48.92578125 C-199.17625444 46.33788162 -196.78737787 44.49317854 -192.9921875 43.42578125 C-192.48790904 45.62893958 -191.9940494 47.83316891 -191.51953125 50.04296875 C-191.10142853 51.93217363 -190.62021467 53.80739461 -190.1171875 55.67578125 C-189.9921875 58.42578125 -189.9921875 58.42578125 -191.77734375 60.5859375 C-196.79602231 67.02082164 -200.65722392 77.51788255 -200.2421875 85.73828125 C-198.84652636 93.06864562 -195.00914938 101.82642819 -188.9921875 106.42578125 C-187.86039063 106.56886719 -186.72859375 106.71195312 -185.5625 106.859375 C-181.02801883 107.57874017 -179.85782325 109.0804565 -176.8671875 112.48828125 C-158.5587797 132.11830833 -128.2212369 139.59809439 -102.25390625 140.64453125 C-72.09524592 141.43045366 -41.33414737 133.79220648 -18.2421875 113.65234375 C-15.96735667 111.54104014 -15.96735667 111.54104014 -14.44921875 109.17578125 C-12.9921875 107.42578125 -12.9921875 107.42578125 -10.94140625 106.94921875 C-10.19503906 106.90023437 -9.44867188 106.85125 -8.6796875 106.80078125 C-5.56658527 106.22878035 -4.31301326 105.78386419 -2.17578125 103.3984375 C2.80862379 95.29097166 6.83740511 86.06925897 5.0078125 76.42578125 C1.74667702 66.67512889 1.74667702 66.67512889 -3.9921875 58.42578125 C-4.00390625 56.47265625 -4.00390625 56.47265625 -3.6796875 54.17578125 C-3.51726562 52.97888672 -3.51726562 52.97888672 -3.3515625 51.7578125 C-2.92281513 48.97561489 -2.48952214 46.1966457 -1.9921875 43.42578125 C3.29618054 45.77470899 6.98336421 48.16460071 11.0078125 52.42578125 C11.6678125 52.42578125 12.3278125 52.42578125 13.0078125 52.42578125 C13.0078125 53.08578125 13.0078125 53.74578125 13.0078125 54.42578125 C13.6678125 54.42578125 14.3278125 54.42578125 15.0078125 54.42578125 C15.6678125 55.74578125 16.3278125 57.06578125 17.0078125 58.42578125 C17.9978125 58.42578125 18.9878125 58.42578125 20.0078125 58.42578125 C20.3378125 57.76578125 20.6678125 57.10578125 21.0078125 56.42578125 C15.01072202 43.78060034 5.62355062 33.40815063 -3.9921875 23.42578125 C-5.23935547 22.12060547 -5.23935547 22.12060547 -6.51171875 20.7890625 C-26.85154511 0.88665176 -62.93101801 -12.51815323 -90.9921875 -13.57421875 C-92.08789062 -13.62964844 -93.18359375 -13.68507813 -94.3125 -13.7421875 C-98.763904 -13.85702716 -103.17749932 -13.60487906 -107.625 -13.4375 Z M21.0078125 58.42578125 C22.0078125 60.42578125 22.0078125 60.42578125 22.0078125 60.42578125 Z M19.0078125 59.42578125 C20.0078125 61.42578125 20.0078125 61.42578125 20.0078125 61.42578125 Z M-215.9921875 61.42578125 C-215.9921875 64.42578125 -215.9921875 64.42578125 -215.9921875 64.42578125 Z M21.0078125 62.42578125 C22.0078125 64.42578125 22.0078125 64.42578125 22.0078125 64.42578125 Z M-217.9921875 64.42578125 C-216.9921875 66.42578125 -216.9921875 66.42578125 -216.9921875 66.42578125 Z M22.0078125 64.42578125 C23.0078125 66.42578125 23.0078125 66.42578125 23.0078125 66.42578125 Z M24.0078125 67.42578125 C25.0078125 69.42578125 25.0078125 69.42578125 25.0078125 69.42578125 Z M-219.9921875 68.42578125 C-218.9921875 70.42578125 -218.9921875 70.42578125 -218.9921875 70.42578125 Z M25.0078125 69.42578125 C26.0078125 71.42578125 26.0078125 71.42578125 26.0078125 71.42578125 Z M-220.9921875 70.42578125 C-219.9921875 72.42578125 -219.9921875 72.42578125 -219.9921875 72.42578125 Z M26.0078125 71.42578125 C27.0078125 73.42578125 27.0078125 73.42578125 27.0078125 73.42578125 Z M-221.9921875 72.42578125 C-220.9921875 74.42578125 -220.9921875 74.42578125 -220.9921875 74.42578125 Z M-222.9921875 74.42578125 C-221.9921875 76.42578125 -221.9921875 76.42578125 -221.9921875 76.42578125 Z M-223.9921875 76.42578125 C-222.9921875 79.42578125 -222.9921875 79.42578125 -222.9921875 79.42578125 Z M28.0078125 76.42578125 C29.0078125 78.42578125 29.0078125 78.42578125 29.0078125 78.42578125 Z M29.0078125 78.42578125 C30.0078125 82.42578125 30.0078125 82.42578125 30.0078125 82.42578125 Z M-224.9921875 79.42578125 C-223.9921875 83.42578125 -223.9921875 83.42578125 -223.9921875 83.42578125 Z M30.0078125 82.42578125 C30.3378125 87.37578125 30.6678125 92.32578125 31.0078125 97.42578125 C31.3378125 97.42578125 31.6678125 97.42578125 32.0078125 97.42578125 C32.11032922 92.29994514 32.04371449 87.47580347 31.0078125 82.42578125 C30.6778125 82.42578125 30.3478125 82.42578125 30.0078125 82.42578125 Z M-225.9921875 83.42578125 C-225.9921875 86.06578125 -225.9921875 88.70578125 -225.9921875 91.42578125 C-225.6621875 91.42578125 -225.3321875 91.42578125 -224.9921875 91.42578125 C-224.9921875 88.78578125 -224.9921875 86.14578125 -224.9921875 83.42578125 C-225.3221875 83.42578125 -225.6521875 83.42578125 -225.9921875 83.42578125 Z M-226.9921875 91.42578125 C-226.9921875 93.40578125 -226.9921875 95.38578125 -226.9921875 97.42578125 C-226.6621875 97.42578125 -226.3321875 97.42578125 -225.9921875 97.42578125 C-225.9921875 95.44578125 -225.9921875 93.46578125 -225.9921875 91.42578125 C-226.3221875 91.42578125 -226.6521875 91.42578125 -226.9921875 91.42578125 Z M19.0078125 135.55078125 C18.2859375 135.94523438 17.5640625 136.3396875 16.8203125 136.74609375 C14.41684332 138.18149895 12.12527593 139.69150427 9.8125 141.265625 C-22.70356239 163.07730832 -58.53074543 168.66973016 -96.9296875 168.61328125 C-97.63641602 168.61300934 -98.34314453 168.61273743 -99.07128906 168.61245728 C-140.88406786 168.53924743 -175.25028504 160.54800103 -210.58984375 137.75 C-214.46466177 135.11749136 -214.46466177 135.11749136 -218.9921875 134.42578125 C-223.3403818 153.23260536 -217.20161494 171.20693127 -207.9921875 187.42578125 C-207.44691406 188.41191406 -206.90164062 189.39804688 -206.33984375 190.4140625 C-199.09151835 202.66001078 -186.85299338 217.56173613 -172.8046875 221.48828125 C-164.24200336 223.46788949 -157.4856026 220.66219623 -149.80664062 217.21679688 C-134.21812049 210.7204109 -117.48543837 209.74654578 -100.81176758 209.84936523 C-97.69178182 209.86322751 -94.57481345 209.82899245 -91.45507812 209.79101562 C-71.89184644 209.71529343 -53.83765893 213.05398425 -36 221.16796875 C-31.51848495 222.90477857 -27.61969703 222.32554486 -22.9921875 221.42578125 C-22.24912354 221.29268555 -21.50605957 221.15958984 -20.74047852 221.02246094 C-12.48985961 219.33302449 -6.66274442 212.18834389 -0.9921875 206.42578125 C-0.22390625 205.65621094 0.544375 204.88664062 1.3359375 204.09375 C17.16149341 187.30246135 25.85878187 164.97712068 25.24609375 142.0703125 C25.05025748 139.07498066 24.70332861 136.33790155 24.0078125 133.42578125 C22.15777519 133.42578125 20.59037793 134.67707325 19.0078125 135.55078125 Z M-117.9921875 233.42578125 C-118.61289779 235.82887976 -118.61289779 235.82887976 -117.9921875 238.42578125 C-116.08017719 241.15912184 -116.08017719 241.15912184 -113.5546875 243.67578125 C-112.31912109 244.98289062 -112.31912109 244.98289062 -111.05859375 246.31640625 C-106.52204583 250.94728692 -101.33801838 249.88815793 -95.01025391 249.95800781 C-89.77941951 249.87042507 -85.95085745 249.80226614 -81.8671875 246.17578125 C-80.27021141 244.38629691 -80.27021141 244.38629691 -78.9921875 242.42578125 C-78.44046875 241.7503125 -77.88875 241.07484375 -77.3203125 240.37890625 C-75.72717646 238.40526945 -75.72717646 238.40526945 -75.8671875 235.42578125 C-77.25982424 231.71208328 -78.69049388 230.94313784 -82.10546875 229.1875 C-87.10684494 227.16831086 -91.92047021 227.20858074 -97.2421875 227.17578125 C-98.47388672 227.14484375 -98.47388672 227.14484375 -99.73046875 227.11328125 C-106.55742673 227.07000418 -113.31596765 227.89862407 -117.9921875 233.42578125 Z " fill="#000000" transform="translate(252.9921875,35.57421875)"/>
<path d="M0 0 C7.59 0 15.18 0 23 0 C22.67 0.66 22.34 1.32 22 2 C22.78375 2.5775 23.5675 3.155 24.375 3.75 C26.91156273 5.92419663 27.82269149 6.97658332 29 10 C29.33653122 14.8236141 28.68033086 18.15853814 25.625 21.9375 C19.80266137 26.51219464 14.87491389 27.48365287 7.51953125 26.75390625 C2.77492499 25.85584845 -0.6019035 24.60404175 -4 21 C-6.27363356 17.27950872 -6.21085412 14.1150813 -5.546875 9.93359375 C-4.7042214 6.95421138 -3.19595018 5.13136341 -1 3 C-0.01 2.67 0.98 2.34 2 2 C1.34 1.34 0.68 0.68 0 0 Z " fill="#000000" transform="translate(144,36)"/>
</svg>
