<?xml version="1.0" standalone="no"?>
<!DOCTYPE svg PUBLIC "-//W3C//DTD SVG 20010904//EN"
 "http://www.w3.org/TR/2001/REC-SVG-20010904/DTD/svg10.dtd">
<svg version="1.0" xmlns="http://www.w3.org/2000/svg"
 width="600.000000pt" height="600.000000pt" viewBox="0 0 600.000000 600.000000"
 preserveAspectRatio="xMidYMid meet">
<g transform="translate(0.000000,600.000000) scale(0.100000,-0.100000)"
fill="#000000" stroke="none">
<path d="M2745 5949 c-97 -6 -150 -14 -172 -25 -21 -11 -44 -15 -67 -11 -20 3
-41 0 -53 -8 -10 -7 -34 -12 -52 -11 -18 1 -39 -4 -46 -11 -8 -7 -29 -13 -49
-13 -19 0 -38 -5 -41 -11 -4 -5 -19 -7 -35 -4 -19 4 -29 2 -33 -8 -4 -10 -28
-17 -66 -22 -33 -4 -65 -13 -71 -20 -6 -7 -29 -16 -50 -20 -21 -4 -44 -13 -50
-21 -7 -7 -28 -17 -48 -20 -20 -4 -43 -13 -50 -21 -8 -7 -18 -11 -23 -7 -5 3
-22 -4 -38 -15 -16 -12 -36 -21 -45 -21 -9 0 -16 -5 -16 -11 0 -6 -6 -9 -12
-6 -7 2 -26 -5 -42 -17 -39 -27 -97 -56 -112 -56 -7 0 -14 -7 -18 -15 -3 -8
-14 -15 -24 -15 -10 0 -23 -5 -30 -12 -7 -7 -12 -9 -12 -5 0 3 -12 -5 -26 -18
-15 -14 -30 -22 -34 -20 -4 3 -10 -1 -13 -9 -3 -7 -29 -26 -59 -41 -29 -15
-59 -36 -66 -46 -7 -11 -19 -19 -26 -19 -7 0 -25 -13 -41 -30 -16 -16 -34 -30
-40 -30 -14 0 -95 -80 -95 -93 0 -5 -7 -7 -15 -3 -15 6 -48 -31 -39 -46 3 -4
-1 -5 -9 -2 -10 3 -45 -26 -99 -83 -45 -48 -102 -107 -125 -131 -24 -23 -43
-46 -43 -50 -1 -13 -78 -92 -90 -92 -7 0 -10 -6 -7 -14 3 -8 -4 -22 -15 -33
-11 -10 -34 -38 -51 -63 -17 -25 -33 -47 -36 -50 -9 -8 -30 -42 -40 -67 -6
-11 -15 -24 -21 -28 -5 -3 -8 -11 -4 -16 3 -6 -3 -17 -15 -25 -12 -8 -21 -23
-21 -33 0 -11 -6 -21 -13 -24 -7 -2 -26 -31 -42 -63 -16 -33 -33 -60 -37 -62
-4 -2 -8 -10 -8 -17 0 -7 -13 -39 -30 -70 -16 -31 -30 -63 -30 -71 0 -8 -4
-14 -10 -14 -5 0 -10 -7 -10 -15 0 -8 -9 -30 -20 -50 -11 -20 -20 -42 -20 -49
0 -8 -7 -27 -15 -42 -8 -16 -15 -39 -15 -52 0 -12 -6 -25 -14 -28 -8 -3 -17
-28 -20 -57 -4 -28 -12 -58 -19 -65 -6 -8 -13 -26 -14 -41 -6 -60 -16 -106
-25 -112 -10 -6 -11 -13 -23 -134 -4 -38 -11 -71 -16 -73 -5 -2 -9 -29 -9 -61
0 -31 -5 -62 -10 -67 -6 -6 -11 -58 -11 -117 -1 -59 -5 -109 -10 -113 -12 -7
-12 -231 1 -239 6 -3 10 -49 10 -103 0 -107 34 -342 52 -353 6 -4 8 -11 5 -16
-7 -11 20 -138 34 -166 5 -9 7 -28 3 -42 -5 -19 -2 -25 11 -25 13 0 16 -7 13
-30 -3 -17 -1 -30 4 -30 4 0 8 -13 8 -29 0 -16 7 -34 15 -41 8 -7 14 -18 13
-24 -1 -6 3 -20 9 -31 6 -11 14 -37 18 -58 4 -20 11 -37 16 -37 5 0 9 -5 9
-12 0 -29 170 -366 192 -379 5 -3 9 -8 8 -10 -4 -9 24 -59 33 -59 5 0 7 -6 4
-14 -4 -9 5 -21 19 -31 14 -9 22 -20 19 -25 -3 -6 5 -21 19 -35 15 -14 26 -31
26 -38 0 -7 11 -22 25 -35 13 -13 21 -30 18 -38 -3 -7 0 -14 6 -14 15 0 82
-67 79 -78 -2 -4 27 -39 64 -77 38 -38 68 -73 68 -77 0 -10 151 -160 157 -155
2 3 15 -6 29 -20 13 -13 29 -21 36 -17 6 4 8 3 4 -4 -8 -13 62 -87 92 -96 12
-4 22 -11 22 -16 0 -10 106 -91 116 -89 3 0 18 -10 32 -24 15 -14 37 -28 50
-32 12 -3 22 -11 22 -16 0 -5 12 -14 28 -19 47 -18 71 -33 66 -42 -3 -4 1 -8
9 -8 16 0 98 -40 107 -52 6 -8 52 -26 62 -24 4 0 13 -8 21 -18 8 -11 19 -16
25 -12 7 4 12 4 12 -1 0 -4 15 -14 33 -21 17 -7 48 -21 67 -29 19 -9 39 -16
43 -15 4 1 10 -5 13 -13 4 -8 17 -15 29 -15 13 0 27 -5 30 -10 4 -6 10 -8 15
-5 5 3 20 -1 32 -8 13 -8 41 -20 63 -27 22 -7 45 -15 50 -19 13 -7 31 -11 88
-18 27 -3 47 -11 47 -18 0 -6 6 -12 13 -12 80 -5 131 -13 140 -22 6 -6 29 -11
51 -11 23 0 57 -4 76 -10 19 -5 49 -11 65 -13 17 -2 37 -6 45 -10 57 -21 583
-37 595 -17 3 5 42 10 85 10 43 0 82 5 85 10 3 6 30 10 60 10 30 0 57 5 60 10
3 6 31 10 61 10 30 0 54 4 54 9 0 8 47 18 115 24 17 1 35 7 40 13 6 7 28 14
50 17 60 9 74 12 81 20 4 4 17 7 29 7 13 0 28 6 35 14 6 8 17 13 24 10 8 -3
30 4 50 15 20 12 47 21 60 21 13 0 27 7 30 16 3 8 10 12 16 9 5 -3 10 -1 10 4
0 6 7 11 15 11 9 0 34 9 57 20 22 11 44 17 49 15 4 -3 11 1 16 8 4 7 35 26 68
41 33 16 74 38 90 50 17 12 57 35 90 51 33 17 66 38 73 48 7 9 18 17 24 17 5
0 23 9 39 21 16 11 29 17 29 12 0 -4 7 3 16 15 9 13 24 26 34 30 19 8 94 69
176 145 28 26 55 47 60 47 11 0 187 184 274 286 36 42 78 91 93 107 15 17 35
46 44 64 8 18 19 33 24 33 5 0 9 7 9 15 0 8 4 15 9 15 5 0 14 14 21 30 7 17
15 30 19 30 9 0 55 89 49 96 -3 3 -12 -2 -19 -10 -32 -35 -39 -46 -32 -46 4 0
-8 -14 -27 -30 -23 -20 -28 -28 -15 -24 19 5 19 5 2 -9 -10 -8 -19 -19 -19
-24 -1 -14 -35 -53 -41 -47 -3 3 -3 -4 0 -17 4 -15 3 -20 -5 -15 -10 6 -14 -1
-14 -24 0 -3 -9 -14 -21 -25 -11 -11 -17 -15 -13 -8 3 6 1 15 -5 19 -7 4 -10
3 -7 -2 9 -15 -11 -56 -24 -48 -8 5 -9 2 -5 -10 6 -14 3 -17 -8 -12 -9 3 -13
2 -10 -4 3 -5 -3 -15 -15 -22 -11 -7 -20 -16 -20 -21 0 -4 5 -5 12 -1 7 4 8 3
4 -5 -4 -6 -12 -9 -17 -6 -5 4 -12 -1 -15 -9 -3 -9 -11 -13 -18 -9 -6 3 -8 3
-4 -2 10 -11 -62 -106 -79 -105 -4 0 -8 -6 -8 -12 0 -7 -8 -12 -18 -12 -9 1
-14 -2 -11 -8 7 -11 -15 -40 -27 -33 -4 3 -13 -4 -19 -16 -10 -17 -9 -20 1
-14 8 5 10 4 5 -3 -4 -7 -13 -12 -20 -12 -8 0 -21 -10 -30 -22 -9 -13 -14 -17
-10 -9 4 9 -2 8 -20 -4 -14 -9 -23 -22 -19 -28 3 -5 1 -7 -5 -3 -6 3 -14 -3
-17 -15 -4 -12 -12 -18 -20 -15 -10 3 -12 0 -8 -11 5 -12 3 -14 -7 -8 -8 5
-18 1 -27 -10 -7 -11 -13 -15 -13 -11 0 13 -46 -37 -53 -58 -5 -12 -14 -17
-27 -13 -13 3 -18 1 -13 -6 4 -7 0 -8 -11 -4 -13 5 -17 3 -13 -7 3 -8 -2 -20
-11 -28 -15 -12 -16 -11 -4 4 10 12 10 18 1 24 -7 4 -9 3 -6 -3 9 -14 -45 -60
-66 -57 -9 1 -15 -3 -14 -9 1 -7 -4 -11 -12 -9 -7 1 -19 -2 -25 -8 -7 -5 -16
-8 -20 -5 -3 3 -2 0 3 -7 8 -8 15 -8 28 3 17 13 17 13 4 -4 -9 -11 -22 -16
-34 -13 -10 2 -16 2 -13 -1 10 -10 -33 -35 -46 -27 -6 4 -8 3 -5 -3 4 -6 0
-14 -9 -17 -24 -9 -29 0 -13 21 13 16 12 17 -3 4 -10 -7 -18 -18 -18 -23 0
-12 -52 -54 -62 -51 -5 2 -8 -2 -8 -8 0 -8 -5 -7 -15 1 -13 11 -14 10 -10 -3
4 -8 1 -18 -6 -23 -8 -5 -10 -3 -4 5 4 7 -16 -3 -44 -23 -28 -20 -51 -34 -51
-32 0 3 -39 -11 -87 -30 -49 -19 -94 -34 -100 -34 -7 0 -13 -5 -13 -10 0 -6
-14 -8 -32 -5 -23 4 -29 2 -18 -4 8 -5 18 -7 24 -4 5 3 6 1 3 -4 -4 -6 -20 -9
-37 -8 -16 1 -28 -1 -25 -4 2 -4 -5 -12 -16 -19 -10 -7 -19 -9 -19 -4 0 4 -9
8 -19 8 -11 0 -18 -3 -15 -7 6 -10 -55 -32 -93 -33 -18 -1 -38 -7 -44 -13 -16
-16 -39 -17 -39 -1 0 6 -7 3 -15 -8 -9 -12 -14 -14 -15 -6 0 7 -5 10 -10 7 -6
-4 -8 -10 -5 -15 3 -4 -13 -7 -35 -6 -23 1 -41 -3 -44 -10 -4 -12 -87 -24
-183 -27 -28 -1 -49 -5 -47 -9 6 -10 -49 -19 -103 -17 -27 1 -55 -1 -61 -5 -7
-4 -92 -10 -189 -13 -134 -4 -175 -2 -167 6 8 8 60 11 172 9 89 -2 158 0 154
4 -4 4 -82 8 -174 10 -91 2 -161 0 -155 -4 16 -10 -31 -26 -59 -20 -13 2 -21
9 -18 14 4 6 -3 5 -15 -1 -12 -7 -27 -9 -33 -5 -7 4 -31 7 -55 5 -23 -1 -53 4
-65 11 -28 15 -69 18 -60 3 3 -5 -1 -4 -10 3 -8 7 -24 9 -33 5 -12 -4 -16 -3
-12 4 4 6 -16 12 -56 16 -55 4 -123 27 -113 38 2 2 -3 10 -11 18 -13 12 -14
11 -8 -7 5 -18 3 -21 -11 -15 -12 4 -15 3 -10 -5 5 -8 2 -10 -8 -6 -19 7 -21
20 -3 27 9 4 9 6 0 6 -6 1 -15 -4 -18 -9 -3 -6 -11 -10 -17 -10 -6 0 -5 7 3
18 11 14 11 15 -1 5 -16 -14 -34 -18 -26 -5 3 4 -10 7 -27 6 -18 -1 -36 1 -42
5 -11 9 -66 25 -78 23 -4 -1 -7 3 -7 8 0 6 -11 8 -25 6 -14 -3 -25 -1 -25 3 0
14 26 31 35 23 5 -4 5 -1 1 6 -6 11 -11 10 -26 -3 -16 -15 -19 -15 -36 2 -17
17 -18 17 -11 -2 7 -19 7 -19 -7 -1 -9 10 -22 16 -30 13 -9 -4 -18 -2 -22 4
-3 6 -13 8 -21 5 -8 -3 -11 -1 -8 4 3 6 1 10 -6 10 -7 0 -5 9 7 23 19 22 19
22 -1 5 -21 -17 -48 -19 -62 -3 -5 4 -1 4 7 0 13 -8 13 -6 1 8 -12 15 -31 15
-31 1 0 -3 5 -2 12 2 7 4 8 3 4 -5 -9 -14 -29 -3 -23 13 3 8 -5 12 -26 12 -25
-1 -32 4 -38 24 -4 15 -7 18 -8 8 -1 -21 -25 -15 -60 16 -13 12 -21 15 -17 8
11 -19 -63 28 -80 52 -11 14 -15 16 -11 4 6 -16 4 -16 -28 0 -19 9 -33 22 -30
29 2 7 -1 15 -7 19 -7 4 -8 3 -4 -4 4 -7 2 -12 -3 -12 -6 0 -11 4 -11 10 0 5
-3 9 -7 8 -5 -1 -18 3 -30 10 -13 7 -23 10 -23 6 0 -3 -7 -1 -15 6 -12 10 -13
16 -4 26 6 8 8 14 3 14 -5 0 -2 5 6 10 9 6 10 10 3 10 -7 0 -17 -9 -23 -20 -6
-11 -16 -20 -23 -20 -7 0 -6 4 3 10 12 8 11 10 -7 10 -13 0 -23 5 -23 11 0 5
5 7 12 3 7 -4 8 -3 4 4 -4 6 -14 8 -23 5 -12 -5 -14 -3 -8 7 5 8 4 11 -2 7
-18 -12 -60 17 -58 39 1 11 -4 21 -11 21 -10 0 -10 -5 -2 -21 7 -13 -6 -5 -33
19 -24 22 -44 45 -43 50 1 6 -7 11 -17 11 -10 0 -15 -5 -12 -11 4 -5 -6 3 -21
18 -14 16 -24 32 -21 37 3 5 0 12 -6 16 -8 4 -9 3 -5 -4 4 -7 3 -12 -3 -12 -5
0 -12 9 -16 19 -3 11 -13 25 -22 33 -12 9 -15 9 -9 1 5 -9 2 -11 -8 -7 -9 3
-15 9 -14 12 2 20 -3 32 -12 27 -6 -3 -10 -1 -10 4 0 6 -3 10 -7 9 -5 0 -16 2
-26 7 -15 6 -15 10 -5 23 10 12 10 14 1 8 -7 -4 -26 3 -42 15 -24 17 -28 26
-21 40 7 12 6 19 -5 22 -10 4 -12 1 -9 -11 4 -10 -2 -7 -14 8 -11 13 -20 29
-19 35 1 5 -7 8 -18 6 -20 -3 -20 -3 -1 18 10 11 24 18 30 14 6 -3 8 -2 3 2
-4 5 -18 10 -30 12 -17 2 -19 1 -7 -7 8 -5 13 -10 10 -11 -3 0 -13 -2 -22 -4
-11 -2 -15 2 -11 11 3 9 0 14 -8 12 -8 -2 -13 3 -12 10 2 6 -1 12 -7 12 -15 0
-50 42 -43 53 3 6 1 7 -5 3 -7 -4 -14 3 -18 19 -3 14 -10 25 -15 25 -5 0 -9 5
-9 11 0 5 4 7 10 4 16 -10 11 1 -7 16 -11 10 -14 10 -9 2 5 -9 1 -13 -10 -13
-10 0 -15 3 -11 6 3 3 -7 18 -22 33 -19 19 -26 33 -20 42 5 10 -4 25 -28 49
-20 19 -33 28 -28 20 5 -9 5 -12 -1 -7 -5 5 -9 12 -9 17 0 4 -16 27 -35 51
-19 24 -35 48 -35 54 -2 23 -42 94 -50 87 -4 -4 -5 1 -2 10 3 9 1 19 -6 21 -9
3 -8 9 3 22 14 17 14 18 -8 6 -12 -6 -22 -8 -21 -4 3 17 -2 32 -14 45 -15 17
-37 55 -37 65 0 5 5 1 10 -7 6 -9 10 -10 10 -3 0 7 -9 17 -21 23 -11 7 -18 14
-15 17 3 3 -4 21 -15 39 -11 19 -18 38 -14 44 3 5 1 10 -5 10 -6 0 -8 5 -5 10
3 6 1 10 -5 10 -7 0 -9 8 -5 20 5 16 3 19 -11 13 -12 -4 -15 -3 -10 5 4 7 -4
37 -19 67 -14 31 -23 59 -21 64 3 5 -1 14 -9 21 -12 10 -13 16 -3 27 6 8 7 13
2 12 -21 -4 -26 2 -13 19 7 9 10 14 5 10 -13 -11 -33 14 -28 38 2 12 -1 25 -7
28 -6 4 -11 17 -11 30 0 12 -3 26 -7 30 -4 3 -7 23 -7 44 -1 20 -6 44 -11 52
-5 8 -10 24 -11 35 -2 42 -17 95 -26 95 -6 0 -8 9 -5 19 2 10 -2 43 -9 72 -8
30 -16 110 -18 179 -3 69 -9 145 -14 170 -13 61 -14 167 -2 175 5 3 10 11 10
16 0 6 -4 7 -10 4 -5 -3 -10 -2 -10 4 0 5 4 11 10 13 6 2 10 49 11 110 0 59 5
110 10 114 5 3 9 32 9 66 0 44 3 59 13 55 8 -3 13 9 14 37 4 77 19 174 29 187
6 8 9 26 8 41 -2 15 1 30 7 33 5 4 9 18 9 33 1 31 23 65 36 54 4 -4 2 1 -5 11
-11 14 -11 21 -3 29 7 7 12 23 12 36 0 13 4 20 10 17 6 -4 7 1 3 11 -4 11 -3
15 4 11 13 -8 12 11 -1 32 -5 8 -5 12 0 9 5 -3 17 3 26 14 20 20 10 25 -12 6
-8 -7 -6 -3 4 9 10 13 24 20 30 16 6 -4 5 0 -2 9 -15 19 -4 49 26 68 15 10 15
11 -2 5 -19 -6 -19 -5 -3 13 9 10 17 25 17 34 0 8 9 27 20 41 11 14 20 31 20
37 0 7 6 10 14 7 14 -6 16 9 3 29 -13 22 56 134 84 134 6 0 6 7 -1 20 -10 18
2 31 13 13 2 -5 2 -2 0 6 -2 7 5 20 14 28 10 8 12 11 4 7 -10 -5 -12 -3 -6 5
4 7 16 11 26 8 11 -3 17 -1 13 4 -3 5 -12 9 -20 9 -10 0 -9 5 6 20 11 11 20
27 20 35 0 8 5 15 11 15 5 0 7 -6 3 -12 -5 -9 -2 -8 10 1 9 8 15 20 12 28 -3
7 3 22 14 33 22 22 27 35 8 24 -7 -4 -8 -3 -4 4 4 7 13 12 21 12 8 0 17 5 21
12 4 7 3 8 -4 4 -7 -4 -12 -3 -12 1 0 12 43 48 54 45 5 -2 4 3 -2 11 -10 11
-9 17 4 28 10 8 20 13 23 13 3 -1 12 1 19 3 10 4 10 9 1 19 -10 12 -8 13 6 8
11 -5 16 -4 12 3 -3 5 13 30 35 54 23 24 36 37 30 28 -9 -12 -9 -16 2 -16 9 0
13 8 10 24 -4 22 28 68 40 56 3 -4 6 1 6 10 0 11 5 14 17 10 10 -3 15 -3 11 2
-11 11 32 67 47 61 9 -3 11 2 7 17 -5 19 -3 20 10 9 13 -10 18 -10 24 -1 4 8
3 9 -4 5 -21 -13 -13 10 12 33 14 13 29 20 34 17 5 -3 16 2 23 11 10 12 10 14
1 9 -6 -4 -12 -4 -12 0 0 10 49 54 61 54 6 0 7 6 3 13 -6 9 -5 9 8 -1 12 -10
18 -9 28 3 7 8 9 15 5 15 -5 0 9 17 31 38 21 20 44 36 50 34 7 -1 16 3 20 9 5
8 3 9 -6 4 -9 -6 -11 -4 -5 4 4 7 18 11 31 8 15 -2 29 2 36 12 12 14 11 14 -4
2 -13 -9 -18 -10 -18 -2 0 7 -5 9 -12 5 -8 -4 -10 -3 -5 2 5 5 12 9 15 9 4 0
13 4 20 8 6 5 12 5 12 1 0 -4 9 1 20 11 11 10 17 23 13 29 -4 7 -2 7 7 -1 9
-8 21 -2 52 28 38 37 67 52 52 27 -4 -7 -3 -8 5 -4 6 4 9 11 6 16 -6 9 34 36
48 32 4 -1 7 2 7 6 0 17 45 30 66 19 17 -9 17 -9 6 5 -10 13 -10 18 -1 24 8 4
9 3 5 -4 -4 -7 -2 -12 3 -12 6 0 11 8 11 17 0 9 3 13 6 10 4 -4 19 2 34 13 16
11 39 21 53 22 19 2 23 7 20 23 -4 16 -3 17 6 5 7 -10 11 -11 11 -2 0 6 5 12
11 12 5 0 7 -6 4 -12 -4 -7 0 -5 8 5 8 9 19 17 25 17 6 0 27 9 47 21 19 12 42
19 50 16 9 -4 12 -1 9 7 -3 8 4 15 20 18 14 3 23 1 20 -4 -4 -5 3 -4 15 4 12
7 21 16 21 19 0 6 33 18 60 23 3 1 10 4 15 6 6 3 24 5 42 5 24 -1 29 2 22 11
-7 8 -6 15 2 20 7 4 9 3 6 -3 -4 -6 0 -14 9 -17 11 -4 15 -2 11 7 -3 9 2 13
16 12 12 -1 33 4 47 12 14 7 31 13 38 13 6 0 12 5 12 11 0 5 4 8 9 4 6 -3 28
-2 51 1 28 5 37 10 28 15 -9 6 -9 9 -1 9 6 0 15 -4 18 -10 3 -5 11 -10 17 -10
6 0 8 3 5 7 -13 12 33 36 47 24 9 -7 18 -6 32 4 13 8 41 13 75 11 34 -1 62 3
77 12 31 20 76 22 427 24 191 1 331 -3 385 -11 47 -6 104 -13 128 -14 23 -1
46 -8 51 -15 5 -9 17 -11 34 -6 17 4 27 2 27 -5 0 -6 5 -11 11 -11 5 0 7 6 3
13 -4 6 3 1 16 -11 14 -15 25 -20 29 -14 4 7 12 7 20 2 8 -4 20 -6 27 -3 6 2
15 0 18 -6 4 -6 13 -8 22 -4 8 3 23 -2 34 -12 10 -9 24 -14 30 -10 6 4 27 -1
46 -10 19 -9 38 -14 43 -11 4 3 16 -3 26 -14 14 -16 20 -17 27 -8 5 9 8 9 8 1
0 -6 25 -19 55 -28 30 -10 52 -22 49 -27 -3 -4 -2 -8 3 -6 19 5 80 -16 127
-45 28 -17 59 -30 69 -29 9 0 17 -4 17 -10 0 -5 7 -7 16 -4 11 4 15 2 11 -7
-3 -8 3 -14 15 -14 12 -1 30 -11 43 -23 12 -11 25 -17 30 -13 4 5 5 -1 1 -11
-5 -15 -4 -17 8 -7 11 9 17 8 30 -4 12 -12 16 -13 16 -3 0 8 4 7 11 -4 5 -10
14 -18 20 -18 5 0 19 -9 31 -20 12 -11 28 -20 35 -20 8 0 12 -4 8 -9 -3 -5 0
-13 6 -17 8 -4 9 -3 5 4 -4 7 -1 12 9 12 9 0 13 -4 10 -10 -3 -5 0 -7 8 -4 8
3 18 0 23 -7 5 -8 3 -10 -6 -4 -8 5 -11 4 -6 -3 4 -6 12 -9 19 -7 7 3 27 -8
45 -24 20 -18 28 -31 20 -33 -7 -3 -2 -7 10 -10 12 -4 20 -2 16 3 -3 5 -1 9 4
9 5 0 14 -11 20 -25 6 -14 18 -26 27 -26 29 -3 33 -4 42 -13 5 -6 2 -6 -7 -1
-10 5 -8 0 4 -13 11 -12 21 -20 24 -18 5 6 31 -17 27 -24 -2 -3 3 -11 11 -18
8 -7 14 -11 14 -8 0 3 11 -1 24 -8 27 -14 76 -68 76 -84 0 -6 5 -14 12 -18 7
-5 8 -2 3 7 -4 8 2 4 14 -9 12 -12 20 -26 16 -31 -3 -5 4 -7 15 -4 11 3 21 0
21 -6 1 -6 2 -17 3 -23 1 -7 9 -12 19 -10 11 2 15 -2 11 -13 -5 -11 -2 -14 10
-9 12 5 15 2 10 -10 -3 -9 -11 -13 -17 -9 -6 4 -7 1 -2 -6 5 -9 10 -10 18 -2
16 16 30 13 23 -5 -4 -12 -2 -15 9 -10 8 3 14 2 12 -2 -1 -4 3 -9 8 -11 29
-11 44 -80 15 -73 -6 1 -8 -2 -5 -9 7 -11 55 26 55 43 0 10 -60 68 -71 68 -5
0 -9 4 -9 9 0 13 -232 241 -245 241 -5 0 -34 25 -63 55 -29 30 -56 54 -60 53
-4 -2 -20 10 -36 25 -16 15 -35 27 -42 27 -7 0 -14 4 -16 8 -5 14 -126 92
-142 92 -9 0 -16 4 -16 9 0 5 -10 13 -22 17 -13 4 -34 15 -47 25 -13 11 -30
19 -38 19 -9 0 -32 14 -53 30 -21 17 -45 30 -53 30 -8 0 -18 7 -21 16 -4 11
-13 14 -30 10 -16 -4 -26 -1 -30 10 -3 8 -11 12 -17 8 -6 -3 -14 -3 -18 2 -11
16 -51 35 -61 29 -5 -3 -11 4 -15 14 -4 12 -12 18 -20 15 -16 -6 -75 16 -75
28 0 5 -13 8 -30 8 -16 0 -30 4 -30 10 0 5 -6 7 -13 4 -8 -3 -20 2 -27 11 -7
8 -21 15 -31 15 -30 0 -109 23 -109 32 0 4 -16 8 -35 8 -19 0 -35 4 -35 9 0 6
-16 7 -35 4 -26 -4 -36 -2 -41 11 -4 12 -19 16 -55 16 -27 0 -49 4 -49 9 0 5
-54 12 -120 16 -78 5 -123 12 -130 21 -13 15 -344 17 -575 3z m-1402 -534 c-3
-9 -8 -14 -10 -11 -3 3 -2 9 2 15 9 16 15 13 8 -4z m-795 -830 c-3 -3 -9 2
-12 12 -6 14 -5 15 5 6 7 -7 10 -15 7 -18z m75 -3319 c-3 -5 -14 2 -24 15 -26
34 -23 41 5 16 13 -12 22 -26 19 -31z"/>
<path d="M3545 5880 c3 -5 8 -10 11 -10 2 0 4 5 4 10 0 6 -5 10 -11 10 -5 0
-7 -4 -4 -10z"/>
<path d="M2369 5853 c-13 -16 -12 -17 4 -4 9 7 17 15 17 17 0 8 -8 3 -21 -13z"/>
<path d="M2443 5855 c0 -8 4 -12 9 -9 5 3 6 10 3 15 -9 13 -12 11 -12 -6z"/>
<path d="M3510 5860 c-8 -5 -10 -10 -5 -10 6 0 17 5 25 10 8 5 11 10 5 10 -5
0 -17 -5 -25 -10z"/>
<path d="M2505 5850 c-3 -6 1 -7 9 -4 18 7 21 14 7 14 -6 0 -13 -4 -16 -10z"/>
<path d="M3580 5856 c0 -2 7 -7 16 -10 8 -3 12 -2 9 4 -6 10 -25 14 -25 6z"/>
<path d="M3845 5800 c-3 -5 -2 -10 4 -10 5 0 13 5 16 10 3 6 2 10 -4 10 -5 0
-13 -4 -16 -10z"/>
<path d="M3916 5772 c-2 -4 4 -8 14 -8 10 0 16 4 14 8 -3 4 -9 8 -14 8 -5 0
-11 -4 -14 -8z"/>
<path d="M1609 5663 c-13 -16 -12 -17 4 -4 9 7 17 15 17 17 0 8 -8 3 -21 -13z"/>
<path d="M2866 5623 c-7 -7 -137 -19 -269 -26 -20 -1 -37 -5 -37 -9 0 -5 -7
-8 -15 -8 -8 0 -15 -4 -15 -10 0 -5 -4 -10 -10 -10 -5 0 -7 8 -3 18 6 16 5 16
-13 1 -10 -9 -25 -14 -31 -12 -7 2 -23 -3 -35 -11 -29 -21 -48 -21 -22 0 10 9
2 6 -19 -5 -21 -12 -45 -21 -53 -21 -8 0 -14 -4 -14 -9 0 -5 -11 -8 -25 -6
-14 1 -25 -1 -25 -6 0 -4 -17 -11 -37 -15 -21 -4 -43 -11 -50 -16 -7 -5 -16
-7 -21 -4 -6 3 -15 -1 -22 -9 -7 -8 -20 -15 -30 -15 -10 0 -20 -7 -24 -15 -3
-8 -13 -15 -23 -14 -16 0 -16 1 2 9 12 5 14 9 6 9 -8 1 -23 -7 -34 -16 -20
-17 -20 -17 -14 2 6 17 4 16 -11 -4 -13 -15 -24 -21 -32 -16 -9 6 -11 4 -5 -5
6 -10 3 -12 -13 -8 -12 4 -22 2 -22 -3 0 -5 -11 -11 -25 -15 -13 -3 -29 -12
-36 -20 -9 -11 -15 -12 -26 -2 -12 10 -18 9 -28 -5 -6 -9 -16 -13 -20 -9 -5 4
-5 1 -1 -5 4 -8 1 -13 -9 -13 -10 0 -13 5 -9 13 4 7 3 9 -2 4 -5 -5 -9 -14 -9
-20 0 -6 -21 -18 -48 -27 -26 -9 -44 -20 -40 -24 4 -4 0 -4 -10 0 -10 3 -17 1
-17 -5 0 -6 -19 -20 -42 -32 -24 -12 -46 -26 -49 -31 -3 -5 -10 -10 -15 -10
-19 -1 -34 -11 -28 -19 3 -5 0 -9 -7 -9 -7 0 -24 -10 -37 -22 l-25 -23 14 25
c7 14 12 29 11 34 -2 5 3 6 11 3 7 -3 14 1 14 8 0 10 -5 11 -19 4 -10 -5 -17
-13 -16 -17 1 -4 -4 -19 -11 -34 -15 -29 -51 -44 -64 -25 -6 9 -7 8 -6 -3 3
-30 -1 -39 -21 -45 -11 -4 -18 -10 -15 -15 6 -10 -13 -16 -51 -15 -18 1 -31
-4 -31 -11 0 -13 15 -13 37 1 13 8 13 7 0 -11 -29 -38 -57 -60 -70 -56 -8 3
-10 0 -5 -8 5 -8 0 -11 -15 -8 -14 2 -25 -3 -27 -12 -3 -11 -2 -11 4 -3 5 7
14 9 21 4 8 -5 2 -15 -20 -31 -18 -14 -37 -23 -43 -22 -5 2 -7 1 -3 -3 4 -4 0
-14 -8 -22 -20 -20 -31 -8 -13 14 13 16 12 17 -3 5 -10 -8 -16 -23 -15 -35 1
-13 -7 -25 -23 -34 -14 -7 -20 -13 -13 -13 7 0 2 -10 -10 -23 -12 -13 -26 -21
-31 -19 -5 3 -6 0 -3 -5 7 -11 -20 -28 -36 -24 -5 1 -6 -3 -3 -8 3 -5 -1 -12
-10 -15 -9 -4 -14 -9 -10 -13 3 -3 -2 -15 -11 -26 -11 -12 -12 -17 -4 -12 10
6 12 4 7 -4 -4 -7 -15 -11 -24 -9 -21 3 -42 -9 -42 -25 0 -7 4 -6 11 3 9 13
10 13 6 0 -2 -8 -11 -14 -20 -14 -10 1 -13 -4 -10 -14 5 -11 3 -13 -8 -7 -8 4
-11 5 -7 0 10 -10 -42 -106 -53 -99 -5 3 -9 15 -9 26 0 37 -10 13 -12 -28 -2
-50 -19 -82 -41 -78 -10 1 -21 -4 -24 -12 -3 -8 -10 -11 -17 -7 -6 4 -5 -1 3
-10 10 -13 11 -20 2 -30 -6 -8 -8 -16 -5 -20 9 -9 -27 -77 -46 -87 -11 -6 -16
-17 -14 -27 3 -12 -7 -26 -28 -42 -25 -18 -28 -22 -11 -18 l21 5 -22 -42 c-13
-22 -21 -47 -18 -55 3 -9 0 -11 -9 -6 -8 5 -11 5 -7 0 4 -4 -1 -19 -12 -33
-11 -13 -17 -28 -15 -32 3 -5 1 -11 -5 -15 -5 -3 -10 -18 -10 -32 0 -21 -4
-24 -23 -20 -20 5 -20 5 -5 -7 15 -11 16 -15 2 -42 -9 -16 -16 -41 -16 -56 -1
-15 -5 -25 -10 -22 -8 5 -12 -11 -9 -30 1 -6 -2 -19 -7 -30 -17 -38 -32 -116
-32 -167 0 -27 -4 -48 -8 -45 -15 9 -13 -64 3 -87 8 -14 13 -31 10 -40 -4 -8
-2 -18 4 -22 7 -4 8 1 4 12 -6 17 -6 17 14 0 16 -14 23 -15 29 -6 5 8 3 10 -6
4 -9 -5 -11 -4 -6 3 9 15 12 15 30 -4 9 -8 16 -11 16 -5 0 6 6 11 13 11 21 0
34 32 36 95 3 74 7 101 20 144 6 19 9 37 6 39 -2 3 3 18 11 34 9 17 11 27 5
24 -6 -4 -11 -2 -11 3 0 6 4 11 9 11 5 0 12 12 15 28 14 56 39 111 48 106 6
-4 7 2 3 15 -4 14 -1 23 9 27 9 3 16 10 16 15 0 5 11 27 24 48 14 21 22 42 19
45 -4 3 -1 6 5 6 7 0 11 3 11 8 -3 19 2 33 11 27 6 -3 10 -2 10 3 0 5 11 21
25 36 13 14 19 26 14 26 -6 0 -7 5 -4 10 4 6 11 8 16 5 8 -6 13 8 10 27 -2 15
90 99 101 92 7 -4 8 -3 4 4 -4 7 -1 12 6 12 11 0 10 2 0 9 -11 7 -10 10 3 15
9 3 22 3 27 -1 7 -3 8 -1 4 5 -4 7 -1 12 9 12 8 0 18 7 21 15 4 8 10 15 16 15
5 0 6 -5 2 -12 -4 -7 -3 -8 5 -4 6 4 9 12 6 17 -4 5 1 9 9 9 9 0 16 6 16 13 0
8 7 14 15 14 19 0 29 -38 21 -74 -5 -21 -4 -24 4 -13 9 13 11 13 20 0 12 -18
13 -33 2 -26 -4 2 -14 -5 -21 -17 -11 -18 -11 -20 0 -9 17 16 26 15 32 -2 4
-10 1 -13 -7 -10 -8 3 -17 0 -22 -7 -4 -7 -3 -10 3 -6 6 4 16 0 22 -7 10 -11
8 -16 -8 -21 -12 -3 -24 -18 -27 -33 -4 -15 -12 -34 -19 -42 -7 -8 -15 -27
-19 -42 -4 -17 -13 -28 -24 -29 -10 0 -12 -3 -4 -6 6 -2 12 -9 12 -15 0 -6 -6
-8 -13 -5 -8 3 -14 -1 -14 -9 0 -8 4 -14 8 -14 4 0 -3 -20 -16 -44 -13 -24
-21 -47 -18 -50 3 -3 -2 -17 -11 -30 -9 -15 -16 -46 -16 -73 0 -37 -3 -45 -11
-33 -9 12 -10 12 -5 -4 4 -10 1 -26 -6 -34 -10 -12 -10 -14 0 -8 15 9 16 -6 1
-21 -8 -8 -8 -13 0 -17 6 -4 11 -18 11 -31 0 -13 5 -27 10 -30 8 -5 7 -11 -1
-21 -8 -9 -8 -14 -1 -14 6 0 9 -13 7 -30 -2 -17 0 -28 6 -25 5 4 10 -3 10 -14
3 -40 18 -73 31 -65 6 4 8 -4 6 -17 -2 -16 5 -30 19 -42 13 -10 23 -27 23 -37
0 -11 10 -29 23 -41 12 -12 15 -19 7 -15 -8 4 -7 1 3 -7 14 -11 15 -16 5 -20
-8 -3 -6 -6 5 -6 10 -1 16 -5 13 -10 -10 -16 40 -52 70 -49 16 1 39 -4 51 -10
12 -7 33 -12 48 -12 14 0 37 -7 51 -16 13 -9 28 -14 31 -10 14 14 -34 45 -75
50 -24 2 -49 9 -56 15 -6 5 -22 7 -35 4 -17 -4 -30 2 -49 23 -15 16 -26 33
-24 37 1 5 -5 16 -15 26 -10 9 -34 48 -53 86 -19 39 -39 73 -44 76 -5 4 -6 14
-3 22 3 8 -1 23 -8 34 -8 10 -15 37 -15 61 0 23 -4 42 -9 42 -4 0 -11 21 -15
47 -4 35 -2 51 9 64 11 11 15 32 14 60 -1 24 3 54 10 67 6 12 9 26 7 31 -3 5
1 12 10 15 8 3 13 10 9 15 -3 5 -1 12 5 16 5 3 10 14 10 24 0 10 7 24 15 31 8
7 13 16 10 20 -6 9 56 133 78 154 9 10 17 27 17 39 0 36 -20 97 -32 97 -6 0
-8 10 -4 25 4 14 3 25 -1 25 -5 0 -14 14 -21 30 -16 34 -28 38 -37 11 -3 -10
-19 -21 -35 -25 -17 -3 -30 -12 -30 -20 0 -8 -10 -18 -22 -22 -13 -4 -38 -22
-56 -40 -19 -19 -38 -34 -43 -34 -5 0 -9 -4 -9 -10 0 -5 -14 -23 -32 -40 -17
-17 -28 -33 -25 -36 3 -3 -5 -16 -18 -29 -14 -12 -22 -25 -18 -28 3 -4 -2 -9
-11 -13 -9 -3 -13 -10 -10 -15 3 -5 -2 -12 -10 -15 -9 -3 -16 -15 -16 -26 0
-10 -4 -17 -9 -14 -5 3 -11 -7 -14 -23 -3 -15 -17 -42 -31 -59 -15 -16 -26
-35 -26 -41 0 -6 -5 -11 -10 -11 -6 0 -10 -6 -9 -12 1 -7 -5 -30 -14 -50 -10
-21 -17 -44 -17 -52 0 -8 -4 -17 -9 -20 -8 -6 -15 -36 -27 -121 -4 -22 -10
-44 -15 -49 -5 -6 -9 -47 -9 -92 0 -97 -9 -112 -65 -106 -28 3 -36 8 -32 21 2
9 -2 23 -10 30 -8 7 -11 20 -8 30 4 9 11 45 15 81 15 116 19 132 54 213 9 21
14 42 11 47 -3 5 -1 11 5 15 5 3 10 17 10 30 0 12 6 25 14 28 8 3 12 14 10 24
-3 10 9 45 25 77 17 32 31 66 31 76 0 10 7 20 15 24 8 3 12 12 9 21 -4 8 -1
15 6 15 7 0 10 7 6 16 -4 11 1 18 14 21 11 3 17 10 14 15 -4 5 3 23 15 39 11
15 21 33 21 39 0 5 5 10 10 10 6 0 9 3 8 8 -2 4 8 25 22 47 13 22 28 48 32 58
4 9 12 17 17 17 6 0 8 6 6 13 -3 7 13 33 35 57 21 25 40 50 40 57 0 6 22 36
50 66 28 30 50 58 50 63 0 4 79 86 175 181 96 96 175 171 175 168 0 -3 18 11
40 31 22 21 53 45 69 55 16 9 32 23 36 29 4 6 17 16 28 21 12 5 36 18 52 29
17 11 41 25 55 32 14 7 39 23 57 36 18 13 37 21 43 17 5 -3 10 -1 10 5 0 7 7
10 15 6 9 -3 15 0 15 9 0 8 7 15 16 15 9 0 27 9 41 20 14 11 34 20 44 20 10 0
34 9 54 20 20 11 44 20 55 20 10 0 22 5 25 10 3 6 15 10 26 10 10 0 19 5 19
11 0 6 6 9 13 6 6 -2 21 0 32 6 11 6 29 12 40 14 11 2 22 8 23 13 2 6 11 10
20 10 20 0 89 23 98 33 4 4 18 7 30 7 13 0 26 5 29 11 4 6 13 8 20 5 7 -2 21
2 32 9 10 8 30 15 46 15 15 0 27 4 27 10 0 6 17 8 39 5 29 -4 42 -1 48 10 7
11 42 16 165 21 118 5 158 10 162 21 8 19 252 19 271 0 9 -10 58 -16 162 -20
114 -5 161 -12 202 -27 30 -12 77 -25 105 -31 28 -5 60 -13 71 -18 11 -5 40
-15 65 -22 25 -7 49 -16 55 -21 5 -4 18 -8 30 -8 12 0 25 -4 30 -9 6 -5 28
-14 50 -21 56 -17 95 -34 95 -41 0 -4 18 -9 40 -12 23 -3 48 -11 56 -18 9 -7
25 -14 35 -16 11 -2 31 -10 44 -19 13 -8 30 -17 37 -18 27 -6 108 -47 108 -56
0 -5 16 -14 35 -20 19 -6 42 -19 51 -27 9 -9 29 -16 45 -16 17 0 25 -3 19 -7
-12 -7 13 -40 30 -40 5 0 15 -6 22 -12 26 -24 59 -39 70 -32 7 5 8 3 4 -5 -10
-16 21 -50 62 -68 18 -7 30 -18 27 -23 -3 -6 -2 -10 4 -10 5 0 76 -67 158
-149 156 -157 183 -186 183 -199 0 -4 18 -26 40 -47 22 -21 40 -43 40 -47 0
-4 7 -16 15 -25 8 -10 15 -21 15 -26 0 -4 12 -19 26 -32 15 -14 24 -25 20 -25
-4 0 2 -12 13 -26 12 -15 21 -32 21 -39 0 -7 7 -15 15 -19 8 -3 15 -14 15 -25
0 -10 7 -21 15 -25 8 -3 15 -12 15 -21 0 -14 18 -53 30 -65 12 -12 50 -93 50
-106 0 -8 5 -14 10 -14 6 0 10 -9 10 -21 0 -11 4 -18 9 -15 5 3 11 -13 14 -36
3 -23 12 -47 20 -53 7 -5 16 -27 20 -49 3 -21 13 -46 22 -56 8 -9 15 -26 15
-38 0 -11 5 -24 11 -28 6 -3 9 -14 6 -24 -3 -11 1 -21 9 -24 8 -3 14 -20 14
-40 0 -19 4 -37 9 -41 6 -3 7 -28 4 -55 -5 -40 -3 -51 11 -56 19 -7 23 -90 5
-96 -6 -2 -13 -15 -14 -28 -1 -14 -3 -28 -4 -32 0 -4 -10 -10 -22 -13 -26 -8
-59 27 -52 55 3 11 1 20 -4 20 -5 0 -9 16 -10 36 -1 19 -6 63 -12 97 -6 34
-13 83 -17 110 -3 30 -10 47 -19 47 -9 0 -13 10 -11 28 1 15 -8 43 -19 62 -12
19 -25 48 -29 65 -4 16 -16 35 -27 43 -10 7 -19 22 -19 33 0 10 -4 19 -9 19
-5 0 -14 15 -22 33 -7 17 -19 35 -25 40 -7 4 -11 13 -8 20 2 7 -4 22 -16 32
-11 10 -20 23 -20 28 0 19 -244 245 -279 258 -11 4 -21 -4 -33 -29 -10 -20
-18 -42 -18 -49 0 -8 -7 -21 -16 -30 -8 -9 -13 -22 -10 -29 3 -7 1 -16 -4 -19
-13 -8 -13 -45 0 -45 6 0 10 -8 10 -18 0 -10 14 -29 30 -44 17 -14 30 -35 30
-47 0 -11 4 -22 9 -25 5 -3 12 -21 15 -40 4 -19 13 -39 21 -46 8 -7 17 -28 21
-49 4 -20 12 -39 18 -43 6 -4 12 -15 13 -25 2 -10 7 -43 12 -73 11 -67 -4
-257 -22 -275 -7 -7 -19 -31 -26 -53 -8 -23 -18 -39 -22 -36 -5 3 -9 -2 -9
-11 0 -25 -49 -115 -66 -122 -8 -3 -13 -11 -10 -18 9 -24 -40 -56 -109 -70
-37 -8 -72 -12 -76 -9 -13 7 -58 -28 -59 -46 -1 -19 -24 -50 -38 -50 -6 0 -14
-9 -17 -20 -3 -11 -12 -20 -20 -20 -8 0 -17 -9 -20 -20 -3 -11 -14 -20 -23
-20 -9 0 -35 -18 -56 -40 -21 -22 -43 -37 -47 -34 -5 2 -14 -4 -21 -16 -7 -11
-20 -20 -28 -20 -8 0 -21 -9 -28 -20 -7 -11 -21 -20 -32 -20 -12 0 -23 -6 -26
-14 -3 -8 -11 -13 -19 -10 -7 3 -15 -2 -19 -11 -3 -9 -10 -14 -16 -10 -11 6
-51 -14 -63 -32 -4 -7 -14 -10 -22 -7 -8 4 -15 1 -15 -5 0 -6 -9 -11 -19 -11
-11 0 -23 -4 -26 -10 -3 -5 -17 -10 -30 -10 -13 0 -27 -4 -30 -10 -3 -5 -15
-10 -26 -10 -10 0 -19 -4 -19 -10 0 -5 -9 -10 -19 -10 -11 0 -22 -4 -26 -10
-3 -5 -11 -7 -18 -4 -8 3 -27 -2 -43 -11 -16 -8 -39 -15 -51 -15 -13 0 -23 -5
-23 -11 0 -6 -8 -9 -18 -7 -10 3 -27 -1 -37 -8 -10 -8 -31 -14 -46 -14 -15 0
-31 -4 -34 -10 -3 -5 -21 -10 -40 -10 -19 0 -37 -4 -40 -10 -3 -5 -26 -8 -51
-6 -34 3 -47 -1 -51 -12 -5 -12 -20 -13 -85 -8 -59 5 -80 3 -83 -6 -4 -10 -32
-12 -111 -10 -84 3 -109 0 -123 -12 -15 -13 -26 -13 -96 -1 -44 8 -105 15
-135 15 -30 0 -116 7 -190 16 -184 21 -178 20 -192 31 -7 6 -35 13 -61 17 -27
3 -64 13 -83 22 -18 9 -40 14 -49 11 -8 -4 -17 -2 -20 3 -4 6 -17 10 -31 10
-14 0 -24 6 -24 15 0 11 -8 13 -30 9 -20 -5 -30 -3 -30 6 0 7 -8 10 -20 7 -10
-3 -24 1 -31 9 -6 8 -22 14 -35 14 -12 0 -26 5 -29 10 -3 6 -17 10 -31 10 -13
0 -24 3 -24 8 0 8 -49 32 -67 32 -7 0 -13 4 -13 9 0 9 -33 23 -59 25 -8 1 -16
7 -19 14 -2 6 -11 12 -21 12 -9 0 -23 9 -31 20 -8 11 -29 23 -47 26 -18 3 -33
12 -33 19 0 7 -11 16 -24 19 -14 3 -44 25 -69 48 -24 24 -57 54 -73 68 -16 14
-41 41 -55 60 -23 30 -28 33 -43 21 -10 -9 -16 -10 -16 -2 0 6 -5 11 -11 11
-8 0 -8 -5 1 -15 7 -8 16 -12 22 -9 9 6 55 -46 50 -58 -1 -5 3 -8 9 -8 5 0 7
-4 4 -10 -3 -5 0 -8 7 -5 16 6 100 -70 90 -81 -4 -4 -2 -4 4 -1 7 4 18 0 25
-9 7 -9 24 -20 37 -25 13 -5 20 -13 17 -19 -4 -6 1 -7 11 -3 13 5 16 2 12 -9
-5 -11 0 -14 19 -10 19 4 24 2 18 -8 -5 -8 -3 -11 5 -8 7 2 26 -9 42 -24 17
-15 34 -25 39 -22 5 3 9 -3 9 -12 0 -14 3 -15 12 -6 8 8 19 6 42 -11 17 -12
36 -21 43 -19 6 1 19 -8 27 -20 9 -12 16 -17 16 -10 0 7 5 10 11 7 6 -4 8 -14
4 -24 -5 -12 -3 -13 6 -4 9 9 20 9 48 -2 46 -18 124 -39 134 -37 4 1 7 -3 7
-9 0 -6 7 -9 15 -6 15 6 31 -8 18 -16 -5 -2 -3 -2 4 -1 7 2 14 0 17 -4 2 -4
25 -7 50 -7 25 1 46 -3 46 -7 0 -4 9 -8 20 -8 11 0 20 -4 20 -9 0 -5 6 -9 13
-8 6 0 23 -1 37 -2 23 -2 24 -3 5 -11 -14 -6 -15 -9 -5 -9 9 -1 21 4 28 11 9
9 16 8 29 -4 10 -8 24 -13 32 -10 8 3 11 0 7 -6 -4 -7 7 -9 34 -7 22 3 40 1
40 -4 0 -4 32 -9 72 -10 39 -1 76 -5 81 -8 5 -3 66 -7 135 -10 70 -3 129 -9
132 -13 3 -4 20 -10 38 -13 25 -5 31 -4 26 6 -5 7 -1 7 10 -2 15 -12 17 -12
14 0 -2 8 3 13 10 11 8 -1 11 1 8 6 -2 4 4 8 15 8 10 0 19 -7 20 -16 0 -10 2
-11 6 -2 3 8 31 12 88 12 53 0 88 5 97 13 8 8 39 12 85 10 52 -1 75 2 84 13
10 12 14 12 26 -3 8 -10 12 -12 8 -5 -4 8 4 12 29 12 19 0 38 5 42 11 3 6 19
9 35 7 16 -3 25 0 22 5 -4 6 3 8 15 5 12 -4 20 -2 16 3 -3 5 7 9 21 9 15 0 34
4 44 9 15 8 51 17 84 20 5 1 6 5 3 10 -3 4 6 7 19 5 14 -1 25 2 25 7 0 4 7 5
17 2 9 -4 14 -2 10 3 -3 6 2 10 11 11 43 4 76 13 84 25 4 7 8 9 8 4 0 -5 6 -3
13 3 8 6 17 8 20 4 4 -3 7 -1 7 5 0 6 7 9 15 6 8 -4 17 1 21 10 3 9 10 16 15
16 6 0 5 -10 -2 -22 -7 -16 -3 -14 14 7 14 17 29 30 34 30 21 2 53 17 53 27 0
6 11 8 25 6 18 -4 32 2 51 20 30 31 55 38 48 14 -4 -11 -1 -10 8 3 20 32 52
65 61 65 4 0 5 -6 1 -12 -8 -15 22 10 83 71 23 22 46 41 50 41 5 0 22 13 39
28 18 16 39 27 48 26 9 -1 14 2 10 7 -3 5 -10 7 -15 4 -5 -4 -9 -2 -9 3 0 5
11 15 25 22 14 7 25 19 25 27 0 7 5 13 11 13 5 0 8 4 5 9 -9 14 22 34 44 28
11 -3 20 -2 20 3 0 8 68 22 114 22 20 0 25 3 15 9 -13 8 -5 13 14 10 5 -1 6 3
2 9 -3 5 1 10 10 10 9 0 13 5 10 10 -3 6 -1 10 5 10 7 0 10 7 7 15 -4 8 -1 17
5 21 7 5 8 2 3 -7 -8 -12 -6 -12 8 0 9 7 15 17 12 21 -3 4 2 11 11 14 8 3 14
14 12 23 -2 10 2 17 9 16 6 -1 10 5 8 15 -1 9 6 29 17 44 11 16 16 33 12 39
-4 7 -3 9 3 6 6 -4 13 3 16 14 4 14 10 18 19 13 11 -6 11 -5 0 8 -10 13 -10
18 -1 24 8 5 9 3 4 -6 -5 -9 -4 -11 3 -6 9 5 9 13 2 27 -6 10 -7 19 -2 19 10
0 17 70 16 175 -1 112 -7 164 -18 158 -5 -4 -7 1 -3 10 4 10 2 16 -6 14 -7 -1
-12 12 -13 33 -3 51 -3 52 -13 45 -12 -7 -31 26 -37 63 -3 15 -11 30 -17 34
-9 6 -8 11 3 18 13 8 12 10 -2 10 -10 0 -18 5 -18 10 0 6 -11 21 -24 33 -27
25 -47 75 -25 61 10 -6 10 -3 -1 11 -12 14 -12 19 -2 23 10 3 10 7 0 20 -8 9
-8 13 -2 9 12 -7 29 36 25 62 -1 7 2 10 8 6 7 -4 11 3 11 17 0 16 3 19 9 10 4
-8 11 -13 15 -13 16 1 36 -13 41 -29 3 -11 14 -21 23 -24 9 -3 28 -16 42 -28
14 -13 19 -18 10 -13 -13 8 -13 8 -3 -6 7 -9 11 -19 8 -23 -3 -3 0 -2 7 3 14
12 68 -36 61 -55 -2 -6 0 -15 6 -19 7 -4 8 1 4 12 -5 15 -2 14 16 -4 11 -12
20 -28 19 -34 -2 -7 8 -18 22 -26 l25 -13 -25 -1 -25 -1 25 -7 c14 -4 24 -13
22 -19 -1 -7 3 -12 9 -12 8 0 7 -5 -1 -15 -11 -13 -10 -14 2 -10 9 4 21 -8 36
-36 12 -22 22 -45 22 -50 0 -6 10 -20 23 -32 15 -14 23 -33 23 -51 -1 -18 5
-31 14 -33 13 -4 13 -3 0 7 -12 9 -12 11 -1 8 8 -2 16 -13 17 -24 4 -32 9 -48
18 -63 7 -10 5 -12 -5 -7 -8 4 -3 -2 10 -13 13 -12 18 -21 11 -21 -9 0 -9 -4
1 -17 12 -15 12 -16 -6 -9 -11 4 -16 4 -12 0 4 -4 3 -12 -3 -18 -5 -7 -5 -17
-1 -24 6 -10 11 -9 21 3 11 13 10 14 -5 9 -13 -5 -16 -4 -11 4 4 7 14 12 21
12 11 0 14 -11 10 -45 -2 -25 0 -43 5 -40 5 3 11 -21 15 -52 3 -32 9 -74 12
-93 4 -19 7 -41 6 -47 0 -7 4 -13 9 -13 6 0 8 -10 5 -21 -4 -16 -3 -19 5 -11
9 9 16 8 29 -4 11 -10 23 -13 31 -8 7 5 17 9 23 9 5 0 10 7 11 15 1 36 17 70
28 61 8 -6 12 0 13 20 1 19 -2 27 -8 23 -8 -4 -8 -1 0 13 7 14 7 24 -2 33 -10
10 -9 11 3 6 9 -5 9 -2 -2 7 -10 8 -14 18 -10 22 4 5 0 5 -8 0 -12 -6 -13 -5
-3 5 9 9 9 19 2 33 -7 11 -7 17 -1 13 11 -7 11 49 -1 61 -5 4 -5 -1 -2 -12 5
-14 4 -16 -2 -7 -6 7 -9 32 -8 56 1 32 -3 42 -12 39 -9 -3 -13 4 -13 20 0 14
-5 29 -10 32 -6 4 -8 10 -5 15 3 5 -6 27 -20 50 -14 22 -22 40 -17 40 4 0 8
10 9 21 1 12 -1 19 -4 15 -6 -6 -36 30 -40 49 -1 5 -5 21 -8 35 -4 14 -7 33
-7 42 1 10 -4 21 -10 24 -7 5 -8 2 -3 -6 5 -8 4 -11 -1 -7 -6 3 -25 41 -44 84
-19 43 -41 83 -49 89 -8 6 -11 16 -7 22 4 7 3 12 -2 12 -13 0 -50 73 -47 93 2
9 0 15 -5 12 -13 -8 -40 24 -34 40 6 14 -7 20 -31 15 -5 -1 -7 2 -3 6 4 4 2
14 -5 22 -10 13 -9 14 3 7 8 -4 4 3 -10 17 -46 47 -70 80 -65 89 4 5 -1 6 -9
3 -11 -4 -14 0 -11 15 2 11 -1 24 -7 27 -7 5 -8 2 -3 -6 5 -9 4 -11 -3 -6 -7
4 -12 13 -12 21 0 7 -9 16 -19 20 -12 3 -18 12 -15 20 6 15 -29 38 -41 27 -5
-4 -5 -2 -2 5 4 6 -5 21 -19 32 -15 12 -23 21 -18 21 5 0 4 4 -2 8 -6 4 -16
16 -23 27 -9 15 -11 16 -7 3 3 -10 1 -18 -4 -18 -6 0 -10 7 -10 15 0 8 -4 15
-10 15 -5 0 -10 6 -10 13 0 12 -51 59 -87 80 -7 5 -11 12 -8 18 4 5 2 9 -3 9
-13 0 -81 68 -76 75 2 3 1 3 -3 0 -3 -3 -15 2 -25 12 -10 9 -18 13 -18 8 0 -4
-13 8 -30 26 -16 19 -28 39 -26 46 3 7 -5 10 -20 8 -13 -1 -24 2 -24 8 0 6 -3
7 -7 4 -3 -4 -17 5 -30 19 -12 14 -23 21 -23 17 0 -4 -5 0 -11 10 -5 9 -17 17
-25 17 -9 0 -12 5 -8 12 5 7 3 8 -5 4 -7 -5 -20 -1 -29 7 -9 7 -25 17 -35 20
-11 4 -15 12 -11 18 4 8 3 9 -5 5 -6 -4 -9 -13 -5 -19 3 -7 -1 -4 -8 5 -8 9
-26 20 -41 23 -15 4 -24 12 -20 18 3 5 1 7 -4 4 -6 -4 -14 0 -17 9 -3 8 -10
13 -15 9 -5 -3 -12 -1 -16 5 -4 6 -11 8 -16 5 -5 -4 -9 -1 -9 6 0 7 -3 9 -6 6
-4 -4 -19 2 -34 13 -16 11 -35 17 -44 14 -9 -3 -16 -1 -16 5 0 5 -19 15 -42
21 -39 11 -68 30 -68 45 0 4 8 4 18 0 14 -5 15 -4 5 6 -21 21 -40 -5 -22 -28
7 -10 0 -6 -17 9 -23 22 -33 25 -42 16 -9 -9 -12 -9 -12 0 0 7 -3 11 -7 10
-15 -3 -63 14 -63 23 0 5 -3 8 -7 7 -23 -5 -125 31 -118 42 2 4 -8 6 -23 4
-14 -1 -33 2 -40 9 -15 12 -29 15 -74 20 -14 1 -24 5 -21 10 2 4 -1 7 -6 7 -6
0 -11 -6 -11 -12 0 -7 -7 -2 -16 10 -9 13 -23 22 -32 21 -10 -1 -30 1 -45 6
-16 4 -49 9 -75 11 -26 2 -86 7 -135 11 -56 5 -89 4 -91 -2 -3 -5 -5 -5 -5 2
-1 7 -8 10 -16 7 -8 -4 -15 -1 -15 5 0 13 -272 16 -284 4z m689 -63 c3 -6 -1
-7 -9 -4 -18 7 -21 14 -7 14 6 0 13 -4 16 -10z m-2787 -1191 c-20 -13 -28 -11
-22 5 3 8 12 12 21 9 12 -5 12 -7 1 -14z m-18 -39 c0 -5 -5 -10 -11 -10 -5 0
-7 5 -4 10 3 6 8 10 11 10 2 0 4 -4 4 -10z m-55 -110 c-3 -5 -12 -10 -18 -10
-7 0 -6 4 3 10 19 12 23 12 15 0z m480 -990 c10 -11 16 -20 13 -20 -3 0 -13 9
-23 20 -10 11 -16 20 -13 20 3 0 13 -9 23 -20z m3075 -394 c0 -2 -8 -10 -17
-17 -16 -13 -17 -12 -4 4 13 16 21 21 21 13z"/>
<path d="M1735 5610 c-3 -6 1 -7 9 -4 18 7 21 14 7 14 -6 0 -13 -4 -16 -10z"/>
<path d="M3782 5511 c-11 -7 -11 -9 0 -14 9 -3 15 1 15 9 0 8 -1 14 -1 14 -1
0 -7 -4 -14 -9z"/>
<path d="M3834 5512 c4 -7 1 -12 -6 -13 -7 0 -3 -5 10 -11 16 -8 26 -8 34 0 8
8 5 9 -12 5 -15 -4 -21 -2 -16 5 3 6 1 14 -5 18 -8 4 -9 3 -5 -4z"/>
<path d="M4066 5427 c3 -10 9 -15 12 -12 3 3 0 11 -7 18 -10 9 -11 8 -5 -6z"/>
<path d="M1766 5348 c3 -4 11 -5 19 -1 21 7 19 12 -4 10 -11 0 -18 -5 -15 -9z"/>
<path d="M4291 5323 c7 -12 15 -20 18 -17 3 2 -3 12 -13 22 -17 16 -18 16 -5
-5z"/>
<path d="M1226 5302 c-2 -4 4 -8 14 -8 10 0 16 4 14 8 -3 4 -9 8 -14 8 -5 0
-11 -4 -14 -8z"/>
<path d="M1175 5290 c-3 -5 -1 -10 4 -10 6 0 11 5 11 10 0 6 -2 10 -4 10 -3 0
-8 -4 -11 -10z"/>
<path d="M2892 5244 c-12 -8 -26 -12 -32 -9 -16 10 -88 -41 -104 -75 -4 -8
-13 -26 -21 -40 -24 -41 -12 -180 15 -180 6 0 10 -7 10 -16 0 -22 20 -39 55
-48 17 -4 38 -15 47 -23 10 -8 24 -13 32 -10 9 4 18 2 21 -3 8 -12 202 -13
209 -1 3 5 18 9 33 9 15 0 34 9 44 21 9 11 21 21 26 21 11 0 53 43 53 54 0 4
7 15 16 24 13 13 15 30 12 90 -5 70 -7 77 -39 104 -19 17 -33 33 -31 36 2 4
-11 11 -30 16 -18 6 -35 13 -38 16 -25 34 -235 44 -278 14z m48 -34 c5 0 7 6
4 14 -4 11 13 14 83 15 88 1 121 -7 109 -27 -4 -7 1 -10 11 -8 27 5 63 -11 63
-29 0 -8 4 -15 10 -15 5 0 7 8 3 18 -3 9 4 5 16 -10 12 -15 19 -33 15 -39 -4
-7 -3 -9 4 -5 17 10 24 -12 24 -75 0 -43 -5 -65 -17 -79 -10 -11 -15 -20 -10
-20 4 0 2 -7 -5 -15 -7 -9 -20 -13 -29 -10 -8 3 -12 3 -8 -1 11 -11 -41 -54
-58 -48 -8 4 -15 2 -15 -3 0 -5 -6 -10 -12 -11 -137 -19 -228 -16 -214 7 3 4
-8 7 -24 6 -17 -1 -30 1 -30 5 0 4 -18 13 -40 20 -32 11 -38 16 -28 27 9 11 8
13 -2 11 -8 -2 -19 11 -25 30 -6 18 -14 30 -16 27 -3 -3 -6 2 -6 10 0 8 4 15
9 15 4 0 8 5 8 11 0 5 -4 7 -10 4 -6 -4 -10 7 -10 25 0 17 6 33 14 36 8 3 12
12 9 20 -3 8 0 14 7 14 6 0 8 5 5 10 -3 6 -1 10 6 10 7 0 9 3 6 6 -7 8 44 50
55 47 5 -2 8 2 8 8 0 6 5 7 13 2 19 -12 36 -12 44 -1 3 7 1 8 -5 4 -7 -4 -12
-3 -12 3 0 15 35 18 38 4 2 -7 7 -13 12 -13z"/>
<path d="M1615 5240 c-3 -6 1 -7 9 -4 18 7 21 14 7 14 -6 0 -13 -4 -16 -10z"/>
<path d="M4887 5219 c13 -12 31 -15 30 -4 -1 5 -10 10 -20 10 -10 1 -14 -2
-10 -6z"/>
<path d="M1665 5159 c-4 -6 -5 -12 -2 -15 2 -3 7 2 10 11 7 17 1 20 -8 4z"/>
<path d="M1366 5108 c3 -5 10 -6 15 -3 13 9 11 12 -6 12 -8 0 -12 -4 -9 -9z"/>
<path d="M1366 5078 c3 -5 10 -6 15 -3 13 9 11 12 -6 12 -8 0 -12 -4 -9 -9z"/>
<path d="M5255 4910 c-6 -9 1 -14 17 -11 4 0 5 -5 2 -12 -3 -8 9 -24 26 -37
16 -13 30 -28 30 -35 0 -7 15 -28 34 -48 18 -20 31 -38 28 -41 -3 -4 1 -6 9
-6 10 -1 9 -3 -3 -11 -10 -5 -18 -15 -18 -21 0 -7 6 -6 15 2 9 7 19 10 22 6 4
-4 1 -12 -7 -17 -11 -8 -8 -9 10 -3 14 3 22 3 18 -1 -4 -4 0 -14 8 -22 8 -8
12 -18 9 -23 -3 -5 -1 -11 5 -15 5 -3 10 -11 10 -17 0 -7 -6 -6 -15 2 -8 7
-15 10 -15 6 0 -3 18 -18 40 -32 38 -26 56 -53 52 -84 -1 -11 0 -11 4 -2 5 10
10 8 21 -7 8 -12 12 -25 8 -31 -3 -5 3 -14 13 -19 11 -6 22 -24 26 -41 3 -18
10 -29 16 -25 5 3 10 1 10 -4 0 -6 -5 -11 -12 -11 -6 0 -3 -7 8 -16 10 -8 12
-12 4 -8 -8 4 -5 -3 8 -15 12 -12 22 -28 22 -36 0 -8 7 -18 17 -23 10 -6 14
-16 10 -26 -4 -9 -3 -15 1 -12 4 2 12 -7 19 -20 6 -13 7 -22 2 -18 -16 9 -10
-5 11 -26 11 -11 17 -26 14 -35 -6 -14 -8 -14 -23 -1 -15 14 -17 13 -18 -4 -1
-11 2 -22 8 -25 5 -4 6 2 2 11 -5 13 -3 15 8 8 8 -5 17 -9 22 -9 22 0 57 -87
60 -151 1 -12 6 -20 12 -18 5 2 11 -6 12 -18 0 -13 7 -36 14 -53 7 -16 11 -36
10 -44 -1 -7 2 -10 8 -7 6 4 7 -4 1 -24 -5 -17 -5 -28 0 -25 4 3 11 -2 14 -11
3 -8 2 -12 -3 -9 -5 3 -13 1 -16 -5 -4 -6 -3 -10 2 -9 30 5 47 -21 23 -36 -6
-4 -9 -1 -8 6 2 6 -4 14 -12 16 -12 4 -12 3 -2 -5 8 -5 14 -13 15 -18 1 -5 5
-8 10 -7 4 2 7 -4 7 -12 0 -8 5 -15 11 -15 8 0 8 -4 2 -12 -13 -17 -9 -45 11
-67 10 -11 13 -28 10 -49 -3 -18 -1 -39 4 -45 14 -17 21 -137 8 -131 -6 3 -4
0 4 -8 20 -17 22 -30 22 -108 0 -36 4 -71 10 -77 6 -7 7 -13 2 -13 -10 0 -3
-260 8 -276 4 -6 0 -23 -8 -38 -9 -18 -14 -58 -14 -112 0 -63 -4 -86 -14 -90
-15 -6 -17 -79 -2 -103 7 -10 6 -12 -4 -6 -10 6 -12 4 -7 -7 3 -9 2 -19 -3
-24 -5 -5 -10 -28 -11 -50 -2 -25 -7 -40 -14 -38 -6 3 -10 -13 -9 -43 1 -33
-3 -51 -15 -61 -9 -7 -10 -11 -3 -7 17 9 15 -5 -4 -26 -12 -13 -12 -19 -3 -25
8 -5 10 -3 4 6 -6 9 -4 11 4 5 9 -5 7 -12 -8 -26 -13 -12 -18 -27 -15 -44 2
-14 0 -25 -6 -25 -5 0 -10 -11 -10 -24 0 -34 -10 -57 -22 -50 -6 4 -5 -4 2
-16 9 -17 9 -21 0 -15 -7 4 -11 1 -9 -6 1 -8 1 -22 0 -33 -1 -16 -3 -17 -18
-5 -16 13 -17 12 -5 -3 12 -15 11 -23 -6 -55 -11 -21 -25 -53 -32 -70 -7 -18
-16 -30 -21 -27 -5 3 -6 -2 -3 -10 7 -18 -7 -21 -22 -6 -7 7 -11 6 -11 -4 0
-8 4 -13 8 -10 19 11 16 -17 -6 -72 -13 -32 -31 -61 -40 -62 -12 -3 -13 -7 -5
-17 8 -9 7 -17 -3 -26 -7 -8 -15 -18 -16 -24 -2 -5 -7 -9 -13 -7 -5 1 -7 -2
-4 -7 4 -5 2 -12 -4 -16 -6 -4 -8 -10 -5 -15 3 -5 1 -11 -5 -15 -5 -3 -17 -21
-26 -40 -9 -19 -20 -35 -25 -35 -5 0 -9 -4 -9 -8 0 -5 8 -9 18 -9 19 0 43 27
35 39 -2 5 3 11 11 14 9 3 14 10 11 14 -3 4 2 13 10 20 8 7 12 16 9 21 -3 5 6
21 20 35 13 15 22 32 20 38 -3 7 5 21 16 33 11 12 20 31 20 41 0 11 7 25 15
32 8 7 13 16 10 20 -3 5 -1 11 5 15 5 3 10 15 10 26 0 10 5 19 12 19 6 0 8 3
5 6 -3 4 0 16 8 28 8 11 15 31 15 43 0 13 5 23 10 23 6 0 9 3 8 8 -1 8 17 59
32 84 6 10 10 27 10 37 0 11 5 23 10 26 6 3 8 17 6 30 -3 14 0 27 5 30 5 4 9
19 9 34 0 16 6 34 14 40 7 6 11 22 9 35 -3 13 0 27 6 30 6 4 11 26 11 50 0 23
6 48 12 54 7 7 11 28 10 46 -2 20 3 39 11 47 11 10 13 30 9 75 -3 40 -1 64 7
68 7 5 11 41 11 95 0 48 4 91 9 97 12 11 19 334 9 334 -5 0 -8 45 -8 100 0 87
-2 99 -16 93 -14 -5 -16 2 -13 53 2 33 -2 68 -9 81 -7 12 -9 35 -6 52 4 21 1
39 -11 57 -11 16 -14 35 -10 51 4 17 0 32 -11 44 -10 12 -14 27 -10 43 4 16 1
26 -9 30 -9 3 -15 19 -15 40 0 19 -5 38 -10 41 -6 4 -8 15 -5 26 4 11 0 25 -9
34 -8 9 -13 21 -10 29 3 7 -2 18 -10 25 -8 7 -13 18 -10 26 3 7 1 16 -5 20 -6
3 -11 17 -11 30 0 13 -4 27 -10 30 -5 3 -10 14 -10 25 0 10 -7 20 -15 24 -8 3
-15 9 -14 13 3 17 -14 73 -22 73 -5 0 -9 9 -9 19 0 11 -5 23 -11 26 -6 4 -8
13 -5 21 3 8 -1 14 -9 14 -8 0 -15 7 -15 16 0 9 -9 29 -21 45 -11 16 -18 33
-15 38 3 5 -1 14 -9 21 -8 7 -12 16 -9 21 3 5 -2 12 -10 15 -9 3 -16 12 -16
19 0 8 -6 20 -13 27 -7 7 -16 21 -20 31 -4 10 -11 16 -16 13 -4 -3 -7 5 -6 18
2 13 -5 29 -16 37 -10 7 -19 21 -19 30 0 9 -11 24 -25 33 -14 9 -23 21 -20 26
3 5 -3 17 -15 27 -11 10 -20 23 -20 30 0 7 -12 25 -27 41 -16 16 -35 40 -43
52 -8 13 -28 36 -45 52 -16 15 -26 28 -21 28 5 0 3 7 -4 15 -14 17 -26 19 -35
5z m238 -320 c7 -29 1 -24 -17 11 -12 23 -12 28 -2 20 8 -7 16 -21 19 -31z"/>
<path d="M4910 4866 c0 -2 8 -10 18 -17 15 -13 16 -12 3 4 -13 16 -21 21 -21
13z"/>
<path d="M2820 4825 c0 -2 6 -8 13 -14 10 -8 14 -7 14 2 0 8 -6 14 -14 14 -7
0 -13 -1 -13 -2z"/>
<path d="M5285 4821 c-3 -5 -2 -12 3 -15 5 -3 9 1 9 9 0 17 -3 19 -12 6z"/>
<path d="M1050 4769 c0 -5 5 -7 10 -4 6 3 10 8 10 11 0 2 -4 4 -10 4 -5 0 -10
-5 -10 -11z"/>
<path d="M657 4763 c-12 -18 21 -23 35 -5 11 15 11 16 -4 4 -13 -10 -17 -10
-20 0 -3 8 -6 9 -11 1z"/>
<path d="M5556 4412 c-2 -4 4 -8 14 -8 10 0 16 4 14 8 -3 4 -9 8 -14 8 -5 0
-11 -4 -14 -8z"/>
<path d="M865 4359 c-4 -6 -5 -12 -2 -15 2 -3 7 2 10 11 7 17 1 20 -8 4z"/>
<path d="M1099 4343 c-13 -16 -12 -17 4 -4 9 7 17 15 17 17 0 8 -8 3 -21 -13z"/>
<path d="M5397 4153 c-11 -11 -8 -21 9 -27 13 -5 14 -4 6 7 -7 8 -9 17 -5 20
3 4 4 7 1 7 -2 0 -8 -3 -11 -7z"/>
<path d="M5820 4151 c0 -6 4 -13 10 -16 6 -3 7 1 4 9 -7 18 -14 21 -14 7z"/>
<path d="M862 4115 c-9 -18 -8 -26 1 -31 7 -4 9 -4 5 1 -4 4 -3 16 3 27 6 11
9 22 6 24 -2 2 -9 -7 -15 -21z"/>
<path d="M599 4103 c-13 -16 -12 -17 4 -4 9 7 17 15 17 17 0 8 -8 3 -21 -13z"/>
<path d="M566 4063 c-6 -14 -5 -15 5 -6 7 7 10 15 7 18 -3 3 -9 -2 -12 -12z"/>
<path d="M5760 4031 c0 -6 4 -13 10 -16 6 -3 7 1 4 9 -7 18 -14 21 -14 7z"/>
<path d="M5216 4021 c-4 -5 -1 -13 5 -17 8 -4 9 -3 5 4 -4 7 -3 12 3 12 5 0
12 -5 14 -10 3 -6 4 -5 3 2 -3 16 -23 22 -30 9z"/>
<path d="M5505 3959 c-4 -6 -5 -12 -2 -15 2 -3 7 2 10 11 7 17 1 20 -8 4z"/>
<path d="M960 3915 c0 0 9 -8 19 -17 18 -16 20 -15 18 1 0 9 -9 17 -19 17 -10
0 -18 -1 -18 -1z"/>
<path d="M221 3894 c0 -11 3 -14 6 -6 3 7 2 16 -1 19 -3 4 -6 -2 -5 -13z"/>
<path d="M490 3860 c-9 -6 -10 -10 -3 -10 6 0 15 5 18 10 8 12 4 12 -15 0z"/>
<path d="M221 3824 c0 -11 3 -14 6 -6 3 7 2 16 -1 19 -3 4 -6 -2 -5 -13z"/>
<path d="M622 3534 c-7 -8 -8 -14 -3 -14 10 0 25 19 20 25 -2 1 -10 -3 -17
-11z"/>
<path d="M5019 3467 c6 -8 7 -18 3 -22 -4 -5 -1 -5 6 -1 10 6 10 11 1 22 -6 8
-14 14 -16 14 -3 0 0 -6 6 -13z"/>
<path d="M1045 3369 c-4 -6 -5 -12 -2 -15 2 -3 7 2 10 11 7 17 1 20 -8 4z"/>
<path d="M1066 3355 c-3 -8 -1 -15 4 -15 6 0 10 7 10 15 0 8 -2 15 -4 15 -2 0
-6 -7 -10 -15z"/>
<path d="M1186 3337 c3 -10 9 -15 12 -12 3 3 0 11 -7 18 -10 9 -11 8 -5 -6z"/>
<path d="M1133 3215 c0 -8 4 -12 9 -9 5 3 6 10 3 15 -9 13 -12 11 -12 -6z"/>
<path d="M5925 3171 c-6 -11 13 -26 22 -17 4 3 1 6 -6 6 -7 0 -9 5 -6 10 3 6
4 10 1 10 -3 0 -7 -4 -11 -9z"/>
<path d="M61 3014 c0 -11 3 -14 6 -6 3 7 2 16 -1 19 -3 4 -6 -2 -5 -13z"/>
<path d="M5943 2830 c-11 -16 -10 -18 2 -14 8 4 15 12 15 20 0 19 -3 18 -17
-6z"/>
<path d="M676 2798 c5 -8 2 -9 -11 -4 -19 7 -49 -24 -51 -54 -1 -8 -2 -21 -3
-28 -1 -8 -6 -10 -13 -6 -10 6 -10 4 0 -8 10 -13 10 -19 -4 -33 -14 -13 -19
-14 -26 -3 -8 10 -9 10 -5 -2 2 -8 9 -14 15 -13 6 1 12 -22 14 -52 2 -40 0
-54 -9 -51 -7 3 -10 -3 -8 -15 2 -10 0 -19 -4 -19 -14 0 -3 -71 13 -89 11 -12
12 -21 4 -35 -7 -13 -7 -20 2 -26 9 -6 9 -9 -1 -12 -12 -4 -12 -7 0 -21 7 -9
10 -24 7 -34 -4 -9 -1 -20 6 -25 8 -5 9 -11 3 -15 -12 -9 -16 -43 -5 -43 4 0
6 -11 5 -25 -2 -14 2 -23 8 -22 6 1 12 -7 14 -18 3 -11 7 -27 10 -35 4 -8 7
-30 8 -49 0 -19 6 -36 12 -38 6 -2 9 -13 6 -24 -4 -13 3 -30 18 -46 13 -14 18
-23 12 -19 -15 9 -18 -10 -3 -19 6 -4 10 -12 9 -18 -3 -26 2 -38 13 -31 8 5 9
2 5 -9 -3 -9 -1 -19 4 -23 6 -3 8 -16 5 -28 -5 -19 -4 -20 8 -3 12 16 14 16
20 1 8 -22 8 -26 -3 -19 -5 3 -13 0 -17 -6 -4 -8 -3 -9 4 -5 14 8 67 -68 57
-83 -3 -6 -1 -11 5 -11 6 0 9 -4 5 -9 -3 -5 4 -13 15 -16 17 -5 19 -10 9 -21
-9 -11 -8 -14 4 -14 9 0 18 -8 21 -17 3 -10 17 -30 30 -44 14 -15 22 -30 19
-33 -4 -3 -1 -6 6 -6 7 0 9 -5 6 -10 -3 -6 1 -10 9 -10 14 0 18 -6 15 -26 0
-4 3 -10 8 -13 21 -15 32 -48 20 -61 -8 -8 -8 -11 -1 -7 6 4 19 -2 29 -13 10
-11 21 -17 25 -15 8 5 20 -17 26 -43 3 -18 36 -42 47 -35 10 6 37 -29 31 -39
-3 -4 2 -5 10 -2 10 4 20 -3 27 -20 7 -14 16 -23 20 -20 5 3 9 1 9 -4 0 -11
57 -72 63 -66 9 9 58 -47 51 -59 -5 -8 -2 -7 9 2 15 12 17 12 11 -4 -5 -13 -4
-16 4 -11 7 4 15 1 18 -8 3 -9 10 -13 15 -10 5 3 9 1 9 -3 0 -14 84 -45 123
-46 26 0 34 -3 28 -11 -7 -8 2 -11 30 -10 21 0 39 -3 39 -8 0 -4 5 -8 11 -8 5
0 7 6 3 13 -4 6 2 4 14 -6 13 -12 28 -16 41 -12 14 4 23 1 27 -9 8 -21 36 -20
60 2 11 10 25 17 32 14 6 -2 12 1 12 7 0 6 5 11 11 11 5 0 7 -6 3 -12 -4 -7 2
-5 14 5 12 11 26 16 33 11 8 -5 10 -3 4 6 -5 9 -2 10 11 6 11 -3 26 -1 34 5
12 8 9 9 -9 4 -17 -5 -21 -4 -16 5 4 7 19 10 35 6 18 -3 33 0 40 9 7 8 16 13
20 10 5 -3 12 0 16 6 5 8 3 9 -6 4 -9 -5 -11 -4 -6 3 4 7 14 12 22 12 8 0 12
-4 9 -10 -3 -6 1 -7 9 -4 9 3 16 9 16 13 0 4 9 8 20 9 11 1 29 3 39 4 11 1 17
6 15 10 -3 4 3 9 13 9 28 2 36 4 68 19 17 7 33 13 38 12 4 -1 7 3 7 9 0 8 4 8
14 0 11 -9 17 -8 28 3 11 10 19 11 33 4 13 -8 16 -7 11 1 -11 17 5 13 27 -7
11 -9 17 -11 13 -4 -4 7 -1 15 8 18 9 3 14 9 11 14 -2 4 20 6 51 5 32 -1 50 2
42 6 -7 5 -8 9 -3 10 6 0 46 5 90 11 99 14 805 18 822 6 7 -6 43 -8 82 -6 38
1 67 -1 64 -6 -3 -4 4 -5 16 -1 12 4 21 2 21 -4 0 -6 10 -11 23 -11 18 0 19
-2 7 -10 -8 -5 -10 -10 -4 -10 6 0 14 3 18 7 14 14 40 11 77 -8 21 -10 42 -19
46 -18 5 1 10 1 13 -1 3 -1 18 -3 35 -5 21 -3 26 -2 15 5 -8 5 -11 10 -7 10
12 0 60 -33 74 -50 6 -8 15 -12 19 -7 4 4 2 7 -4 7 -7 0 -12 5 -12 10 0 13 40
-7 58 -29 8 -9 11 -10 7 -3 -4 7 0 12 10 12 9 0 14 -4 11 -9 -3 -5 2 -15 12
-22 15 -13 16 -12 4 3 -18 23 7 31 31 10 9 -8 31 -17 49 -19 17 -2 40 -11 50
-20 10 -9 18 -13 18 -8 0 4 7 2 15 -5 8 -7 15 -9 15 -4 1 5 8 -2 16 -16 8 -14
13 -17 10 -7 -4 12 -2 17 6 14 7 -2 12 -9 11 -15 -2 -6 4 -9 12 -5 9 3 24 -2
34 -11 15 -14 35 -17 91 -14 39 1 74 6 77 11 2 4 13 5 24 2 11 -4 19 -2 19 5
0 7 6 8 19 0 13 -7 22 -7 26 0 3 5 3 10 -2 10 -10 0 19 20 30 20 5 0 6 -4 3
-8 -2 -4 3 -8 12 -8 9 0 28 -4 42 -8 l25 -7 -25 16 -25 16 25 -7 c14 -3 22 -3
18 1 -5 5 11 17 34 27 23 11 46 24 50 31 4 6 15 12 25 12 10 0 17 5 16 12 -3
15 52 55 63 45 5 -4 6 -3 2 1 -7 10 22 47 37 47 5 0 3 -5 -5 -11 -12 -8 -12
-10 -1 -7 8 2 15 12 17 22 4 29 21 41 38 27 12 -10 14 -9 9 8 -6 25 8 44 61
83 21 15 36 28 31 28 -4 0 -2 6 5 14 6 8 19 12 28 9 15 -4 15 -3 2 6 -13 10
-13 13 2 25 10 7 14 17 10 21 -4 5 1 5 11 2 10 -4 16 -3 13 2 -7 11 29 53 38
44 4 -4 4 0 0 10 -7 19 6 23 23 6 8 -8 13 -7 18 2 5 7 4 10 -2 6 -6 -4 -17 0
-24 9 -11 13 -10 15 5 12 11 -2 20 4 21 13 4 24 37 93 49 101 6 4 17 5 25 3
11 -5 12 -3 1 10 -8 10 -9 15 -1 15 6 0 10 3 9 8 -1 4 3 17 10 28 6 12 9 24 6
26 -2 3 2 11 11 18 9 7 15 8 15 2 0 -6 -5 -12 -12 -14 -9 -3 -9 -6 0 -12 7 -4
12 -3 12 3 0 6 8 8 18 5 10 -4 13 -2 7 3 -14 11 -18 63 -4 63 5 0 8 -4 4 -9
-3 -5 -2 -12 2 -14 5 -3 9 7 9 22 1 15 13 51 26 79 14 28 21 53 16 54 -5 2 1
14 12 26 12 13 24 40 26 60 3 20 13 53 23 72 10 19 16 41 14 48 -3 6 0 12 6
12 6 0 11 -5 11 -12 0 -6 2 -9 5 -6 3 3 1 16 -4 30 -5 15 -6 30 0 39 5 8 9 10
9 4 0 -5 5 -2 11 8 6 10 8 21 5 24 -3 4 -6 1 -6 -6 0 -7 -5 -9 -11 -6 -7 5 -4
14 8 28 10 11 13 18 8 14 -7 -3 -11 12 -10 43 0 26 2 47 5 45 19 -11 14 304
-5 334 -3 5 1 12 7 14 10 4 10 7 0 15 -7 5 -14 16 -16 24 -1 9 -8 24 -16 34
-9 11 -10 15 -2 10 6 -4 12 -2 12 3 0 6 -5 11 -11 11 -5 0 -7 5 -4 10 3 6 1
10 -5 10 -6 0 -9 4 -6 9 10 15 -66 3 -85 -15 -10 -9 -22 -14 -25 -11 -4 4 -18
-2 -32 -13 -13 -11 -29 -17 -35 -13 -6 3 -7 1 -3 -5 4 -7 1 -12 -8 -12 -9 0
-15 -3 -15 -7 3 -20 -2 -24 -16 -13 -13 11 -14 10 -10 -3 4 -8 1 -18 -6 -23
-8 -5 -10 -3 -4 7 8 14 -43 -27 -56 -45 -4 -5 -11 -6 -17 -2 -6 3 -13 -3 -17
-14 -3 -11 -12 -20 -19 -20 -7 0 -23 -11 -36 -25 -12 -13 -26 -22 -31 -20 -4
3 -11 1 -14 -5 -5 -8 -12 -7 -23 2 -12 10 -14 10 -8 1 4 -8 2 -13 -4 -13 -6 0
-8 -5 -4 -12 4 -6 3 -8 -3 -5 -5 3 -24 -3 -41 -14 -18 -10 -39 -19 -47 -19 -8
0 -15 -4 -15 -10 0 -5 -3 -9 -7 -9 -5 1 -11 0 -15 -1 -5 -1 -14 -3 -20 -4 -7
-1 -12 -8 -10 -15 1 -7 -2 -10 -8 -6 -5 3 -24 -3 -40 -15 -17 -12 -46 -26 -66
-31 -19 -6 -32 -14 -29 -20 8 -12 42 -12 50 1 4 6 10 8 15 5 4 -3 10 2 14 10
3 8 15 15 26 15 11 0 20 3 20 8 0 8 48 32 66 32 7 0 14 3 16 8 4 10 75 42 93
42 8 0 15 3 15 8 0 8 48 32 66 32 6 0 14 7 18 15 3 8 17 20 32 25 18 7 24 15
20 27 -5 13 -4 14 9 3 10 -8 15 -9 15 -1 0 6 4 11 10 11 5 0 45 27 88 60 44
33 85 60 91 60 7 0 26 9 42 21 32 22 49 18 49 -12 0 -10 4 -19 9 -19 13 0 22
-35 33 -120 14 -115 16 -190 7 -196 -5 -3 -9 -38 -9 -79 0 -42 -5 -77 -11 -80
-6 -4 -8 -12 -6 -19 6 -15 -22 -149 -34 -160 -5 -6 -9 -20 -9 -33 0 -13 -4
-23 -10 -23 -5 0 -10 -18 -10 -40 0 -22 -4 -40 -10 -40 -5 0 -10 -7 -10 -15 0
-8 -5 -15 -11 -15 -6 0 -8 -7 -5 -16 4 -9 -3 -32 -14 -51 -11 -19 -20 -40 -20
-48 0 -7 -7 -15 -15 -19 -8 -3 -15 -14 -15 -24 0 -10 -9 -27 -20 -37 -11 -10
-17 -21 -15 -25 3 -4 -2 -13 -10 -20 -8 -7 -15 -18 -15 -26 0 -7 -9 -18 -20
-24 -11 -6 -20 -17 -20 -24 0 -7 -9 -21 -20 -31 -11 -10 -20 -27 -20 -37 0
-10 -7 -21 -15 -24 -8 -4 -15 -13 -15 -20 0 -8 -18 -31 -40 -51 -22 -21 -40
-42 -40 -49 0 -13 -56 -74 -69 -74 -5 0 -13 -9 -16 -20 -3 -11 -12 -20 -20
-20 -8 0 -17 -9 -20 -20 -3 -11 -12 -20 -20 -20 -8 0 -17 -9 -20 -20 -3 -11
-12 -20 -20 -20 -8 0 -16 -9 -20 -19 -3 -10 -19 -25 -35 -33 -16 -8 -49 -32
-72 -54 -44 -40 -96 -64 -139 -64 -13 0 -33 -6 -44 -14 -11 -7 -31 -13 -45
-12 -14 1 -30 -2 -36 -6 -6 -4 -46 -9 -89 -10 -63 -1 -79 2 -87 16 -5 9 -14
13 -20 10 -6 -4 -13 -3 -17 2 -11 15 -50 34 -71 34 -11 0 -20 4 -20 10 0 5
-22 12 -50 16 -27 4 -50 10 -50 13 0 4 -21 12 -47 20 -53 14 -83 26 -126 48
-21 11 -35 12 -57 5 -24 -9 -28 -8 -23 4 5 13 -14 20 -41 15 -4 -1 -15 4 -23
11 -8 6 -33 11 -55 9 -22 -1 -47 4 -55 11 -10 8 -46 13 -99 13 -45 0 -86 3
-90 8 -11 10 -712 8 -817 -3 -49 -5 -95 -14 -102 -20 -8 -6 -34 -10 -60 -7
-33 3 -48 0 -52 -10 -3 -7 -17 -12 -32 -11 -15 1 -33 -2 -41 -7 -8 -5 -27 -10
-44 -12 -16 -2 -34 -7 -40 -12 -6 -4 -33 -14 -61 -21 -27 -7 -54 -17 -60 -21
-5 -4 -28 -10 -50 -14 -22 -4 -50 -14 -62 -21 -13 -8 -23 -11 -23 -7 0 5 -5 1
-10 -9 -6 -9 -18 -14 -29 -11 -10 3 -22 0 -25 -6 -4 -6 -15 -11 -26 -11 -10 0
-20 -6 -23 -13 -3 -8 -16 -13 -29 -12 -12 1 -39 -7 -58 -18 -22 -12 -36 -15
-38 -8 -2 6 -21 11 -42 11 -21 0 -42 5 -45 10 -3 6 -22 10 -41 10 -19 0 -34 5
-34 10 0 6 -22 10 -50 10 -37 0 -55 5 -70 20 -11 11 -25 20 -32 20 -7 0 -34
23 -61 51 -27 28 -51 48 -54 45 -9 -9 -213 198 -213 217 0 9 -5 17 -10 17 -13
0 -69 61 -70 76 0 6 -9 19 -20 29 -11 10 -20 23 -20 29 0 5 -12 22 -26 37 -28
29 -49 62 -60 92 -3 9 -10 17 -14 17 -7 0 -22 39 -24 63 -1 5 -9 15 -19 22
-10 7 -19 25 -21 40 -3 25 -23 48 -36 40 -3 -2 -5 12 -5 30 1 20 -4 36 -12 39
-7 3 -13 16 -13 28 0 13 -7 32 -15 42 -8 10 -12 23 -9 28 3 5 0 16 -7 25 -8 8
-12 28 -11 43 2 16 -1 31 -7 35 -6 3 -11 21 -11 40 0 18 -4 35 -9 37 -5 2 -13
57 -19 123 -6 67 -15 121 -21 123 -15 5 -14 79 1 84 7 3 10 28 9 70 -1 37 3
69 9 73 5 3 10 25 10 49 0 56 27 84 61 64 13 -7 29 -19 37 -26 14 -13 32 -8
32 9 0 5 -6 9 -14 9 -7 0 -20 8 -27 18 -13 16 -13 16 6 2 19 -14 19 -14 6 3
-11 14 -16 15 -29 5 -10 -8 -13 -9 -9 -2 4 7 0 15 -9 18 -10 4 -13 2 -8 -6z
m334 -1403 c20 -24 6 -28 -15 -5 -10 11 -13 20 -8 20 6 0 16 -7 23 -15z m65
-85 c10 -11 16 -20 13 -20 -3 0 -13 9 -23 20 -10 11 -16 20 -13 20 3 0 13 -9
23 -20z m2650 -168 c-3 -3 -11 0 -18 7 -9 10 -8 11 6 5 10 -3 15 -9 12 -12z
m980 -62 c3 -5 1 -10 -4 -10 -6 0 -11 5 -11 10 0 6 2 10 4 10 3 0 8 -4 11 -10z"/>
<path d="M761 2764 c5 -6 8 -17 7 -24 -5 -20 68 -53 89 -41 14 8 15 11 3 12
-8 1 -18 1 -22 0 -5 0 -8 4 -8 9 0 6 -9 10 -20 10 -18 0 -45 32 -35 42 3 3 -2
5 -10 5 -10 0 -12 -4 -4 -13z"/>
<path d="M850 2686 c0 -10 62 -66 75 -66 7 0 20 -8 27 -18 7 -10 31 -26 53
-36 22 -11 43 -25 48 -32 4 -7 14 -11 22 -8 8 4 15 2 15 -2 0 -10 60 -40 73
-36 4 1 7 -3 7 -8 0 -5 9 -10 20 -10 11 0 20 -4 20 -10 0 -5 9 -10 20 -10 11
0 20 -4 20 -8 0 -4 16 -14 35 -21 19 -7 35 -17 35 -22 0 -5 5 -9 11 -9 6 0 58
-23 115 -51 57 -28 107 -48 113 -45 5 3 11 2 13 -2 1 -5 35 -21 73 -37 39 -15
75 -31 80 -35 6 -4 31 -11 57 -14 26 -4 50 -11 53 -17 4 -5 20 -9 37 -9 30 0
79 -13 123 -31 23 -10 65 -16 183 -25 45 -4 85 -11 88 -16 3 -4 56 -8 119 -8
65 0 116 -4 120 -10 4 -6 180 -10 498 -9 512 0 720 8 740 28 6 6 36 11 66 12
64 1 186 20 197 32 4 4 25 7 46 7 21 0 38 4 38 9 0 5 21 12 48 15 71 9 81 11
94 24 7 7 26 12 43 12 16 0 45 9 63 20 18 11 40 20 50 20 9 0 30 7 46 15 15 8
37 15 47 15 11 0 19 4 19 9 0 5 17 15 38 21 20 7 41 16 46 20 5 5 15 6 22 3 9
-3 14 2 14 12 0 11 -5 15 -15 12 -16 -7 -30 9 -15 16 6 3 5 4 -2 3 -7 -2 -12
-10 -12 -19 1 -9 -2 -15 -6 -12 -4 3 -28 -6 -52 -20 -24 -13 -54 -23 -66 -20
-14 2 -22 -1 -22 -10 0 -8 -5 -17 -12 -21 -7 -4 -8 -3 -4 4 4 7 2 12 -4 12 -6
0 -13 -7 -16 -15 -5 -12 -10 -13 -20 -4 -11 9 -14 8 -14 -1 0 -7 -7 -10 -16
-6 -9 3 -12 2 -9 -4 4 -6 -7 -13 -24 -16 -17 -4 -29 -10 -26 -13 2 -4 -12 -6
-31 -5 -19 2 -34 -1 -34 -6 0 -6 -7 -10 -15 -10 -8 0 -15 -5 -15 -11 0 -6 -7
-3 -16 5 -21 21 -30 20 -13 -1 7 -10 9 -15 5 -11 -5 4 -15 3 -22 -3 -9 -8 -11
-5 -8 13 2 13 1 17 -2 10 -7 -16 -47 -32 -93 -38 -18 -3 -41 -9 -51 -14 -10
-5 -39 -11 -65 -12 -25 0 -48 -5 -51 -10 -3 -4 -19 -8 -35 -8 -17 0 -28 4 -25
9 5 7 -49 -7 -94 -26 -8 -3 -19 -5 -25 -3 -33 10 -103 15 -98 7 3 -6 -7 -8
-25 -5 -17 2 -33 1 -34 -4 -3 -8 -987 -12 -996 -3 -11 10 -23 5 -16 -7 6 -10
4 -10 -7 0 -8 8 -47 12 -112 12 -72 0 -96 3 -91 12 4 6 3 8 -4 4 -5 -3 -12 -3
-15 1 -2 5 -2 2 0 -5 1 -8 -3 -12 -9 -10 -7 3 -13 11 -13 18 0 7 -8 14 -18 16
-9 1 -15 -1 -13 -4 2 -4 -22 -7 -54 -7 -32 0 -56 3 -54 7 3 4 -23 7 -57 7 -49
-1 -65 4 -84 21 -13 12 -25 17 -29 12 -3 -6 -15 -8 -26 -5 -11 3 -18 8 -15 12
2 4 -9 5 -26 3 -17 -2 -39 3 -53 12 -14 9 -32 13 -40 10 -9 -3 -16 -1 -16 6 0
6 -4 8 -10 5 -5 -3 -24 1 -42 9 -34 15 -77 30 -90 31 -4 0 -17 8 -28 18 -12
10 -26 15 -32 11 -7 -5 -8 -2 -3 6 6 10 4 12 -7 7 -9 -3 -27 1 -42 8 -15 8
-28 14 -29 14 -1 0 -18 6 -37 13 -19 7 -38 11 -42 10 -4 -1 -12 8 -18 19 -7
11 -18 18 -25 15 -8 -3 -15 0 -17 5 -2 6 -10 11 -18 12 -8 1 -26 10 -40 20
-13 9 -28 17 -33 17 -4 0 -20 9 -36 21 -15 11 -34 21 -42 22 -8 2 -20 6 -26
10 -7 5 -16 6 -21 4 -4 -3 -21 6 -37 20 -17 14 -24 22 -16 18 9 -6 12 -4 7 4
-4 6 -13 10 -19 9 -18 -3 -58 22 -52 33 9 13 -9 11 -24 -3 -11 -11 -13 -10 -8
4 5 13 2 15 -11 11 -15 -5 -14 -3 3 18 11 13 13 18 5 12 -19 -18 -50 -16 -50
2 0 8 -5 15 -11 15 -5 0 -7 -5 -3 -11 4 -7 -7 -1 -25 12 -22 16 -27 25 -19 31
8 5 3 8 -14 8 -16 0 -28 -2 -28 -4z"/>
<path d="M4966 2627 c3 -10 9 -15 12 -12 3 3 0 11 -7 18 -10 9 -11 8 -5 -6z"/>
<path d="M5010 2630 c-8 -5 -12 -12 -9 -15 4 -3 12 1 19 10 14 17 11 19 -10 5z"/>
<path d="M4985 2591 c-3 -6 -12 -8 -18 -5 -8 5 -8 3 1 -7 9 -10 15 -10 24 -1
6 6 9 14 6 17 -3 4 -9 1 -13 -4z"/>
<path d="M2410 2586 c0 -2 7 -7 16 -10 8 -3 12 -2 9 4 -6 10 -25 14 -25 6z"/>
<path d="M3528 2563 c7 -3 16 -2 19 1 4 3 -2 6 -13 5 -11 0 -14 -3 -6 -6z"/>
<path d="M1126 2541 c-3 -5 1 -14 9 -21 11 -9 15 -9 15 -1 0 8 5 9 19 1 11 -5
23 -10 28 -10 4 1 -3 7 -16 14 -14 8 -32 11 -40 8 -9 -3 -12 -1 -7 6 4 7 5 12
2 12 -3 0 -7 -4 -10 -9z"/>
<path d="M4876 2535 c-11 -8 -15 -15 -9 -15 6 0 16 7 23 15 16 19 11 19 -14 0z"/>
<path d="M3073 2511 c-20 -17 -21 -20 -6 -26 10 -3 14 -3 10 1 -4 4 0 16 10
26 21 23 14 23 -14 -1z"/>
<path d="M110 2470 c0 -5 5 -10 11 -10 5 0 7 5 4 10 -3 6 -8 10 -11 10 -2 0
-4 -4 -4 -10z"/>
<path d="M1276 2472 c-3 -4 4 -9 15 -9 23 -2 25 3 4 10 -8 4 -16 3 -19 -1z"/>
<path d="M5365 2459 c-4 -6 -5 -12 -2 -15 2 -3 7 2 10 11 7 17 1 20 -8 4z"/>
<path d="M130 2420 c0 -5 5 -10 11 -10 5 0 7 -5 3 -12 -4 -7 -3 -8 5 -4 9 6 9
11 0 22 -14 17 -19 18 -19 4z"/>
<path d="M567 2405 c3 -8 9 -12 14 -9 12 7 11 11 -5 17 -10 4 -13 1 -9 -8z"/>
<path d="M1433 2393 c-17 -6 -17 -20 0 -20 8 0 14 6 14 14 0 7 -1 13 -1 12 -1
0 -7 -3 -13 -6z"/>
<path d="M4509 2353 c-13 -16 -12 -17 4 -4 9 7 17 15 17 17 0 8 -8 3 -21 -13z"/>
<path d="M4669 2333 c-13 -16 -12 -17 4 -4 9 7 17 15 17 17 0 8 -8 3 -21 -13z"/>
<path d="M4370 2310 c-9 -6 -10 -10 -3 -10 6 0 15 5 18 10 8 12 4 12 -15 0z"/>
<path d="M3693 2153 c9 -8 56 -13 60 -6 3 5 -10 9 -29 9 -19 1 -33 0 -31 -3z"/>
<path d="M2530 2140 c-8 -5 -10 -10 -5 -10 6 0 17 5 25 10 8 5 11 10 5 10 -5
0 -17 -5 -25 -10z"/>
<path d="M3680 2136 c0 -2 7 -7 16 -10 8 -3 12 -2 9 4 -6 10 -25 14 -25 6z"/>
<path d="M666 1867 c3 -10 9 -15 12 -12 3 3 0 11 -7 18 -10 9 -11 8 -5 -6z"/>
<path d="M5316 1853 c-6 -14 -5 -15 5 -6 7 7 10 15 7 18 -3 3 -9 -2 -12 -12z"/>
<path d="M867 1729 c4 -13 8 -18 11 -10 2 7 -1 18 -6 23 -8 8 -9 4 -5 -13z"/>
<path d="M5615 1650 c-3 -6 1 -7 9 -4 18 7 21 14 7 14 -6 0 -13 -4 -16 -10z"/>
<path d="M5535 1510 c-3 -6 1 -7 9 -4 18 7 21 14 7 14 -6 0 -13 -4 -16 -10z"/>
<path d="M890 1490 c6 -11 13 -20 16 -20 2 0 0 9 -6 20 -6 11 -13 20 -16 20
-2 0 0 -9 6 -20z"/>
<path d="M920 1480 c0 -5 5 -10 11 -10 5 0 7 5 4 10 -3 6 -8 10 -11 10 -2 0
-4 -4 -4 -10z"/>
<path d="M1010 1486 c0 -2 8 -10 18 -17 15 -13 16 -12 3 4 -13 16 -21 21 -21
13z"/>
<path d="M905 1450 c-3 -6 1 -7 9 -4 18 7 21 14 7 14 -6 0 -13 -4 -16 -10z"/>
<path d="M534 1423 c2 -10 6 -17 10 -16 15 3 16 11 2 22 -12 10 -14 9 -12 -6z"/>
<path d="M4911 1257 c-13 -21 -12 -21 5 -5 10 10 16 20 13 22 -3 3 -11 -5 -18
-17z"/>
<path d="M1135 1231 c-3 -5 -2 -12 3 -15 5 -3 9 1 9 9 0 17 -3 19 -12 6z"/>
<path d="M1203 1145 c0 -8 4 -12 9 -9 5 3 6 10 3 15 -9 13 -12 11 -12 -6z"/>
<path d="M765 1111 c-3 -5 -2 -12 3 -15 5 -3 9 1 9 9 0 17 -3 19 -12 6z"/>
<path d="M5206 1112 c-3 -5 1 -9 9 -9 8 0 12 4 9 9 -3 4 -7 8 -9 8 -2 0 -6 -4
-9 -8z"/>
<path d="M1286 1057 c3 -10 9 -15 12 -12 3 3 0 11 -7 18 -10 9 -11 8 -5 -6z"/>
<path d="M2951 975 c-24 -8 -74 -15 -110 -16 -36 -1 -78 -8 -93 -15 -31 -16
-38 -17 -37 -6 3 19 -3 21 -25 6 -14 -8 -28 -15 -31 -14 -4 1 -10 -2 -13 -6
-4 -4 -1 -4 6 0 7 4 12 1 12 -9 0 -9 -4 -13 -10 -10 -5 3 -10 1 -10 -5 0 -5
-16 -18 -35 -27 -19 -9 -35 -19 -36 -22 0 -3 -3 -15 -5 -26 -13 -66 -15 -97
-6 -108 5 -6 8 -20 7 -30 -2 -10 3 -21 11 -24 16 -6 19 -33 3 -33 -5 0 -7 -5
-3 -11 4 -8 9 -7 15 2 8 12 11 11 19 -1 5 -8 8 -20 6 -27 -5 -11 21 -28 37
-25 6 2 11 -13 9 -30 -1 -3 6 -12 16 -20 15 -12 16 -11 3 5 -8 10 -9 17 -3 17
6 0 16 -10 23 -21 14 -27 58 -66 82 -74 9 -4 15 -11 11 -16 -3 -6 15 -7 46 -3
41 5 54 3 63 -10 10 -14 18 -15 40 -7 15 6 27 7 27 3 0 -4 16 -7 36 -8 22 0
30 2 22 7 -8 5 13 9 50 9 34 0 62 4 62 8 0 16 48 7 71 -13 12 -11 19 -14 15
-7 -9 16 6 16 23 0 11 -11 12 -10 6 0 -4 7 -17 18 -29 23 -20 9 -20 9 3 5 16
-3 33 4 55 25 17 16 37 27 44 24 7 -3 11 -1 7 4 -3 5 11 27 32 48 20 21 36 42
35 47 -2 5 7 6 18 3 15 -4 19 -2 12 6 -11 14 31 80 43 69 5 -4 5 -1 1 5 -4 7
-2 22 5 34 8 16 8 20 -1 14 -7 -4 -5 7 4 30 18 42 20 57 6 35 -8 -12 -10 -9
-10 12 0 15 -9 33 -20 41 -11 8 -17 17 -12 21 4 4 2 6 -3 4 -6 -2 -24 9 -40
25 -16 15 -35 27 -41 27 -6 0 -16 10 -23 23 -11 22 -11 22 -5 -3 6 -22 5 -23
-9 -11 -9 7 -14 18 -10 25 4 7 2 7 -7 -1 -9 -8 -20 -9 -39 -1 -28 11 -47 14
-131 22 -30 2 -62 7 -70 9 -39 13 -79 14 -119 2z m112 -24 c13 -5 59 -11 101
-13 42 -2 76 -6 76 -10 0 -5 14 -8 30 -8 17 0 30 -4 30 -10 0 -5 10 -10 23
-10 12 0 33 -9 47 -20 14 -11 28 -20 32 -20 4 0 18 -11 31 -24 21 -21 24 -33
22 -83 -3 -87 -4 -95 -14 -88 -5 3 -13 -5 -17 -17 -4 -12 -45 -61 -93 -108
l-86 -87 -50 2 c-28 1 -55 -2 -61 -7 -15 -11 -207 -13 -225 -2 -8 5 -38 9 -67
10 -52 1 -52 1 -137 88 -47 48 -83 91 -80 96 7 11 -35 41 -48 33 -5 -3 -4 5 3
17 9 16 9 25 1 33 -13 13 -14 49 -2 63 5 5 11 20 13 34 1 13 13 30 25 36 13 6
31 17 40 26 10 8 38 20 63 27 25 7 53 17 62 22 10 5 51 9 92 9 41 0 78 5 81
10 8 13 76 13 108 1z m-365 -21 c-7 -10 -14 -17 -17 -15 -4 4 18 35 25 35 2 0
-1 -9 -8 -20z"/>
<path d="M3376 827 c3 -10 9 -15 12 -12 3 3 0 11 -7 18 -10 9 -11 8 -5 -6z"/>
<path d="M4102 974 c-14 -16 -5 -18 17 -5 7 5 9 11 5 14 -5 3 -15 -1 -22 -9z"/>
<path d="M985 861 c-3 -5 0 -13 6 -17 8 -5 9 -3 4 6 -6 10 -4 12 9 7 10 -4 15
-3 11 3 -8 13 -22 13 -30 1z"/>
<path d="M1106 783 c-6 -14 -5 -15 5 -6 7 7 10 15 7 18 -3 3 -9 -2 -12 -12z"/>
<path d="M4913 778 c-1 -11 1 -16 5 -12 4 5 11 12 15 15 5 3 2 9 -5 12 -9 3
-14 -3 -15 -15z"/>
<path d="M4817 709 c7 -7 15 -10 18 -7 3 3 -2 9 -12 12 -14 6 -15 5 -6 -5z"/>
<path d="M4807 689 c7 -7 15 -10 18 -7 3 3 -2 9 -12 12 -14 6 -15 5 -6 -5z"/>
<path d="M4944 686 c1 -8 5 -18 8 -22 4 -3 5 1 4 10 -1 8 -5 18 -8 22 -4 3 -5
-1 -4 -10z"/>
<path d="M4606 548 c3 -5 10 -6 15 -3 13 9 11 12 -6 12 -8 0 -12 -4 -9 -9z"/>
<path d="M2766 413 c-6 -14 -5 -15 5 -6 7 7 10 15 7 18 -3 3 -9 -2 -12 -12z"/>
<path d="M4325 360 c-3 -6 1 -7 9 -4 18 7 21 14 7 14 -6 0 -13 -4 -16 -10z"/>
<path d="M1857 309 c13 -12 31 -15 30 -4 -1 5 -10 10 -20 10 -10 1 -14 -2 -10
-6z"/>
<path d="M3685 149 c-4 -6 -5 -12 -2 -15 2 -3 7 2 10 11 7 17 1 20 -8 4z"/>
<path d="M3608 143 c7 -3 16 -2 19 1 4 3 -2 6 -13 5 -11 0 -14 -3 -6 -6z"/>
<path d="M2827 59 c7 -7 15 -10 18 -7 3 3 -2 9 -12 12 -14 6 -15 5 -6 -5z"/>
</g>
</svg>
