<?xml version="1.0" encoding="UTF-8"?>
<svg version="1.1" xmlns="http://www.w3.org/2000/svg" width="310" height="310">
<path d="M0 0 C1.87468429 1.69940893 3.73500972 3.41484067 5.578125 5.1484375 C7.58809819 7.03238343 9.62922078 8.80533604 11.7578125 10.55078125 C15.60101117 13.82933936 18.82225692 17.51381237 22.0078125 21.42578125 C23.02488281 22.66908203 23.02488281 22.66908203 24.0625 23.9375 C49.3552323 56.20598587 60.86655146 96.98644348 56.5078125 137.7421875 C51.97270512 173.2740667 36.62151056 203.59795459 12.0078125 229.42578125 C11.00814453 230.50472656 11.00814453 230.50472656 9.98828125 231.60546875 C-15.09127052 257.89939882 -53.85937757 273.51633001 -89.8359375 274.6640625 C-133.58341984 275.39236334 -173.22114849 261.48962339 -205.08203125 231.26953125 C-234.26013728 203.01817884 -251.31727221 164.3052567 -252.27539062 123.61425781 C-252.54003233 98.19983313 -247.21201475 74.19080023 -235.9921875 51.42578125 C-235.6631543 50.74999023 -235.33412109 50.07419922 -234.99511719 49.37792969 C-228.52519731 36.22522118 -220.09427102 25.05144836 -209.9921875 14.42578125 C-209.48558594 13.88663086 -208.97898438 13.34748047 -208.45703125 12.79199219 C-155.18569646 -43.5962824 -59.74158206 -51.39647856 0 0 Z M-105.1796875 -14.26171875 C-107.15001953 -14.17470703 -107.15001953 -14.17470703 -109.16015625 -14.0859375 C-120.44818274 -13.13903362 -131.20895127 -9.78670575 -141.8046875 -5.94921875 C-143.0201123 -5.5104541 -144.23553711 -5.07168945 -145.48779297 -4.61962891 C-159.3712789 0.51399354 -171.89707339 6.48640819 -182.9921875 16.42578125 C-183.7965625 17.1115625 -184.6009375 17.79734375 -185.4296875 18.50390625 C-207.80039081 37.93845475 -223.6587889 63.52989212 -228.890625 92.9296875 C-229.24757297 95.67977731 -229.24757297 95.67977731 -226.9921875 98.42578125 C-226.3321875 98.42578125 -225.6721875 98.42578125 -224.9921875 98.42578125 C-224.79625 97.16765625 -224.6003125 95.90953125 -224.3984375 94.61328125 C-221.22337014 75.86289797 -214.58738892 59.50467463 -199.0078125 47.73828125 C-196.9921875 46.42578125 -196.9921875 46.42578125 -193.9921875 45.42578125 C-191.71730066 53.67224606 -191.19897389 58.85559309 -195.4296875 66.61328125 C-199.73836181 74.76136831 -201.14785383 81.12497863 -199.9921875 90.42578125 C-198.07647413 96.31110875 -195.01681347 103.6636882 -189.9921875 107.42578125 C-187.92082959 107.95643554 -187.92082959 107.95643554 -185.6796875 108.17578125 C-181.0066124 109.09089387 -179.48884475 110.75048111 -176.6796875 114.4375 C-163.57465521 129.87838295 -137.39999064 138.02706401 -117.9921875 140.42578125 C-117.19941406 140.53535156 -116.40664062 140.64492187 -115.58984375 140.7578125 C-85.01243247 144.29141165 -51.74787063 139.0694382 -25.9921875 121.42578125 C-19.09126529 116.1685045 -19.09126529 116.1685045 -13.9921875 109.42578125 C-12.60556317 109.16305243 -11.20637995 108.9651338 -9.8046875 108.80078125 C-5.92367199 108.00609712 -4.10728551 107.00670944 -1.6796875 103.86328125 C3.48154893 95.97805893 6.7761235 87.95283762 6.0078125 78.42578125 C3.92345543 71.33690349 1.1129525 64.58349124 -2.9921875 58.42578125 C-2.63607879 54.01003327 -1.93902819 49.75419581 -0.9921875 45.42578125 C13.31168835 52.1849827 20.37169409 64.1835644 26.23046875 78.390625 C27.96666765 83.77371405 28.7235628 89.36313583 29.48046875 94.95703125 C29.80877796 97.58927709 29.80877796 97.58927709 32.0078125 99.42578125 C35.302409 92.83658824 32.84155891 84.67495384 30.6953125 78.05078125 C23.61665271 57.37915469 11.94007465 40.12844843 -2.9921875 24.42578125 C-3.56324219 23.79027344 -4.13429687 23.15476563 -4.72265625 22.5 C-25.9017841 -0.31247961 -62.48010228 -13.17034727 -92.91796875 -14.48828125 C-97.02096112 -14.59597134 -101.08002337 -14.46421847 -105.1796875 -14.26171875 Z M-218.9921875 131.42578125 C-222.09032077 143.2304634 -222.05865708 152.62378929 -218.9921875 164.42578125 C-218.58613281 166.01519531 -218.58613281 166.01519531 -218.171875 167.63671875 C-212.74062289 185.88768305 -200.97046752 201.75388254 -186.9921875 214.42578125 C-186.39535156 214.99941406 -185.79851562 215.57304687 -185.18359375 216.1640625 C-179.19896082 221.35074437 -171.75523322 223.64947668 -163.9921875 224.42578125 C-161.024551 223.70311473 -158.84816729 222.57545017 -156.1953125 221.0703125 C-151.95775994 218.89469101 -147.61180354 217.58794239 -143.0546875 216.23828125 C-142.24427002 215.98900879 -141.43385254 215.73973633 -140.59887695 215.48291016 C-127.36136752 211.55960879 -114.60331974 211.08118443 -100.88525391 211.11010742 C-97.7629885 211.11326025 -94.64167966 211.0897705 -91.51953125 211.06445312 C-75.74665839 211.01249133 -61.7089639 212.70789352 -46.7421875 217.98828125 C-45.39833984 218.44364258 -45.39833984 218.44364258 -44.02734375 218.90820312 C-37.60357542 221.11187253 -37.60357542 221.11187253 -34.85717773 222.52197266 C-30.15559579 224.8004458 -23.41588778 222.71102665 -18.5546875 221.42578125 C-7.9793599 217.54629599 -0.56532944 208.12944433 6.0078125 199.42578125 C6.69746094 198.55050781 7.38710938 197.67523438 8.09765625 196.7734375 C19.30240678 182.12768872 26.17775864 165.04271128 26.1953125 146.48828125 C26.20755859 145.81087891 26.21980469 145.13347656 26.23242188 144.43554688 C26.24608207 139.68635258 25.47805839 135.88300891 24.0078125 131.42578125 C17.76573413 135.09543486 17.76573413 135.09543486 11.66796875 138.99609375 C-4.14123654 149.60389114 -22.23191547 158.33837562 -40.8046875 162.61328125 C-41.47918945 162.76853271 -42.15369141 162.92378418 -42.84863281 163.08374023 C-45.22214061 163.5893934 -47.60015436 164.01620446 -49.9921875 164.42578125 C-50.99958984 164.6067334 -52.00699219 164.78768555 -53.04492188 164.97412109 C-66.18903759 166.98433455 -79.43440213 166.73046029 -92.69970703 166.68652344 C-96.16434542 166.67515198 -99.6286759 166.68188997 -103.09330368 166.69339561 C-138.7583552 166.79425933 -138.7583552 166.79425933 -155.9921875 162.30078125 C-156.81920166 162.08760254 -157.64621582 161.87442383 -158.49829102 161.65478516 C-167.45364942 159.21420021 -175.70475905 155.56023672 -183.9921875 151.42578125 C-184.88212402 150.98363281 -185.77206055 150.54148438 -186.68896484 150.0859375 C-189.5071863 148.6741381 -192.31446205 147.24308211 -195.1171875 145.80078125 C-195.98206787 145.35782715 -196.84694824 144.91487305 -197.73803711 144.45849609 C-202.56463296 141.91877504 -206.86522471 139.12976332 -211.15966797 135.77197266 C-213.61229306 133.97024407 -216.22317272 132.6718379 -218.9921875 131.42578125 Z M-105.7421875 226.67578125 C-106.81726563 226.84013672 -106.81726563 226.84013672 -107.9140625 227.0078125 C-112.52165527 227.81244727 -115.7902867 228.77006774 -118.9921875 232.42578125 C-119.77368344 235.37178169 -119.77368344 235.37178169 -118.9921875 238.42578125 C-117.13726167 241.21873402 -117.13726167 241.21873402 -114.6171875 243.67578125 C-113.39902344 244.95195312 -113.39902344 244.95195312 -112.15625 246.25390625 C-106.63926823 251.79080492 -102.04536363 251.06135304 -94.39160156 251.14746094 C-88.42163584 251.00862453 -84.63833528 250.60099447 -80.2421875 246.17578125 C-77.59643727 242.77410238 -74.94436432 239.33870853 -75.0546875 234.92578125 C-76.34569203 231.48310251 -77.92571625 230.45119159 -80.9921875 228.42578125 C-83.70486244 227.56365935 -86.43227537 227.10535415 -89.2421875 226.67578125 C-89.974375 226.55074219 -90.7065625 226.42570312 -91.4609375 226.296875 C-96.66135641 225.42050811 -100.56913364 225.7923548 -105.7421875 226.67578125 Z " fill="#000000" transform="translate(252.9921875,35.57421875)"/>
<path d="M0 0 C2.49261674 1.39171102 4.20792642 2.58772784 5.5 5.171875 C6.11374682 10.61668607 6.52424485 14.78776033 3.1875 19.296875 C-2.72166882 23.41955092 -9.55914918 22.60958631 -16.5 22.171875 C-19.42215168 21.52672463 -20.92861556 20.80821055 -23.5 19.171875 C-26.12169656 15.00382182 -26.04618429 10.95098755 -25.5 6.171875 C-24.2080653 2.97603654 -23.41091394 1.63973098 -20.34765625 0.06640625 C-14.24595242 -1.85031553 -6.12999789 -2.0305618 0 0 Z " fill="#000000" transform="translate(165.5,38.828125)"/>
</svg>
