<?xml version="1.0" encoding="UTF-8"?>
<!DOCTYPE svg PUBLIC "-//W3C//DTD SVG 1.1//EN" "http://www.w3.org/Graphics/SVG/1.1/DTD/svg11.dtd">
<svg xmlns="http://www.w3.org/2000/svg" version="1.1" width="310px" height="310px" style="shape-rendering:geometricPrecision; text-rendering:geometricPrecision; image-rendering:optimizeQuality; fill-rule:evenodd; clip-rule:evenodd" xmlns:xlink="http://www.w3.org/1999/xlink">
<g><path style="opacity:1" fill="#00c1ba" d="M 309.5,143.5 C 309.5,151.5 309.5,159.5 309.5,167.5C 300.751,234.758 264.418,279.925 200.5,303C 189.805,305.722 179.139,307.889 168.5,309.5C 159.5,309.5 150.5,309.5 141.5,309.5C 74.3545,300.194 29.5211,263.527 7,199.5C -9.09119,135.011 7.40881,80.5114 56.5,36C 103.29,0.42426 154.624,-7.90907 210.5,11C 269.104,36.0424 302.104,80.2091 309.5,143.5 Z M 154.5,20.5 C 180.329,22.2731 204.662,29.4398 227.5,42C 258.297,62.4717 277.631,90.8051 285.5,127C 285.536,129.63 285.036,132.13 284,134.5C 282.017,115.705 274.517,99.5386 261.5,86C 258.926,83.7574 256.092,81.924 253,80.5C 250.547,83.5035 249.047,87.0035 248.5,91C 251.176,95.9962 253.676,101.163 256,106.5C 260.175,119.946 257.342,131.779 247.5,142C 244.471,142.539 241.471,143.206 238.5,144C 230.353,153.752 220.353,161.085 208.5,166C 168.762,181.263 129.762,179.596 91.5,161C 83.9018,156.4 77.2352,150.733 71.5,144C 65.4098,144.144 60.9098,141.644 58,136.5C 52.9054,128.869 51.2387,120.536 53,111.5C 55.5872,104.667 58.4205,98.0002 61.5,91.5C 61.0548,87.3145 59.5548,83.6479 57,80.5C 49.3964,84.4361 43.3964,90.1028 39,97.5C 32.0776,107.767 28.2443,119.1 27.5,131.5C 27.2668,132.932 26.6001,133.432 25.5,133C 24.8333,132 24.1667,131 23.5,130C 36.5341,73.6309 71.2008,38.2976 127.5,24C 136.58,22.2965 145.58,21.1298 154.5,20.5 Z M 33.5,166.5 C 50.8117,178.659 69.4784,188.492 89.5,196C 97.3696,198.301 105.37,199.967 113.5,201C 137.81,202.548 162.144,202.881 186.5,202C 202.812,201.005 218.479,197.338 233.5,191C 248.729,184.476 262.895,176.309 276,166.5C 280.535,186.829 277.202,205.829 266,223.5C 258.263,235.571 248.763,246.071 237.5,255C 232.387,256.403 227.22,257.57 222,258.5C 193.077,245.967 162.91,241.8 131.5,246C 116.131,247.902 101.631,252.402 88,259.5C 82.5097,257.75 77.0097,255.916 71.5,254C 47.7336,235.806 34.0669,211.806 30.5,182C 31.7653,176.912 32.7653,171.746 33.5,166.5 Z M 154.5,260.5 C 160.208,261.258 165.874,262.425 171.5,264C 177.891,266.731 179.057,270.898 175,276.5C 172.167,279.333 169.333,282.167 166.5,285C 159.167,285.667 151.833,285.667 144.5,285C 140.631,281.466 137.131,277.633 134,273.5C 132.462,268.88 133.962,265.713 138.5,264C 143.9,262.504 149.233,261.337 154.5,260.5 Z"/></g>
<g><path style="opacity:1" fill="#00c1ba" d="M 147.5,37.5 C 154.909,36.6209 161.909,37.7875 168.5,41C 174.018,54.1381 169.685,60.6381 155.5,60.5C 140.391,60.4436 136.058,53.6103 142.5,40C 144.315,39.2432 145.981,38.4098 147.5,37.5 Z"/></g>
</svg>
