<?xml version="1.0" encoding="UTF-8" standalone="no"?>
<svg
   width="100%"
   height="auto"
   viewBox="0 0 100 100"
   version="1.1"
   id="svg1"
   sodipodi:docname="orbsvg2.svg"
   inkscape:version="1.4.3 (0d15f75, 2025-12-25)"
   xmlns:inkscape="http://www.inkscape.org/namespaces/inkscape"
   xmlns:sodipodi="http://sodipodi.sourceforge.net/DTD/sodipodi-0.dtd"
   xmlns="http://www.w3.org/2000/svg"
   xmlns:svg="http://www.w3.org/2000/svg">
  <defs
     id="defs1" />
  <sodipodi:namedview
     id="namedview1"
     pagecolor="#ffffff"
     bordercolor="#000000"
     borderopacity="0.25"
     inkscape:showpageshadow="2"
     inkscape:pageopacity="0.0"
     inkscape:pagecheckerboard="0"
     inkscape:deskcolor="#d1d1d1"
     inkscape:zoom="11.33"
     inkscape:cx="50"
     inkscape:cy="50"
     inkscape:window-width="2560"
     inkscape:window-height="1351"
     inkscape:window-x="-9"
     inkscape:window-y="-9"
     inkscape:window-maximized="1"
     inkscape:current-layer="svg1" />
  <path
     d="M 37.628 2.110 C 24.832 5.115, 11.546 16.435, 5.240 29.705 C 1.866 36.804, 1.502 38.411, 1.156 47.703 C 0.848 55.981, 1.173 59.211, 2.878 64.823 C 5.325 72.880, 11.380 82.430, 17.322 87.607 C 23.567 93.047, 34.790 98.063, 43.537 99.323 C 76.053 104.008, 104.862 74.413, 99.111 42.233 C 95.788 23.637, 82.616 8.359, 65.295 3.009 C 58.295 0.847, 44.865 0.411, 37.628 2.110 M 38 8.882 C 29.936 11.485, 26.251 13.653, 20.167 19.375 C 14.369 24.827, 7.943 36.299, 8.068 40.972 C 8.129 43.281, 8.210 43.327, 8.996 41.500 C 9.470 40.400, 10.126 38.251, 10.454 36.725 C 10.782 35.198, 12.693 32.132, 14.700 29.911 C 17.879 26.392, 18.471 26.090, 19.297 27.567 C 19.951 28.735, 19.742 30.318, 18.623 32.665 C 16.328 37.477, 16.558 41.671, 19.250 44.109 C 29.541 53.427, 38.182 57, 50.424 57 C 59.251 57, 65.941 55.110, 72.424 50.785 C 75.133 48.978, 78.129 47.073, 79.084 46.552 C 80.771 45.630, 84 39.959, 84 37.918 C 84 37.360, 83.161 35.166, 82.135 33.043 C 80.169 28.974, 80.738 26.302, 83.356 27.307 C 85.597 28.166, 90.066 35.632, 90.708 39.587 C 91.009 41.443, 91.611 42.741, 92.045 42.472 C 94.072 41.219, 88.809 29.028, 83.316 22.255 C 73.224 9.809, 53.325 3.937, 38 8.882 M 46.569 13.326 C 42.470 16.323, 48.353 21.487, 53.021 18.989 C 55.548 17.636, 55.573 14.377, 53.066 13.035 C 50.483 11.653, 48.750 11.731, 46.569 13.326 M 10.303 55.652 C 9.383 58.051, 10.822 65.731, 12.987 69.975 C 15.836 75.560, 20.910 81.064, 24.646 82.625 C 27.446 83.795, 28.516 83.703, 33.662 81.845 C 41.819 78.900, 58.058 78.825, 66.281 81.694 C 69.461 82.803, 73.177 83.498, 74.539 83.237 C 78.100 82.557, 86.493 72.937, 88.394 67.357 C 90.042 62.520, 90.590 53.986, 89.250 54.018 C 88.838 54.028, 86.543 55.362, 84.152 56.983 C 74.335 63.636, 70.390 64.500, 49.830 64.500 L 31.160 64.500 21.011 59.346 C 12.987 55.271, 10.746 54.498, 10.303 55.652 M 45.250 84.980 C 40.558 86.973, 44.529 92.400, 50.679 92.400 C 55.230 92.400, 58.986 88.557, 56.684 86.255 C 54.901 84.473, 48.204 83.726, 45.250 84.980"
     stroke="none"
     fill="black"
     fill-rule="evenodd"
     id="path1"
     style="fill:#00bbba;fill-opacity:1;stroke:#0bbab9;stroke-opacity:1" />
</svg>
