<svg xmlns="http://www.w3.org/2000/svg" width="100%" height="auto" viewBox="0 0 310 310" version="1.1">
	<path d="M 129.500 4.030 C 97.178 9.867, 69.888 24.070, 46.977 46.978 C 20.322 73.630, 5.551 105.609, 2.037 144.275 C -0.970 177.371, 8.649 213.126, 28.669 243.258 C 34.929 252.681, 53.219 271.520, 64 279.651 C 74.003 287.194, 95.963 298.493, 108 302.289 C 138.153 311.797, 169.190 312.154, 200 303.346 C 209.663 300.583, 231.244 290.374, 241.167 283.870 C 271.383 264.067, 295.117 230.812, 304.299 195.412 C 308.192 180.407, 309.374 170.934, 309.345 155 C 309.260 108.677, 288.300 64.928, 252.325 35.988 C 233.425 20.784, 210.921 10.102, 186.970 4.967 C 171.766 1.707, 144.797 1.267, 129.500 4.030 M 140.512 22.037 C 120.053 24.370, 89.487 36.666, 73.511 48.992 C 66.032 54.761, 50.117 71.437, 45.348 78.500 C 35.238 93.475, 27.140 111.923, 25 124.856 C 23.951 131.198, 23.992 132.421, 25.296 133.724 C 27.706 136.135, 28.689 134.535, 29.432 126.995 C 30.310 118.082, 32.744 110.999, 38.052 101.911 C 42.996 93.446, 47.101 88.703, 53.396 84.182 L 58.002 80.874 59.028 83.687 C 59.592 85.234, 60.524 87.685, 61.100 89.133 C 62.001 91.402, 61.481 93.132, 57.340 101.633 C 52.898 110.754, 52.536 112.067, 52.544 119 C 52.552 125.520, 52.984 127.332, 55.852 132.871 C 60.136 141.145, 63.029 144, 67.127 144 C 69.717 144, 71.412 145.093, 75.818 149.605 C 101.651 176.064, 156.936 185.032, 201.065 169.922 C 215.483 164.985, 231.981 154.825, 237.651 147.391 C 239.704 144.699, 240.944 144, 243.664 144 C 248.210 144, 251.194 140.904, 255.608 131.611 C 260.408 121.504, 260.501 115.255, 256.006 105.013 C 254.207 100.914, 251.841 96.351, 250.749 94.874 C 248.811 92.253, 248.806 92.070, 250.547 87.344 C 251.528 84.680, 252.646 82.132, 253.033 81.683 C 253.699 80.907, 263.606 88.565, 267.167 92.607 C 269.769 95.561, 276.740 108.294, 278.974 114.175 C 280.086 117.099, 281.281 122.419, 281.632 125.996 C 282.370 133.531, 283.494 135.665, 285.745 133.797 C 290.510 129.842, 279.781 99.575, 266.548 79.638 C 259.333 68.768, 243.229 52.622, 232.012 45.011 C 220.078 36.914, 195.456 26.817, 179.752 23.580 C 170.073 21.585, 151.037 20.837, 140.512 22.037 M 147.029 39.406 C 140.925 41.610, 138.307 48.826, 141.425 54.855 C 144.824 61.428, 160.525 63.143, 167.365 57.689 C 169.510 55.979, 170.322 54.323, 170.712 50.862 C 171.359 45.127, 170.007 42.554, 165.006 40.003 C 160.507 37.708, 152.470 37.441, 147.029 39.406 M 32.892 169.722 C 30.978 174.650, 31.546 190.652, 33.968 200 C 38.465 217.359, 51.442 237.492, 66.314 250.182 C 73.073 255.949, 74.442 256.675, 81.216 258.091 L 88.675 259.649 97.264 256.342 C 118.029 248.344, 131.164 245.996, 155 246.020 C 180.376 246.046, 193.757 248.416, 213.803 256.437 L 222.107 259.760 230.039 257.991 C 237.005 256.438, 238.701 255.591, 243.969 251.027 C 256.984 239.752, 268.613 223.797, 274.012 209.808 C 279.496 195.597, 281.215 177.957, 277.952 169.375 C 277.038 166.970, 276.980 166.959, 273.763 168.610 C 271.968 169.532, 267.734 172.252, 264.354 174.656 C 255.873 180.688, 229.321 193.362, 218.822 196.390 C 204.094 200.638, 191.306 202.134, 164.733 202.717 C 128.563 203.511, 107.428 201.429, 88.500 195.206 C 78.432 191.897, 52.830 179.280, 46.722 174.618 C 44.184 172.681, 40.278 170.162, 38.040 169.020 L 33.971 166.945 32.892 169.722 M 145.753 261.970 C 139.723 263.067, 134.170 266.474, 133.398 269.552 C 132.634 272.596, 135.560 277.418, 141.484 282.879 L 145.955 287 156.020 287 L 166.086 287 170.955 282.446 C 173.633 279.941, 176.572 276.314, 177.487 274.385 C 179.038 271.118, 179.038 270.707, 177.491 268.346 C 176.578 266.953, 173.909 264.963, 171.560 263.923 C 166.572 261.717, 152.853 260.679, 145.753 261.970" stroke="none" fill="black" fill-rule="evenodd"/>
</svg>