<?xml version="1.2" encoding="UTF-8"?>
<svg viewBox="0 0 1080 1080" xmlns="http://www.w3.org/2000/svg" width="1080" height="1080">
<title>orblogo</title>
<g class="layer">
<title> </title>
<path d="M 416.28 61.1 c -127.959 30.05 -260.819 143.25 -323.88 275.95 c -33.74 70.99 -37.38 87.06 -40.84 179.98 c -3.08 82.78 0.17 115.08 17.22 171.2 c 24.469 80.57 85.019 176.07 144.44 227.841 c 62.45 54.4 174.68 104.56 262.15 117.16 c 325.16 46.85 613.25 -249.1 555.74 -570.9 c -33.231 -185.96 -164.95 -338.741 -338.16 -392.241 c -70 -21.62 -204.3 -25.98 -276.67 -8.99 m 3.72 67.72 c -80.64 26.03 -117.49 47.71 -178.33 104.93 c -57.98 54.52 -122.24 169.24 -120.99 215.97 c 0.61 23.09 1.42 23.55 9.28 5.28 c 4.74 -11 11.3 -32.49 14.58 -47.75 s 22.39 -45.93 42.46 -68.14 c 31.79 -35.19 37.71 -38.21 45.97 -23.44 c 6.54 11.68 4.45 27.51 -6.74 50.98 c -22.95 48.12 -20.65 90.06 6.27 114.44 C 335.41 574.27 421.82 610 544.24 610 c 88.27 0 155.17 -18.9 220 -62.15 c 27.09 -18.07 57.05 -37.12 66.6 -42.33 c 16.87 -9.22 49.16 -65.931 49.16 -86.341 c 0 -5.58 -8.39 -27.52 -18.65 -48.75 c -19.66 -40.69 -13.97 -67.41 12.21 -57.36 c 22.41 8.59 67.1 83.25 73.52 122.8 c 3.01 18.56 9.03 31.54 13.37 28.85 c 20.27 -12.53 -32.36 -134.44 -87.29 -202.17 C 772.24 138.09 573.25 79.37 420 128.82 m 85.69 44.44 c -40.99 29.97 17.84 81.61 64.52 56.63 c 25.27 -13.53 25.52 -46.12 0.45 -59.54 c -25.83 -13.82 -43.16 -13.04 -64.97 2.91 M 143.03 596.52 c -9.2 23.99 5.19 100.79 26.84 143.23 c 28.49 55.85 79.23 110.89 116.59 126.5 c 28 11.7 38.7 10.78 90.16 -7.8 c 81.57 -29.45 243.96 -30.2 326.19 -1.51 c 31.8 11.09 68.96 18.04 82.58 15.43 c 35.61 -6.8 119.54 -103 138.55 -158.8 c 16.48 -48.37 21.96 -133.71 8.56 -133.39 c -4.12 0.1 -27.07 13.44 -50.98 29.65 C 783.35 676.36 743.9 685 538.3 685 H 351.6 l -101.49 -51.54 c -80.24 -40.75 -102.65 -48.48 -107.08 -36.94 M 492.5 889.8 c -46.92 19.93 -7.21 74.2 54.29 74.2 c 45.51 0 83.07 -38.43 60.05 -61.45 c -17.83 -17.82 -84.8 -25.29 -114.34 -12.75" fill-rule="evenodd" stroke-dasharray="null" stroke-linecap="null" stroke-linejoin="round"/></g>
</svg>
