<?xml version="1.0" standalone="no"?>
<!DOCTYPE svg PUBLIC "-//W3C//DTD SVG 20010904//EN"
 "http://www.w3.org/TR/2001/REC-SVG-20010904/DTD/svg10.dtd">
<svg version="1.0" xmlns="http://www.w3.org/2000/svg"
 width="600.000000pt" height="600.000000pt" viewBox="0 0 600.000000 600.000000"
 preserveAspectRatio="xMidYMid meet">
<g transform="translate(0.000000,600.000000) scale(0.100000,-0.100000)"
fill="#000000" stroke="none">
<path d="M3003 5973 c9 -2 23 -2 30 0 6 3 -1 5 -18 5 -16 0 -22 -2 -12 -5z"/>
<path d="M2730 5950 c34 -5 18 -7 -65 -9 -75 -1 -105 -4 -95 -11 10 -7 -8 -10
-60 -10 -52 0 -70 -3 -60 -10 11 -7 0 -10 -37 -10 -29 0 -53 -4 -53 -10 0 -5
-21 -10 -46 -10 -27 0 -43 -4 -39 -10 4 -6 -12 -10 -39 -10 -27 0 -46 -5 -46
-11 0 -7 -11 -9 -26 -6 -15 2 -28 0 -30 -7 -3 -7 -17 -11 -34 -8 -22 3 -30 0
-30 -11 0 -11 -8 -14 -30 -11 -17 3 -30 1 -30 -5 0 -6 -12 -11 -26 -11 -14 0
-23 -4 -19 -10 4 -6 -5 -10 -19 -10 -14 0 -26 -4 -26 -10 0 -5 -15 -10 -32
-10 -25 0 -29 -3 -18 -10 11 -7 7 -10 -17 -10 -18 0 -33 -4 -33 -10 0 -5 -9
-10 -20 -10 -11 0 -20 -4 -20 -10 0 -5 -9 -10 -20 -10 -11 0 -20 -4 -20 -10 0
-5 -9 -10 -20 -10 -11 0 -20 -4 -20 -10 0 -5 -9 -10 -21 -10 -11 0 -17 -4 -14
-10 4 -6 -5 -10 -20 -10 -15 0 -24 -4 -20 -10 3 -5 -3 -10 -14 -10 -12 0 -21
-5 -21 -11 0 -6 -9 -9 -20 -6 -13 3 -20 0 -20 -9 0 -8 -9 -14 -20 -14 -11 0
-20 -5 -20 -11 0 -5 -4 -7 -10 -4 -5 3 -10 0 -10 -9 0 -8 -8 -13 -17 -12 -10
2 -24 -3 -31 -11 -8 -7 -18 -10 -24 -7 -7 4 -8 2 -4 -4 4 -7 1 -12 -8 -12 -9
0 -16 -4 -16 -10 0 -5 -9 -10 -21 -10 -11 0 -17 -4 -14 -10 3 -6 -4 -10 -17
-10 -18 0 -20 -2 -8 -10 12 -8 11 -10 -5 -10 -11 0 -27 -9 -35 -20 -8 -11 -21
-20 -28 -20 -8 0 -27 -13 -42 -30 -15 -16 -33 -30 -39 -30 -13 0 -106 -90 -94
-91 5 0 -3 -5 -17 -10 -14 -6 -25 -9 -25 -7 0 8 -275 -273 -275 -282 0 -16 30
-12 36 5 4 8 10 12 15 9 5 -3 8 0 7 8 -2 7 3 12 10 10 8 -1 11 1 9 5 -10 17
41 60 64 55 4 -1 5 9 2 21 -5 18 -3 20 8 10 7 -7 18 -13 23 -13 6 0 5 4 -2 9
-11 6 -10 12 5 26 10 10 18 21 18 24 0 3 10 16 22 28 14 14 23 18 27 10 3 -9
5 -8 5 1 1 7 6 10 13 6 8 -5 9 -2 5 9 -3 10 -2 17 4 17 6 0 7 4 4 10 -3 5 0 7
8 5 7 -3 26 6 41 20 15 14 25 25 22 25 -4 0 2 8 12 18 9 10 24 16 32 14 8 -3
12 -2 8 3 -10 11 92 86 105 78 6 -3 7 -1 3 5 -4 7 -1 12 9 12 10 0 13 5 9 12
-5 8 -2 9 9 5 12 -4 17 -1 17 9 0 10 6 14 14 11 8 -3 19 5 26 18 7 13 22 26
35 29 12 3 39 17 60 32 22 15 46 28 55 29 8 1 14 9 14 17 -1 10 7 14 23 12 18
-2 23 1 19 12 -3 8 -2 13 3 10 4 -3 28 4 52 16 24 12 49 21 56 21 7 0 10 4 8
8 -3 4 2 9 10 13 8 3 15 1 15 -5 0 -6 5 -7 10 -4 6 4 8 10 5 15 -3 4 2 10 10
13 10 4 12 1 9 -11 -3 -10 0 -9 6 4 12 22 58 44 105 51 17 2 35 11 41 19 6 8
18 14 27 14 9 0 37 11 62 25 25 14 45 23 45 19 0 -4 7 -1 15 6 8 7 15 9 15 5
0 -4 7 -2 15 5 12 10 15 10 15 -1 0 -9 3 -10 8 -3 11 17 40 24 46 11 3 -7 5
-6 5 4 1 11 25 20 86 34 46 10 87 17 91 16 4 -2 11 3 15 11 7 10 9 10 9 -2 0
-9 3 -11 8 -5 12 16 56 39 46 24 -5 -9 -2 -10 12 -5 19 8 41 14 57 15 5 1 6 4
4 9 -3 4 20 7 51 8 32 0 98 6 147 14 55 8 177 13 315 13 233 0 335 -6 432 -25
31 -5 72 -9 91 -6 24 3 33 0 30 -8 -3 -8 3 -11 13 -10 10 2 57 -6 104 -17 47
-11 97 -20 112 -20 15 1 26 -3 23 -7 -3 -5 8 -11 25 -15 16 -4 30 -12 30 -18
0 -7 4 -6 10 3 5 8 10 10 10 5 0 -6 8 -11 18 -12 10 -1 44 -10 75 -21 31 -11
57 -18 57 -16 0 3 10 -2 22 -10 12 -9 30 -16 40 -16 10 0 18 -5 18 -11 0 -5 5
-7 11 -3 6 3 14 2 18 -3 3 -5 28 -17 54 -27 27 -10 51 -24 53 -31 3 -7 14 -11
25 -8 10 3 19 0 19 -6 0 -6 3 -10 8 -10 21 4 42 -2 42 -12 0 -5 -4 -7 -10 -4
-5 3 -10 4 -10 1 0 -3 10 -10 21 -17 15 -8 19 -8 15 0 -10 15 1 14 29 -5 13
-9 29 -13 34 -9 7 4 8 -1 4 -11 -3 -10 -2 -15 3 -12 5 4 24 -2 43 -11 21 -11
30 -21 22 -25 -6 -4 -11 -2 -11 3 0 6 -5 11 -12 11 -9 0 -9 -3 0 -12 13 -13
54 -19 46 -6 -3 4 10 -2 29 -15 19 -12 32 -26 30 -31 -3 -4 4 -5 16 -1 16 5
20 3 15 -9 -5 -13 -2 -15 12 -9 17 6 18 5 4 -12 -14 -17 -14 -18 7 -7 27 15
36 15 28 2 -3 -5 1 -10 9 -10 9 0 16 -4 16 -9 0 -5 13 -14 30 -21 16 -7 27
-16 24 -21 -3 -5 0 -8 8 -7 7 2 12 -3 10 -10 -1 -8 2 -11 8 -7 9 5 58 -28 114
-77 11 -10 24 -18 28 -18 5 0 6 -4 3 -10 -3 -5 -1 -10 5 -10 13 0 46 -30 33
-30 -4 0 0 -5 10 -11 9 -5 23 -7 30 -3 7 5 6 0 -3 -11 -8 -10 -10 -16 -3 -12
16 10 43 -2 43 -19 0 -8 8 -14 18 -14 12 0 13 -3 5 -8 -9 -6 -6 -11 8 -21 17
-10 20 -10 14 1 -5 7 1 4 12 -7 14 -13 16 -22 9 -27 -6 -5 -2 -8 10 -8 21 0
48 -22 39 -32 -3 -2 5 -10 18 -17 23 -12 73 -80 69 -94 -1 -4 1 -6 5 -6 19 3
33 -2 33 -10 0 -6 11 -22 25 -37 14 -15 24 -33 21 -40 -3 -8 3 -10 17 -6 12 3
19 2 15 -3 -4 -4 4 -19 17 -33 13 -14 21 -30 18 -35 -3 -6 -1 -7 5 -3 7 4 12
1 12 -7 0 -7 17 -32 38 -55 21 -23 34 -44 28 -46 -7 -3 -6 -5 2 -5 6 -1 12 -5
12 -11 0 -5 9 -19 21 -31 11 -11 18 -27 15 -35 -3 -8 -2 -13 3 -10 5 3 14 -7
21 -23 6 -16 20 -37 31 -47 10 -9 16 -21 13 -25 -3 -5 0 -9 5 -9 6 0 11 -7 11
-15 0 -8 5 -15 12 -15 6 0 8 -3 5 -7 -4 -3 0 -17 8 -30 9 -13 13 -29 9 -35 -4
-7 -3 -8 4 -4 11 7 17 -6 13 -27 -1 -5 2 -6 7 -3 9 5 52 -88 52 -112 0 -6 6
-12 13 -12 8 0 7 -4 -3 -11 -12 -8 -12 -10 5 -7 14 2 21 12 23 33 2 23 0 27
-7 15 -8 -12 -11 -8 -11 18 0 17 -4 32 -10 32 -5 0 -10 10 -10 23 0 18 -2 19
-10 7 -8 -12 -10 -9 -10 13 0 16 -4 26 -10 22 -6 -4 -10 5 -10 20 0 15 -4 24
-10 20 -6 -4 -10 6 -10 22 0 22 -2 25 -10 13 -8 -12 -10 -11 -10 8 0 12 -4 22
-10 22 -5 0 -10 9 -10 20 0 11 -4 20 -10 20 -5 0 -10 9 -10 20 0 11 -5 20 -11
20 -5 0 -7 5 -4 10 3 6 -1 10 -9 10 -9 0 -15 3 -14 8 3 14 -14 62 -23 62 -5 0
-9 7 -9 16 0 8 -4 12 -10 9 -5 -3 -10 2 -10 12 0 10 -9 25 -20 33 -11 8 -20
21 -20 28 0 7 -18 31 -40 52 -22 21 -40 44 -40 50 0 6 -18 29 -40 50 -22 21
-40 41 -40 45 0 3 -15 21 -32 39 -18 18 -40 43 -48 55 -8 11 -21 21 -29 21 -8
0 -12 3 -8 6 7 7 -143 158 -198 199 -22 17 -57 47 -77 68 -20 20 -42 37 -48
37 -7 0 -25 14 -40 30 -15 17 -34 30 -42 30 -7 0 -20 9 -28 20 -8 11 -24 20
-35 20 -16 0 -17 2 -5 10 12 8 11 10 -7 10 -13 0 -23 5 -23 10 0 6 -7 10 -15
10 -8 0 -15 5 -15 10 0 6 -6 9 -12 8 -7 -2 -12 3 -10 11 2 9 -4 12 -17 8 -11
-3 -21 -1 -23 3 -2 5 -10 10 -18 12 -8 2 -22 11 -31 21 -9 9 -24 17 -33 17 -9
0 -16 5 -16 10 0 6 -9 10 -20 10 -11 0 -20 5 -20 10 0 6 -9 10 -21 10 -11 0
-17 5 -14 10 4 6 -6 10 -22 10 -22 0 -25 2 -13 10 12 8 9 10 -12 10 -16 0 -28
5 -28 10 0 6 -9 10 -20 10 -11 0 -20 5 -20 10 0 6 -9 10 -20 10 -11 0 -20 5
-20 10 0 6 -9 10 -20 10 -11 0 -20 5 -20 10 0 6 -9 10 -20 10 -11 0 -20 5 -20
10 0 6 -14 10 -31 10 -17 0 -28 4 -24 10 4 6 -5 10 -19 10 -14 0 -26 5 -26 10
0 6 -14 10 -31 10 -19 0 -28 4 -24 11 5 7 -3 9 -24 6 -20 -4 -31 -1 -31 7 0 7
-12 11 -29 10 -17 -1 -32 4 -35 11 -2 8 -15 11 -30 8 -15 -3 -26 -1 -26 6 0 6
-19 11 -47 11 -35 0 -44 3 -33 10 11 7 -1 10 -40 10 -39 0 -51 3 -40 10 11 7
-4 10 -50 10 -46 0 -61 3 -50 10 10 7 -11 10 -70 11 -58 1 -77 4 -60 9 17 5
-11 9 -80 10 -72 2 -95 5 -75 10 17 4 -112 7 -285 7 -173 0 -295 -3 -270 -7z"/>
<path d="M2800 5610 c-19 -5 -73 -11 -120 -15 -47 -3 -116 -14 -155 -24 -38
-10 -78 -17 -87 -15 -10 1 -18 -1 -18 -7 0 -5 -10 -9 -23 -9 -12 0 -33 -7 -45
-16 -12 -8 -27 -12 -32 -9 -6 4 -17 1 -25 -5 -8 -7 -26 -10 -40 -8 -13 3 -22
1 -19 -4 6 -9 -37 -28 -48 -21 -5 2 -8 0 -8 -5 0 -6 -16 -13 -35 -16 -19 -4
-35 -11 -35 -17 0 -6 -4 -8 -9 -4 -5 3 -13 0 -16 -6 -4 -5 -13 -8 -21 -5 -8 3
-14 2 -14 -3 0 -5 -9 -11 -20 -14 -11 -3 -20 -1 -20 5 0 5 -7 2 -15 -6 -9 -9
-34 -20 -55 -26 -22 -6 -40 -15 -40 -20 0 -5 -7 -7 -16 -3 -9 3 -21 -3 -31
-17 -10 -14 -22 -20 -34 -17 -11 3 -19 1 -19 -4 0 -5 -7 -9 -15 -9 -8 0 -15
-4 -15 -10 0 -5 -7 -10 -16 -10 -9 0 -14 -6 -11 -12 5 -17 28 -17 45 -1 8 7
18 11 23 8 5 -4 9 -1 9 4 0 6 9 11 20 11 11 0 20 5 20 10 0 6 9 10 20 10 11 0
20 5 20 10 0 6 15 10 33 10 24 0 28 3 17 10 -11 7 -5 10 25 11 32 0 36 2 20 9
-16 7 -12 9 20 9 30 1 36 4 25 11 -11 7 -4 10 28 10 23 0 42 5 42 10 0 6 9 10
20 10 11 0 20 5 20 10 0 6 15 10 33 10 24 0 28 3 17 10 -11 7 -3 10 30 11 34
0 40 2 25 9 -15 7 -9 9 25 9 33 1 41 4 30 11 -11 7 -4 10 28 10 23 0 42 5 42
10 0 6 14 10 30 10 17 0 30 5 30 13 0 8 4 7 10 -3 6 -10 10 -11 10 -2 0 7 15
12 41 12 26 0 38 4 33 11 -4 8 12 10 55 7 34 -1 62 1 64 5 1 5 25 11 52 13 28
2 86 6 130 10 123 10 345 10 348 0 2 -5 45 -9 97 -10 58 -1 94 -6 93 -12 -1
-6 21 -9 59 -6 44 3 59 1 54 -7 -5 -7 6 -11 33 -11 23 0 41 -4 41 -10 0 -5 18
-10 40 -10 22 0 40 -4 40 -10 0 -5 17 -10 38 -11 30 0 33 -2 17 -9 -15 -6 -5
-9 35 -10 40 -1 50 -4 35 -10 -15 -7 -9 -9 25 -9 33 -1 41 -4 30 -11 -11 -7
-7 -10 18 -10 17 0 32 -4 32 -10 0 -5 9 -10 20 -10 11 0 20 -4 20 -10 0 -5 19
-10 43 -10 31 0 38 -3 27 -10 -11 -7 -7 -10 18 -10 20 0 31 -4 27 -10 -4 -6 7
-10 27 -10 25 0 29 -3 18 -10 -11 -7 -7 -10 18 -10 17 0 32 -4 32 -10 0 -5 9
-10 20 -10 11 0 20 -5 20 -11 0 -6 9 -9 20 -6 13 3 20 0 20 -8 0 -8 8 -12 20
-10 12 2 20 -2 20 -10 0 -8 7 -11 20 -8 14 4 20 0 20 -10 0 -10 7 -15 20 -12
11 2 20 0 20 -6 0 -5 9 -9 21 -9 11 0 17 -4 14 -10 -3 -5 3 -10 15 -10 12 0
18 -4 15 -10 -3 -5 1 -10 9 -10 9 0 16 -4 16 -10 0 -5 9 -10 20 -10 11 0 20
-4 20 -10 0 -5 10 -10 23 -10 18 0 19 -2 7 -10 -12 -8 -11 -10 5 -10 11 0 27
-9 35 -20 8 -11 21 -20 28 -20 8 0 27 -13 42 -30 15 -16 33 -30 40 -30 6 0 8
-4 5 -10 -3 -5 3 -10 15 -10 12 0 18 -4 15 -10 -3 -5 -2 -10 4 -10 6 0 35 -25
65 -55 33 -32 57 -49 60 -42 2 7 5 2 5 -10 1 -17 7 -23 24 -23 18 0 19 -2 7
-10 -12 -8 -10 -10 10 -10 20 0 22 -2 10 -10 -12 -8 -10 -10 10 -10 20 0 22
-2 10 -10 -12 -8 -11 -10 8 -10 13 0 22 -6 22 -16 0 -8 25 -39 55 -69 30 -29
55 -58 55 -65 0 -6 4 -8 10 -5 6 3 10 -1 10 -10 0 -9 5 -13 10 -10 6 3 10 -1
10 -10 0 -10 13 -30 30 -45 16 -15 30 -34 30 -42 0 -7 9 -20 20 -28 11 -8 20
-24 20 -35 0 -16 2 -17 10 -5 8 12 10 11 10 -7 0 -13 5 -23 10 -23 6 0 10 -7
10 -16 0 -8 5 -12 10 -9 6 3 10 -3 10 -15 0 -12 5 -18 10 -15 6 3 10 -3 10
-14 0 -12 5 -21 10 -21 6 0 10 -9 10 -20 0 -11 5 -20 11 -20 5 0 8 -4 5 -9 -3
-5 1 -11 9 -15 8 -3 12 -12 9 -21 -3 -8 -1 -15 5 -15 6 0 11 -9 11 -20 0 -11
5 -20 10 -20 6 0 10 -9 10 -20 0 -11 5 -20 10 -20 6 0 10 -9 10 -20 0 -11 5
-20 10 -20 6 0 10 -9 10 -20 0 -11 5 -20 10 -20 6 0 10 -9 10 -21 0 -11 5 -17
10 -14 6 4 10 -7 10 -27 0 -25 3 -29 10 -18 7 11 10 7 10 -17 0 -18 5 -33 10
-33 6 0 10 -9 10 -20 0 -11 5 -20 10 -20 6 0 10 -13 10 -30 0 -16 5 -30 10
-30 6 0 10 -15 10 -32 0 -25 3 -29 10 -18 7 11 10 3 10 -30 0 -33 3 -41 10
-30 7 11 10 2 10 -32 0 -27 5 -48 10 -48 6 0 10 -24 10 -52 0 -38 3 -49 10
-38 7 10 10 -7 10 -58 0 -67 -2 -75 -30 -103 l-29 -31 -12 26 c-7 14 -16 26
-21 26 -4 0 -9 39 -9 88 -1 61 -4 78 -9 57 -5 -21 -8 -4 -10 60 -1 62 -5 82
-10 65 -7 -21 -8 -18 -9 20 -1 33 -4 41 -11 30 -7 -11 -10 -3 -11 30 0 34 -2
40 -9 25 -7 -15 -9 -10 -9 23 -1 23 -5 42 -11 42 -5 0 -10 9 -10 20 0 11 -4
20 -10 20 -5 0 -10 8 -10 18 0 10 -9 24 -20 32 -11 8 -20 24 -20 35 0 16 -2
17 -10 5 -8 -12 -10 -9 -10 13 0 15 -4 27 -10 27 -5 0 -10 9 -10 20 0 11 -5
20 -11 20 -6 0 -9 9 -6 20 3 13 0 20 -10 20 -8 0 -11 5 -8 10 3 6 -1 10 -9 10
-9 0 -13 6 -10 15 6 16 -17 45 -36 45 -6 0 -9 3 -7 8 5 9 -79 92 -87 85 -3 -4
-6 1 -6 11 0 9 -4 14 -10 11 -5 -3 -10 1 -10 9 0 9 -7 13 -20 11 -13 -3 -20 2
-20 12 0 9 -3 13 -6 10 -7 -7 -44 30 -44 45 0 4 -7 8 -16 8 -9 0 -23 8 -30 18
-13 16 -13 16 -14 0 0 -10 -4 -18 -10 -18 -5 0 -10 -17 -10 -37 0 -28 -3 -34
-10 -23 -7 11 -10 3 -10 -30 0 -33 -3 -41 -10 -30 -7 11 -10 6 -10 -20 0 -26
-3 -31 -10 -20 -7 11 -10 6 -10 -20 0 -26 3 -31 10 -20 8 12 10 9 10 -13 0
-19 10 -39 30 -57 16 -15 30 -36 30 -46 0 -16 1 -16 14 2 8 10 10 21 5 22 -5
2 -9 8 -9 14 0 6 -11 21 -24 33 -14 13 -22 26 -19 29 4 3 2 6 -4 6 -10 0 -7
39 4 70 3 8 7 20 9 25 1 6 9 29 17 52 9 22 12 44 9 48 -4 4 10 -3 31 -15 20
-12 37 -26 37 -31 0 -5 7 -9 16 -9 8 0 12 -4 9 -10 -3 -5 0 -10 8 -10 22 0 54
-33 49 -50 -5 -13 -3 -13 13 0 17 14 18 13 12 -2 -4 -13 -2 -16 11 -11 9 3 14
3 10 -2 -10 -10 11 -37 23 -30 4 3 6 -3 4 -14 -3 -15 0 -18 12 -14 12 5 14 3
8 -7 -6 -10 -4 -12 8 -7 9 3 16 3 15 -1 -3 -12 32 -72 42 -72 6 0 10 -12 10
-26 0 -20 4 -25 16 -20 8 3 12 2 9 -4 -6 -10 32 -91 48 -101 5 -4 7 -12 3 -18
-4 -5 2 -16 14 -23 11 -7 20 -21 20 -30 0 -10 5 -18 11 -18 5 0 7 -5 4 -11 -4
-5 0 -18 8 -27 8 -9 13 -25 12 -34 -2 -10 1 -18 6 -18 5 0 9 -5 9 -11 0 -5 -5
-7 -11 -3 -7 4 -2 -7 11 -23 22 -30 25 -48 50 -243 6 -47 15 -87 20 -88 6 -2
8 -8 4 -13 -3 -5 2 -9 10 -9 9 0 16 -4 16 -9 0 -5 11 -11 25 -13 14 -3 25 -1
25 5 0 5 10 18 22 29 18 16 23 30 23 76 0 31 5 60 10 64 6 5 4 8 -5 8 -13 0
-13 1 0 10 10 6 11 10 3 10 -7 0 -13 9 -13 19 0 11 -5 23 -10 26 -6 4 -7 11
-4 17 6 9 -3 49 -27 118 -5 14 -11 38 -13 53 -3 16 -10 35 -16 42 -7 8 -9 19
-5 25 3 5 2 10 -3 10 -5 0 -12 8 -15 18 -4 9 -15 41 -26 70 -11 28 -17 52 -15
52 3 0 -2 7 -10 16 -9 8 -14 20 -11 25 4 5 1 9 -4 9 -6 0 -10 3 -9 8 1 4 -9
27 -22 52 -13 25 -23 48 -22 53 1 4 -3 7 -10 7 -6 0 -9 3 -5 6 3 4 -1 13 -9
21 -8 8 -11 19 -8 25 4 6 2 8 -4 4 -6 -3 -13 6 -17 23 -3 16 -13 35 -21 41 -7
7 -11 17 -7 23 3 6 1 7 -5 3 -8 -5 -12 0 -12 13 0 10 6 22 13 25 6 4 2 4 -11
2 -18 -4 -22 -1 -18 11 4 10 2 13 -8 10 -10 -4 -13 -1 -10 7 3 8 -5 21 -18 30
-12 9 -19 16 -14 16 5 0 4 6 -3 13 -8 10 -7 17 1 25 8 8 5 9 -11 5 -12 -3 -22
-1 -22 6 -1 6 -2 15 -3 20 0 5 -14 21 -29 35 -18 16 -27 33 -23 42 5 12 1 14
-15 9 -15 -5 -20 -3 -17 6 3 8 -8 27 -24 42 -15 16 -28 33 -28 38 0 5 -6 9
-13 9 -7 0 -21 14 -30 30 -10 17 -22 30 -28 30 -5 0 -9 4 -9 9 0 13 -141 146
-152 143 -5 -1 -4 7 2 17 7 14 7 22 -2 27 -7 4 -8 3 -4 -4 15 -25 -21 -10 -59
25 -22 20 -34 33 -27 29 6 -4 12 -5 12 -2 0 2 -17 15 -37 27 -21 13 -44 29
-51 36 -7 7 -18 13 -24 13 -5 0 -8 7 -5 14 4 11 1 13 -10 9 -10 -4 -14 -2 -10
4 3 5 -4 15 -16 20 -77 35 -102 51 -99 64 2 8 1 11 -3 7 -9 -8 -85 30 -85 43
0 5 -10 9 -22 10 -22 0 -22 1 -3 10 17 8 16 9 -6 4 -17 -3 -31 1 -39 10 -7 8
-18 15 -25 15 -7 0 -18 7 -25 15 -9 11 -16 13 -23 6 -8 -8 -16 -2 -29 17 -10
15 -18 21 -18 13 0 -11 -4 -9 -16 5 -8 10 -12 13 -9 5 6 -10 2 -9 -16 2 -13 8
-43 21 -66 28 -24 7 -43 15 -43 19 0 4 -26 13 -57 20 -32 7 -64 17 -72 23 -16
14 -140 56 -163 57 -10 0 -18 5 -18 12 0 6 -3 9 -6 5 -4 -3 -24 1 -45 10 -22
8 -48 13 -59 10 -11 -3 -18 -1 -14 4 3 5 -4 10 -15 10 -12 1 -25 3 -31 4 -5 1
-17 3 -26 4 -14 1 -15 3 -3 18 13 15 12 15 -7 5 -12 -6 -24 -9 -27 -6 -3 3
-27 7 -54 9 -152 13 -182 17 -220 25 -50 12 -364 11 -413 0z"/>
<path d="M2458 5573 c7 -3 16 -2 19 1 4 3 -2 6 -13 5 -11 0 -14 -3 -6 -6z"/>
<path d="M1697 5264 c7 -19 45 -26 41 -7 -2 9 -13 17 -25 18 -13 1 -19 -3 -16
-11z"/>
<path d="M1672 5266 c9 -11 -34 -46 -57 -46 -9 0 -13 -4 -10 -10 3 -5 0 -10
-8 -10 -8 0 -22 -9 -31 -19 -11 -12 -25 -17 -39 -14 -22 5 -22 5 -2 -11 19
-15 19 -16 1 -9 -12 4 -23 0 -31 -11 -7 -9 -22 -18 -33 -19 -11 0 -18 -5 -16
-9 3 -4 -3 -8 -12 -8 -10 0 -14 -3 -11 -7 8 -7 -11 -33 -25 -33 -5 0 -6 6 -3
13 4 6 0 3 -9 -7 -8 -10 -13 -23 -9 -29 3 -6 1 -7 -4 -4 -6 4 -16 0 -23 -8
-11 -14 -14 -13 -24 1 -10 13 -12 12 -11 -8 0 -13 -3 -23 -7 -23 -4 0 -15 -10
-23 -23 -9 -12 -21 -19 -27 -16 -7 5 -8 2 -3 -6 5 -9 2 -10 -13 -6 -11 4 -23
2 -27 -3 -3 -7 0 -8 9 -5 9 3 16 3 16 0 0 -11 -141 -141 -150 -139 -5 2 -7 -4
-4 -12 4 -11 -1 -15 -17 -15 -19 0 -21 -2 -9 -10 13 -8 12 -10 -4 -10 -11 0
-16 -3 -13 -7 12 -11 -14 -32 -31 -26 -15 6 -15 5 -3 -10 13 -16 8 -22 -14
-17 -5 1 -7 -2 -3 -6 5 -4 -1 -14 -12 -21 -11 -8 -18 -18 -15 -22 2 -5 -7 -13
-20 -19 -14 -7 -25 -17 -25 -24 0 -9 3 -8 10 2 6 9 10 11 10 3 0 -7 -12 -19
-27 -27 -16 -8 -27 -18 -27 -23 3 -16 -8 -33 -17 -27 -5 3 -9 2 -8 -3 1 -4 -1
-16 -5 -25 -4 -9 -3 -25 3 -35 10 -17 10 -17 11 2 0 11 9 27 20 35 11 8 20 21
20 28 0 8 14 27 30 42 17 15 30 33 30 40 0 6 5 8 12 4 8 -5 9 0 5 15 -3 13 -3
20 0 17 9 -9 173 162 174 182 0 9 3 12 5 5 3 -7 36 18 79 60 93 91 107 103
119 99 5 -2 3 4 -4 13 -11 13 -10 15 3 9 11 -4 30 7 56 35 22 23 46 41 53 41
7 0 20 9 28 20 8 11 21 20 30 20 9 0 22 9 30 20 8 11 23 20 33 20 10 0 15 5
12 10 -3 6 3 10 15 10 12 0 18 5 15 10 -3 6 3 10 15 10 12 0 18 5 15 10 -3 6
3 10 14 10 26 0 27 13 4 31 -10 7 -15 10 -11 5z"/>
<path d="M2955 5251 c44 -6 37 -7 -52 -13 -92 -5 -105 -9 -127 -32 -15 -14
-26 -32 -26 -41 0 -8 -4 -15 -10 -15 -5 0 -10 -19 -11 -42 -1 -37 -2 -39 -9
-18 -5 17 -8 1 -8 -50 0 -54 2 -67 8 -45 7 26 8 24 9 -19 1 -45 2 -48 15 -31
13 18 14 18 9 -7 -6 -30 15 -58 42 -58 9 0 13 -4 10 -10 -4 -6 9 -10 32 -11
30 0 34 -2 18 -9 -14 -6 5 -9 60 -11 71 -2 75 -3 35 -9 -31 -5 -10 -7 70 -7
84 0 101 2 65 7 -46 6 -42 7 35 9 58 2 79 5 65 11 -19 8 -19 9 3 9 12 1 22 6
22 11 0 6 7 10 16 10 21 0 44 24 45 47 0 16 1 16 9 -2 6 -15 9 -4 11 40 1 53
2 56 9 25 5 -25 7 -9 8 55 0 61 -3 80 -8 60 -7 -26 -8 -24 -9 20 -1 36 -4 46
-11 35 -8 -13 -10 -12 -10 3 0 25 -27 50 -45 43 -9 -3 -15 0 -15 8 0 16 -41
25 -119 28 l-56 1 50 7 c36 5 18 7 -65 7 -75 0 -98 -2 -65 -6z m157 -32 c29
-6 61 -11 70 -12 9 -1 15 -3 13 -6 -3 -2 3 -10 13 -17 13 -9 19 -9 25 -1 6 8
7 6 3 -5 -3 -12 0 -18 10 -18 8 0 12 -4 9 -10 -3 -5 -2 -10 2 -10 22 0 22
-169 1 -192 -7 -7 -13 -19 -14 -25 -2 -30 -5 -34 -14 -28 -6 4 -23 -1 -37 -11
-15 -9 -38 -18 -53 -20 -14 -1 -53 -5 -87 -8 -38 -4 -70 -3 -82 4 -11 5 -22 6
-25 2 -6 -10 -66 -3 -66 8 0 4 -6 8 -12 7 -7 0 -28 6 -45 13 -24 11 -33 21
-34 40 0 14 -3 19 -6 13 -2 -7 -9 -13 -14 -13 -4 0 -6 6 -3 13 3 8 -2 20 -11
27 -21 17 -21 116 1 137 11 11 14 26 10 47 -6 29 -6 29 10 11 15 -20 15 -19
10 3 -2 13 -2 21 1 18 4 -3 17 1 29 9 13 8 29 12 37 9 8 -3 17 1 20 10 4 10
23 14 72 14 36 0 69 2 72 6 4 3 15 4 24 1 10 -4 42 -11 71 -16z"/>
<path d="M4969 5153 c-13 -16 -12 -17 4 -4 16 13 21 21 13 21 -2 0 -10 -8 -17
-17z"/>
<path d="M1390 5110 c-9 -6 -10 -10 -3 -10 6 0 15 5 18 10 8 12 4 12 -15 0z"/>
<path d="M753 4934 c3 -4 -16 -28 -44 -55 -27 -26 -49 -53 -49 -59 0 -7 -13
-25 -30 -40 -16 -15 -30 -34 -30 -42 0 -7 -9 -20 -20 -28 -11 -8 -20 -24 -20
-35 0 -16 -2 -17 -10 -5 -8 12 -10 10 -10 -8 0 -13 -4 -20 -10 -17 -5 3 -10
-3 -10 -14 0 -12 -5 -21 -11 -21 -5 0 -7 -4 -4 -10 3 -5 -1 -10 -9 -10 -9 0
-15 -3 -14 -7 4 -16 -14 -53 -25 -53 -7 0 -6 -4 3 -10 13 -8 12 -10 -3 -10
-10 0 -15 -4 -12 -10 3 -5 0 -10 -8 -10 -10 0 -13 -7 -10 -20 4 -14 0 -20 -10
-20 -11 0 -13 -6 -9 -22 3 -14 2 -19 -6 -14 -8 5 -12 -2 -12 -19 0 -15 -4 -24
-10 -20 -6 4 -10 -6 -10 -22 0 -22 -2 -25 -10 -13 -8 12 -10 9 -10 -13 0 -16
-4 -26 -10 -22 -6 4 -10 -5 -10 -20 0 -15 -4 -24 -10 -20 -6 4 -10 -5 -10 -19
0 -14 -4 -26 -10 -26 -5 0 -10 -9 -10 -20 0 -11 -4 -20 -10 -20 -5 0 -10 -9
-10 -20 0 -11 -4 -20 -10 -20 -5 0 -10 -15 -10 -32 0 -25 -3 -29 -10 -18 -7
11 -10 7 -10 -17 0 -18 -4 -33 -10 -33 -5 0 -10 -11 -10 -25 0 -14 -5 -25 -11
-25 -6 0 -9 -9 -6 -20 4 -14 0 -20 -11 -21 -14 0 -13 -2 3 -9 19 -8 19 -9 1
-9 -13 -1 -17 -6 -13 -21 3 -11 0 -20 -6 -20 -7 0 -5 -5 3 -10 10 -6 11 -10 3
-10 -8 0 -13 -13 -13 -30 0 -16 -4 -30 -10 -30 -5 0 -10 -18 -10 -41 0 -24 -4
-38 -10 -34 -6 4 -10 -14 -10 -47 0 -38 -3 -49 -10 -38 -7 11 -10 0 -10 -37 0
-29 -4 -53 -10 -53 -6 0 -10 -30 -11 -67 -1 -50 -3 -61 -9 -43 -5 17 -9 -6
-10 -70 -1 -64 -5 -87 -10 -70 -4 14 -8 -135 -8 -330 0 -195 4 -339 8 -320 5
26 8 10 9 -60 2 -63 5 -88 11 -75 6 14 9 -3 9 -52 1 -42 5 -73 11 -73 6 0 10
-24 10 -52 0 -38 3 -49 10 -38 7 11 10 2 10 -32 0 -28 5 -48 11 -48 7 0 10
-15 7 -40 -3 -29 0 -40 10 -40 11 0 13 -8 9 -30 -5 -22 -3 -30 7 -30 10 0 13
-9 10 -30 -4 -22 -1 -30 10 -30 10 0 13 -8 9 -31 -3 -21 -1 -29 6 -24 7 4 11
-5 11 -25 0 -18 4 -29 10 -25 6 4 10 -5 10 -19 0 -14 5 -26 10 -26 6 0 10 -9
10 -20 0 -11 5 -20 10 -20 6 0 10 -15 10 -32 0 -25 3 -29 10 -18 7 11 10 7 10
-17 0 -18 5 -33 10 -33 6 0 10 -9 10 -21 0 -11 4 -17 10 -14 6 4 10 -5 10 -20
0 -15 4 -24 10 -20 6 4 10 -5 10 -20 0 -15 4 -24 10 -20 5 3 10 -3 10 -14 0
-12 5 -21 10 -21 6 0 10 -9 10 -20 0 -11 5 -20 10 -20 6 0 10 -8 10 -18 0 -10
9 -24 19 -31 11 -8 18 -22 16 -33 -2 -10 2 -18 8 -18 7 0 21 -20 32 -45 11
-25 23 -45 27 -45 5 0 8 -10 8 -22 0 -19 2 -20 10 -8 8 12 10 11 10 -7 0 -13
5 -23 10 -23 6 0 10 -10 10 -22 0 -19 2 -20 10 -8 8 12 10 11 10 -5 0 -11 9
-27 20 -35 11 -8 20 -24 20 -35 0 -16 2 -17 10 -5 8 13 10 12 10 -3 0 -11 13
-32 30 -47 16 -15 30 -32 30 -38 0 -5 18 -25 40 -44 22 -20 37 -38 33 -42 -3
-3 2 -6 12 -6 10 0 16 -3 12 -6 -8 -8 18 -34 34 -34 7 0 10 -3 6 -6 -7 -8 116
-132 126 -127 4 2 7 -1 7 -7 0 -15 26 -41 34 -33 3 4 6 1 6 -5 0 -14 78 -92
91 -92 6 0 7 -5 4 -10 -3 -6 1 -10 10 -10 9 0 34 -18 55 -40 21 -22 44 -40 50
-40 7 0 25 -13 40 -30 15 -16 34 -30 42 -30 7 0 20 -9 28 -20 8 -11 23 -20 33
-20 10 0 16 -4 13 -9 -3 -5 8 -11 24 -15 17 -3 30 -12 30 -20 0 -9 7 -13 18
-11 11 2 25 -5 33 -16 7 -10 24 -19 37 -19 13 0 20 -4 17 -10 -3 -5 3 -10 14
-10 12 0 21 -4 21 -10 0 -5 9 -10 21 -10 11 0 17 -4 14 -10 -4 -6 5 -10 20
-10 15 0 24 -4 20 -10 -3 -5 3 -10 14 -10 12 0 21 -4 21 -10 0 -5 9 -10 20
-10 11 0 20 -4 20 -10 0 -5 9 -10 20 -10 11 0 20 -4 20 -10 0 -5 9 -10 20 -10
11 0 20 -4 20 -10 0 -5 9 -10 20 -10 11 0 20 -4 20 -10 0 -5 14 -10 30 -10 17
0 30 -4 30 -10 0 -5 9 -10 20 -10 11 0 20 -5 20 -11 0 -6 6 -9 14 -6 7 3 23
-1 34 -8 11 -8 29 -12 41 -10 11 2 21 0 21 -6 0 -5 9 -9 20 -9 11 0 20 -4 20
-10 0 -5 14 -10 30 -10 17 0 30 -4 30 -10 0 -5 18 -10 40 -10 22 0 40 -4 40
-10 0 -5 21 -10 48 -10 34 0 43 -3 32 -10 -11 -7 0 -10 38 -10 28 0 52 -4 52
-10 0 -6 28 -10 63 -10 44 0 58 -3 47 -10 -10 -7 11 -10 70 -11 58 -1 77 -4
60 -9 -15 -5 23 -8 100 -8 91 0 117 2 95 9 -16 5 -50 11 -75 13 -138 13 -185
18 -189 22 -2 2 -12 -1 -22 -7 -12 -6 -19 -6 -19 0 0 5 -15 12 -32 16 -18 3
-53 10 -78 15 -25 5 -58 12 -73 15 -15 3 -26 9 -23 13 2 4 -10 7 -27 6 -38 -1
-59 5 -52 16 3 5 -8 5 -24 0 -18 -5 -33 -4 -40 3 -14 14 -80 37 -108 37 -13 0
-23 4 -23 9 0 6 -9 8 -21 6 -15 -3 -19 0 -15 11 4 11 0 13 -19 8 -22 -5 -24
-3 -18 12 6 17 5 17 -10 5 -12 -10 -17 -10 -17 -2 0 8 -8 10 -20 6 -11 -3 -20
-2 -20 2 0 10 -58 33 -84 33 -9 0 -19 7 -22 15 -4 8 -15 15 -25 15 -10 0 -19
5 -19 12 0 6 -3 8 -6 5 -4 -4 -19 2 -34 13 -16 11 -33 20 -39 20 -6 0 -11 4
-11 10 0 5 -3 9 -7 9 -22 -4 -33 3 -33 19 0 9 -4 13 -8 7 -9 -13 -32 -18 -32
-7 0 5 -15 17 -34 27 -19 11 -33 22 -31 25 2 3 -6 7 -17 7 -11 1 -28 8 -37 16
-9 8 -26 18 -39 22 -13 4 -20 11 -16 18 4 7 4 9 -1 5 -8 -8 -65 18 -65 30 0 4
-18 16 -40 26 -22 10 -37 23 -34 28 3 5 0 7 -8 6 -7 -2 -12 2 -11 9 1 6 -8 10
-21 9 -17 -2 -23 1 -19 10 3 8 1 14 -5 14 -5 0 -31 20 -58 45 -26 25 -51 45
-56 45 -5 0 -6 5 -2 11 4 7 1 10 -7 7 -16 -5 -69 43 -69 63 0 8 -5 21 -11 29
-8 11 -9 9 -4 -10 l7 -25 -25 25 c-13 14 -22 28 -20 33 2 4 -1 7 -6 7 -6 0
-25 12 -41 27 -22 19 -27 29 -18 35 9 5 7 8 -7 8 -21 0 -75 50 -75 69 0 6 -7
11 -15 11 -8 0 -15 3 -15 8 0 13 -47 62 -54 55 -3 -3 -6 -1 -6 5 0 7 6 12 12
12 7 0 2 7 -10 16 -12 8 -19 20 -16 26 4 7 2 8 -5 4 -12 -8 -44 18 -34 28 4 3
1 6 -6 6 -7 0 -9 5 -6 10 3 6 1 10 -5 10 -6 0 -15 11 -20 25 -5 14 -16 25 -24
25 -7 0 -17 12 -21 27 -3 15 -15 33 -26 41 -11 7 -17 17 -14 22 3 4 -1 10 -9
13 -7 3 -16 17 -20 31 -4 15 -16 38 -29 52 -12 14 -21 29 -20 32 1 4 -5 15
-14 24 -11 13 -12 21 -3 37 7 14 7 21 0 21 -5 0 -10 -8 -10 -17 0 -15 -2 -16
-9 -3 -6 8 -7 18 -5 22 3 4 1 8 -5 8 -6 0 -8 7 -5 15 5 11 2 13 -10 9 -11 -4
-16 -2 -14 7 2 8 -2 13 -8 12 -6 -1 -10 9 -8 22 1 14 -1 25 -5 25 -11 0 -47
82 -43 98 2 8 -1 11 -7 8 -5 -3 -12 7 -16 24 -4 16 -12 30 -18 30 -7 0 -6 4 3
10 12 7 12 10 1 10 -7 0 -11 6 -8 14 4 11 1 13 -11 9 -9 -3 -14 -3 -10 2 4 4
3 16 -2 26 -7 12 -6 19 3 22 8 4 7 6 -4 6 -17 1 -55 104 -44 121 3 6 -1 10
-10 10 -9 0 -14 4 -11 9 4 5 0 12 -6 14 -9 4 -9 6 -1 6 8 1 6 11 -5 34 -9 17
-17 39 -18 47 -1 8 -6 29 -12 45 -5 17 -8 38 -6 47 1 10 -2 18 -8 18 -6 0 -8
11 -6 25 3 13 1 26 -3 27 -5 2 -11 26 -15 53 -3 28 -11 60 -17 73 -9 19 -8 25
3 32 8 6 10 10 4 10 -6 0 -14 18 -18 40 -3 23 -10 39 -14 36 -4 -2 -7 34 -7
80 0 46 -2 84 -5 84 -3 0 -6 40 -7 88 -2 48 -5 102 -9 120 -4 25 -2 32 7 26 8
-4 10 -3 5 5 -8 12 -8 155 -1 231 2 25 7 72 10 105 2 33 10 90 16 126 7 36 10
80 7 97 -3 19 0 28 7 26 6 -3 12 11 13 33 4 54 11 73 28 73 14 0 14 2 0 15 -8
9 -12 23 -9 31 4 10 8 12 12 5 4 -6 7 8 6 32 -1 23 5 53 11 67 7 14 18 46 25
72 7 28 16 45 22 41 5 -3 7 -1 3 5 -3 5 -1 12 6 14 6 2 12 11 14 20 1 12 -3
15 -14 10 -15 -5 -15 -4 -2 12 8 10 15 23 17 30 8 38 34 91 43 88 6 -1 9 2 5
7 -11 19 6 63 23 56 12 -4 13 -3 2 10 -10 12 -10 15 0 15 8 0 11 3 8 6 -4 3
25 67 62 141 38 75 66 141 63 146 -3 6 -1 7 5 3 7 -4 12 -3 12 3 0 5 11 22 25
37 26 28 33 50 13 38 -7 -4 5 10 27 31 22 20 39 40 39 44 -3 14 22 57 44 79
13 13 20 27 16 35 -4 6 -4 9 1 5 5 -5 19 8 32 28 18 25 30 34 41 29 14 -5 15
-4 5 6 -14 14 -17 30 -5 27 4 -2 8 0 9 5 2 4 21 24 43 44 28 26 36 39 27 45
-14 9 -33 11 -24 2z"/>
<path d="M5165 4550 c-3 -6 1 -7 9 -4 18 7 21 14 7 14 -6 0 -13 -4 -16 -10z"/>
<path d="M830 4540 c0 -5 7 -7 15 -4 8 4 15 8 15 10 0 2 -7 4 -15 4 -8 0 -15
-4 -15 -10z"/>
<path d="M822 4463 c-6 -2 -10 -9 -7 -14 8 -12 -25 -60 -36 -53 -5 3 -6 -2 -3
-11 4 -9 0 -23 -8 -33 -23 -27 -79 -122 -71 -122 3 0 -1 -8 -10 -18 -10 -10
-14 -22 -10 -26 5 -4 1 -6 -7 -4 -10 2 -15 -4 -14 -19 1 -13 -3 -23 -7 -23 -5
0 -8 -3 -7 -7 0 -5 -8 -28 -19 -51 -13 -28 -23 -39 -27 -30 -3 7 -3 3 -1 -9 3
-12 1 -24 -5 -28 -6 -3 -8 -11 -5 -16 4 -5 -2 -9 -12 -9 -15 0 -16 -2 -3 -10
8 -5 10 -10 4 -10 -6 0 -11 -6 -12 -12 -2 -25 -51 -153 -53 -138 -2 17 -20
-82 -23 -122 0 -14 -4 -24 -7 -22 -10 6 -19 -23 -19 -59 -1 -18 -7 -49 -14
-69 -8 -21 -11 -38 -7 -38 3 0 5 -19 4 -42 -1 -28 5 -50 18 -66 10 -14 19 -22
19 -18 0 4 6 1 14 -7 9 -9 26 -12 41 -9 14 2 23 7 21 10 -3 3 2 10 11 17 9 7
17 27 19 46 6 94 27 216 40 230 8 8 14 22 13 30 0 8 -4 6 -9 -6 -6 -13 -9 -15
-9 -5 -1 17 41 142 50 150 3 3 5 17 5 32 -1 15 0 25 2 23 5 -5 32 21 32 31 0
4 10 21 23 38 13 17 29 47 37 66 8 19 20 39 27 43 7 4 13 15 13 22 0 8 8 15
18 15 14 0 15 2 2 10 -12 8 -12 10 5 10 15 0 17 3 7 9 -11 7 -10 9 3 15 9 3
13 11 9 18 -5 8 -2 9 9 5 9 -3 16 -3 15 1 -3 14 14 42 23 36 8 -5 13 10 10 30
-1 5 6 6 15 2 12 -5 15 -2 10 10 -6 15 -4 15 11 3 9 -8 14 -9 10 -2 -4 6 0 18
8 25 9 7 27 23 40 36 26 24 41 29 29 10 -4 -7 -3 -8 4 -4 6 4 9 12 7 19 -3 7
11 19 30 28 29 14 44 11 33 -4 -2 -2 3 -11 11 -20 7 -9 11 -24 7 -32 -3 -8 -1
-15 5 -15 5 0 14 -12 20 -27 15 -40 23 -89 13 -80 -4 4 -21 -20 -37 -54 -23
-49 -27 -66 -19 -83 10 -19 11 -17 11 14 1 26 4 31 11 20 7 -11 10 -6 10 20 0
26 3 31 10 20 8 -12 10 -11 10 8 0 12 5 22 10 22 6 0 10 10 10 23 0 18 2 19
10 7 7 -11 10 -3 10 30 0 33 -3 41 -10 30 -7 -11 -10 -6 -10 20 0 26 -3 31
-10 20 -7 -11 -10 -3 -11 30 0 34 -2 40 -9 25 -7 -16 -9 -12 -9 18 -1 48 -24
75 -46 54 -8 -8 -11 -17 -8 -21 4 -3 -6 -6 -21 -6 -19 0 -29 -6 -33 -20 -3
-11 -9 -17 -14 -14 -5 3 -9 -2 -9 -11 0 -10 -7 -15 -17 -13 -24 4 -167 -138
-159 -158 3 -8 1 -14 -5 -14 -18 0 -41 -30 -35 -45 3 -9 -1 -15 -10 -15 -8 0
-17 -13 -20 -30 -4 -16 -10 -27 -15 -24 -5 3 -9 -4 -9 -15 0 -12 -4 -21 -10
-21 -5 0 -10 -8 -10 -18 0 -10 -9 -24 -20 -32 -11 -8 -20 -22 -20 -32 0 -10
-4 -18 -10 -18 -5 0 -10 -15 -10 -32 0 -25 -3 -29 -10 -18 -7 11 -10 3 -11
-30 0 -34 -2 -40 -9 -25 -7 15 -9 9 -9 -25 -1 -33 -4 -41 -11 -30 -7 11 -10
-2 -11 -45 -1 -53 -3 -56 -9 -25 -5 26 -8 8 -10 -65 -2 -73 -5 -91 -10 -65 -5
25 -8 9 -9 -58 -1 -59 -5 -91 -11 -87 -6 3 -10 1 -10 -4 0 -19 -30 -12 -55 14
-18 18 -25 35 -25 65 0 22 5 40 10 40 6 0 10 27 10 60 0 33 4 60 10 60 6 0 10
24 10 53 0 37 3 48 10 37 7 -11 10 -3 10 28 0 26 4 41 10 37 6 -4 10 7 10 24
0 17 5 31 10 31 6 0 10 15 10 33 0 24 3 28 10 17 7 -11 10 -7 10 18 0 17 5 32
10 32 6 0 10 9 10 20 0 11 5 20 10 20 6 0 10 15 10 33 0 24 3 28 10 17 7 -11
10 -7 10 18 0 20 4 31 10 27 6 -3 10 3 10 14 0 12 5 21 10 21 6 0 10 9 10 20
0 11 5 20 11 20 6 0 9 9 6 20 -3 13 0 20 8 20 8 0 12 8 10 20 -2 13 2 20 11
20 8 0 13 4 9 9 -3 5 3 12 12 14 17 4 17 5 0 6 -16 1 -17 3 -3 16 8 8 19 15
24 15 6 0 8 10 4 22 -3 14 -2 19 6 14 8 -5 12 0 12 13 0 12 5 21 10 21 6 0 10
10 10 23 0 18 2 19 10 7 8 -12 10 -11 10 8 0 12 5 22 10 22 6 0 10 9 10 20 0
20 -5 23 -28 13z"/>
<path d="M460 4451 c0 -6 4 -13 10 -16 6 -3 7 1 4 9 -7 18 -14 21 -14 7z"/>
<path d="M5726 4178 c-12 -11 -15 -18 -7 -18 7 0 11 -6 8 -12 -2 -7 3 -18 12
-25 11 -9 12 -12 3 -13 -10 0 -10 -3 0 -14 7 -8 17 -11 22 -8 5 3 6 0 2 -6 -7
-12 12 -92 24 -102 6 -4 22 -41 21 -47 0 -2 7 -22 15 -45 9 -24 17 -50 19 -58
17 -64 22 -90 17 -94 -3 -4 0 -6 6 -6 7 0 12 -7 12 -16 0 -9 -5 -13 -12 -9 -7
4 -6 1 2 -7 8 -7 16 -18 17 -25 22 -113 53 -301 56 -338 1 -16 7 -33 12 -37 6
-5 6 -8 -1 -8 -7 0 -8 -19 -2 -62 4 -34 6 -70 2 -80 -3 -11 -1 -24 4 -31 6 -7
12 -28 15 -47 2 -19 4 37 4 125 1 93 -2 150 -7 135 -5 -17 -9 3 -10 65 -1 62
-5 82 -10 65 -6 -18 -8 -4 -9 48 -1 41 -5 72 -11 72 -5 0 -10 24 -11 53 0 38
-3 47 -9 32 -6 -14 -9 -3 -9 40 -1 43 -4 56 -11 45 -7 -11 -10 -3 -10 28 0 26
-4 41 -10 37 -6 -4 -10 10 -10 34 0 23 -4 41 -9 41 -5 0 -8 12 -6 26 1 14 -3
28 -9 30 -7 3 -11 18 -10 35 2 24 -1 28 -11 19 -11 -9 -13 -7 -9 14 2 14 0 26
-6 26 -5 0 -10 14 -10 30 0 17 -4 30 -10 30 -5 0 -10 9 -10 20 0 11 -4 20 -9
20 -6 0 -11 13 -13 28 -3 28 -3 28 -22 10z"/>
<path d="M4920 4066 c0 -20 5 -36 10 -36 6 0 10 -9 10 -20 0 -11 5 -20 11 -20
6 0 8 -7 5 -15 -3 -9 1 -18 8 -21 8 -3 13 -14 11 -25 -2 -11 2 -19 10 -19 8 0
12 -8 10 -20 -3 -13 2 -20 13 -21 14 0 13 -2 -3 -9 -11 -5 -14 -9 -7 -9 7 -1
12 -16 12 -41 0 -22 5 -40 10 -40 6 0 10 -19 9 -42 0 -33 -2 -38 -9 -23 -6 13
-9 -7 -9 -62 -1 -46 -5 -83 -10 -83 -6 0 -8 -9 -6 -20 2 -13 -2 -20 -11 -20
-8 0 -13 -4 -9 -9 3 -6 -1 -15 -8 -22 -7 -7 -11 -24 -9 -37 3 -17 1 -23 -7
-18 -7 5 -11 -2 -11 -18 0 -14 5 -28 12 -32 6 -4 8 -3 5 3 -10 16 16 60 33 56
13 -4 13 -3 0 7 -11 9 -12 13 -2 17 6 2 10 8 7 13 -3 5 2 16 11 24 8 9 13 16
10 16 -4 0 0 15 7 33 28 69 29 274 1 319 -5 7 -10 21 -11 32 -3 16 -1 17 14 5
16 -13 17 -12 4 4 -8 10 -20 16 -28 13 -8 -3 -12 -2 -8 3 8 13 -5 42 -16 35
-5 -3 -9 -2 -8 3 4 24 -2 43 -13 37 -7 -4 -8 -3 -4 5 4 6 0 23 -9 37 -9 13
-13 29 -10 34 3 5 1 11 -5 15 -6 4 -10 -8 -10 -29z"/>
<path d="M1078 4035 c-6 -13 -16 -21 -22 -18 -6 4 -5 -1 3 -10 12 -15 11 -17
-5 -17 -17 0 -17 -1 2 -15 18 -15 18 -15 0 -8 -13 4 -17 3 -12 -5 7 -11 -11
-51 -29 -64 -6 -5 -4 -8 5 -8 13 0 13 -1 0 -10 -8 -5 -15 -15 -16 -22 -3 -39
-4 -43 -12 -31 -4 6 -7 -29 -7 -78 0 -53 -4 -89 -10 -89 -6 0 -5 -3 1 -8 6 -4
10 -15 8 -26 -1 -10 2 -30 8 -45 5 -14 12 -36 14 -49 7 -38 38 -102 49 -102 5
0 5 -4 -2 -8 -9 -6 -7 -11 7 -20 18 -11 20 -9 20 19 0 17 -4 28 -10 24 -5 -3
-10 3 -10 14 0 12 -4 21 -9 21 -4 0 -14 27 -20 60 -7 33 -15 60 -19 60 -11 0
-3 181 9 212 6 15 9 34 5 43 -3 9 0 15 8 15 8 0 13 8 12 17 -2 10 3 24 11 31
7 8 11 18 8 23 -4 5 -1 9 4 9 6 0 11 17 11 38 0 27 3 33 10 22 7 -11 10 -7 10
18 0 38 -6 41 -22 7z"/>
<path d="M421 3584 c0 -11 3 -14 6 -6 3 7 2 16 -1 19 -3 4 -6 -2 -5 -13z"/>
<path d="M1084 3386 c-4 -18 2 -35 21 -60 16 -21 24 -40 19 -48 -5 -8 -1 -8
11 2 10 8 16 10 12 3 -4 -6 -3 -14 3 -18 6 -4 8 -9 6 -13 -2 -4 2 -13 10 -20
8 -7 14 -10 14 -7 0 4 7 -1 16 -9 8 -9 25 -18 37 -20 21 -4 110 -24 132 -29
12 -3 61 -36 58 -40 -6 -6 10 -47 19 -47 5 0 6 -4 3 -10 -3 -5 1 -10 9 -10 9
0 25 -9 36 -20 12 -12 25 -18 30 -15 6 4 10 0 10 -8 0 -8 10 -19 23 -26 12 -6
15 -10 6 -7 -9 2 -16 -2 -16 -10 0 -7 4 -11 8 -9 9 6 87 -38 117 -65 12 -11
22 -18 22 -15 0 3 18 -6 41 -21 22 -14 43 -23 46 -20 3 3 14 -5 24 -18 13 -16
27 -23 44 -22 13 2 22 0 19 -5 -4 -7 49 -42 58 -39 6 2 43 -14 48 -20 6 -8
198 -70 217 -70 8 0 11 -5 7 -12 -5 -7 -2 -9 9 -5 9 3 18 1 21 -6 3 -9 5 -9 5
1 1 9 7 8 26 -4 14 -9 36 -14 50 -12 13 3 22 2 20 -2 -7 -11 63 -23 77 -14 7
4 8 3 4 -4 -10 -16 56 -26 102 -16 35 8 33 9 -28 12 -44 2 -60 6 -50 12 10 7
-2 10 -40 10 -39 0 -51 3 -40 10 11 7 -1 10 -40 11 -43 1 -49 3 -30 9 20 6 16
8 -25 10 -38 1 -45 4 -30 10 15 6 7 9 -30 9 -36 1 -46 4 -35 11 11 7 3 10 -30
10 -33 0 -41 3 -30 10 11 7 7 10 -17 10 -18 0 -33 5 -33 10 0 6 -17 10 -37 11
-31 0 -34 2 -18 9 17 7 14 9 -13 9 -19 1 -31 5 -27 11 3 6 -3 10 -14 10 -12 0
-21 5 -21 11 0 6 -8 9 -18 7 -10 -3 -23 1 -30 9 -7 7 -17 11 -23 8 -5 -4 -9
-1 -9 4 0 6 -9 11 -20 11 -11 0 -20 7 -20 15 0 9 -6 12 -15 9 -9 -4 -23 3 -34
15 -10 11 -28 21 -40 21 -12 0 -19 4 -16 10 3 6 -3 10 -15 10 -12 0 -18 5 -15
10 3 6 -4 10 -17 10 -18 0 -20 2 -8 10 12 7 8 10 -14 10 -16 0 -27 3 -23 6 8
8 -79 94 -96 94 -7 0 -19 9 -27 19 -7 11 -17 18 -22 15 -4 -3 -8 7 -8 21 0 15
-4 24 -10 20 -5 -3 -10 1 -10 10 0 9 -4 13 -10 10 -5 -3 -10 2 -10 11 0 10 -3
15 -6 11 -8 -8 -33 16 -27 26 2 4 -28 7 -66 7 -41 0 -71 4 -71 10 0 6 -7 10
-15 10 -19 0 -65 44 -65 62 0 8 -9 20 -20 28 -11 8 -20 23 -20 33 0 15 -3 17
-13 8 -11 -8 -13 -5 -9 19 5 36 -5 40 -14 6z m269 -193 c-7 -2 -19 -2 -25 0
-7 3 -2 5 12 5 14 0 19 -2 13 -5z"/>
<path d="M4920 3393 c0 -13 -4 -23 -10 -23 -5 0 -10 -8 -10 -18 0 -10 -9 -24
-20 -32 -11 -8 -20 -20 -20 -28 0 -18 -46 -62 -65 -62 -8 0 -15 -4 -15 -10 0
-6 -32 -11 -72 -11 -55 -1 -66 -3 -43 -9 l30 -8 -28 -1 c-32 -1 -57 -22 -57
-47 0 -10 -3 -15 -6 -11 -4 3 -13 0 -20 -8 -8 -7 -14 -19 -14 -26 0 -7 -3 -9
-6 -6 -4 3 -19 -7 -34 -23 -16 -17 -33 -30 -40 -30 -6 0 -29 -18 -50 -40 -21
-22 -47 -40 -57 -40 -15 0 -16 -2 -3 -10 12 -8 10 -10 -8 -10 -13 0 -20 -4
-17 -10 3 -5 -3 -10 -15 -10 -12 0 -18 -4 -15 -10 3 -5 -1 -10 -9 -10 -9 0
-16 -4 -16 -10 0 -5 -9 -10 -20 -10 -11 0 -20 -5 -20 -11 0 -5 -4 -8 -9 -4 -5
3 -15 -1 -23 -8 -7 -8 -21 -13 -31 -11 -9 1 -17 -4 -17 -11 0 -8 -8 -12 -20
-10 -12 2 -20 -2 -20 -10 0 -9 -7 -11 -22 -7 -14 3 -19 2 -14 -6 5 -8 -2 -12
-19 -12 -15 0 -24 -4 -20 -10 4 -6 -5 -10 -20 -10 -15 0 -24 -4 -20 -10 4 -6
-7 -10 -27 -10 -25 0 -29 -3 -18 -10 11 -7 2 -10 -33 -10 -30 0 -46 -4 -42
-10 3 -5 -3 -10 -14 -10 -12 0 -21 -4 -21 -10 0 -5 -19 -10 -42 -10 -32 0 -39
-3 -28 -10 11 -7 3 -10 -30 -11 -34 0 -40 -2 -25 -9 14 -6 1 -9 -45 -10 -48
-2 -59 -4 -40 -10 19 -6 13 -8 -30 -9 -39 -1 -51 -4 -40 -11 11 -7 -6 -10 -55
-11 -65 -1 -67 -2 -31 -10 25 -6 60 -6 94 1 30 5 59 7 65 3 5 -3 16 2 23 12 8
10 17 16 20 12 4 -3 22 0 41 8 20 8 49 15 65 15 17 0 31 6 35 16 5 13 7 13 14
2 7 -11 9 -11 9 1 0 11 3 11 17 0 15 -13 15 -12 5 7 -10 20 -9 21 18 18 16 -2
32 1 35 6 3 6 13 10 20 10 26 0 194 84 188 93 -3 6 -1 7 5 3 6 -3 23 -1 39 6
15 6 32 10 37 9 5 -1 6 5 3 13 -4 10 -1 13 8 9 9 -3 18 2 21 12 5 13 9 14 15
3 7 -10 9 -10 9 0 0 6 6 12 13 12 7 0 23 9 34 19 12 11 24 17 27 14 3 -4 6 -1
6 5 0 6 18 21 40 32 22 11 40 25 40 31 0 7 6 6 17 -2 13 -11 15 -11 9 -1 -8
13 35 62 55 62 5 0 9 7 9 15 0 9 8 19 18 22 9 4 32 23 51 42 19 20 30 30 26
22 -5 -9 -4 -12 3 -7 6 3 9 15 7 25 -3 15 6 21 38 30 23 6 58 12 77 13 24 2
34 7 32 17 -2 11 0 12 11 3 11 -10 17 -9 27 3 7 8 17 12 23 8 6 -4 7 -1 2 6
-4 8 1 21 14 32 12 11 21 24 21 30 0 6 5 7 10 4 9 -5 15 18 8 29 -2 2 7 12 19
22 20 17 21 21 8 44 -14 25 -14 25 -15 3z"/>
<path d="M24 2990 c0 -74 1 -105 3 -67 2 37 2 97 0 135 -2 37 -3 6 -3 -68z"/>
<path d="M5965 2868 c-9 -30 -21 -156 -13 -152 11 7 10 -10 -3 -43 -6 -15 -12
-57 -14 -93 -2 -36 -6 -76 -9 -90 -2 -14 -10 -52 -16 -85 -7 -33 -18 -80 -26
-105 -8 -25 -16 -54 -18 -65 -2 -11 -9 -31 -14 -45 -5 -14 -9 -39 -8 -57 0
-17 -2 -29 -6 -26 -7 4 -12 -12 -9 -29 0 -5 -3 -8 -7 -8 -4 0 -9 -8 -10 -17
-4 -38 -15 -69 -52 -145 -11 -23 -20 -47 -20 -54 0 -7 -8 -17 -17 -22 -18 -11
-27 -55 -9 -46 6 3 3 -1 -8 -10 -10 -8 -15 -19 -11 -25 3 -6 1 -11 -4 -11 -6
0 -10 -3 -9 -7 3 -12 -61 -141 -73 -149 -8 -4 -7 -9 1 -14 9 -6 7 -10 -8 -14
-11 -4 -23 -14 -26 -22 -4 -10 -2 -13 7 -8 8 5 7 2 -2 -9 -11 -14 -17 -15 -30
-5 -9 7 -13 8 -9 4 4 -5 3 -15 -4 -23 -9 -11 -7 -12 7 -7 20 8 16 -5 -14 -40
-13 -16 -13 -18 -1 -12 8 4 6 -1 -6 -11 -11 -10 -26 -31 -32 -46 -8 -18 -18
-27 -26 -24 -10 4 -12 0 -9 -14 3 -11 0 -19 -8 -19 -7 0 -9 -3 -6 -6 4 -4 -1
-14 -11 -23 -9 -9 -18 -23 -20 -31 -2 -8 -14 -27 -28 -41 -13 -14 -21 -28 -17
-32 3 -4 -1 -7 -10 -7 -10 0 -17 -6 -17 -12 0 -7 -14 -26 -30 -42 -16 -15 -39
-44 -52 -62 -13 -19 -28 -32 -35 -30 -8 3 -10 -1 -6 -11 4 -11 3 -14 -6 -9 -6
4 -10 4 -9 -1 3 -11 -63 -79 -74 -75 -4 1 -8 -3 -8 -10 0 -6 -26 -36 -57 -65
-45 -41 -55 -55 -45 -65 9 -9 12 -8 12 6 0 10 4 14 12 10 8 -5 9 -2 5 9 -3 10
-2 17 3 17 5 0 11 -8 13 -18 3 -11 5 -9 6 8 1 20 3 22 11 10 8 -12 10 -10 11
10 0 14 3 20 6 13 3 -8 12 -5 27 10 15 15 19 24 12 29 -6 4 0 8 14 8 20 0 22
2 10 10 -12 8 -10 10 10 10 20 0 22 2 10 10 -11 7 -11 10 -2 10 7 0 10 4 7 10
-3 5 1 10 10 10 9 0 13 5 10 10 -3 6 1 10 9 10 8 0 17 9 21 19 3 11 15 23 26
26 10 4 19 13 19 21 0 8 5 12 10 9 6 -3 10 1 10 10 0 9 5 13 10 10 6 -3 10 1
10 10 0 9 18 34 40 55 22 21 40 44 40 50 0 7 14 25 30 40 17 15 30 34 30 42 0
7 9 20 20 28 11 8 20 23 20 33 0 10 4 16 9 13 5 -3 11 8 15 24 3 17 12 30 20
30 8 0 13 8 12 17 -2 9 8 28 21 41 13 13 21 28 18 33 -4 5 -1 9 4 9 6 0 11 9
11 20 0 11 5 20 10 20 6 0 10 9 10 20 0 11 5 20 10 20 6 0 10 9 10 21 0 11 5
17 10 14 6 -4 10 5 10 20 0 15 4 24 10 20 6 -3 10 3 10 14 0 12 5 21 10 21 6
0 10 9 10 20 0 11 5 20 10 20 6 0 10 9 10 20 0 11 5 20 10 20 6 0 10 15 10 33
0 25 3 29 11 17 8 -12 9 -7 6 18 -2 22 1 32 10 32 7 0 13 9 13 20 0 11 5 20
10 20 6 0 10 11 10 25 0 14 5 25 11 25 6 0 9 9 6 19 -3 11 1 28 7 38 7 10 11
28 10 41 -1 12 3 22 7 22 5 0 9 14 9 30 0 18 5 30 13 30 9 0 11 12 9 41 -3 29
-1 40 7 35 8 -5 11 9 11 46 0 38 3 49 10 38 7 -11 10 0 10 38 0 28 5 52 10 52
6 0 10 26 11 58 0 41 3 51 9 37 6 -13 9 12 10 75 1 64 5 87 10 70 5 -15 8 26
9 108 1 121 -3 153 -14 120z m-230 -1048 c-3 -5 -12 -10 -18 -10 -7 0 -6 4 3
10 19 12 23 12 15 0z"/>
<path d="M637 2770 c-18 -18 -27 -40 -32 -75 -3 -27 -10 -77 -16 -110 -14 -89
-17 -155 -7 -155 5 0 7 -3 5 -8 -3 -4 -1 -32 5 -61 11 -62 3 -125 -14 -115 -7
4 -8 3 -4 -5 4 -6 11 -9 16 -6 10 6 37 -71 46 -130 3 -22 11 -43 18 -47 7 -5
6 -8 -4 -8 -9 0 -11 -3 -5 -8 6 -4 12 -18 13 -32 2 -14 7 -29 12 -35 4 -5 10
-23 14 -39 4 -15 14 -35 21 -43 8 -8 15 -23 15 -34 0 -11 4 -17 10 -14 6 3 7
-1 4 -10 -4 -9 1 -22 12 -30 17 -13 17 -16 4 -25 -12 -8 -11 -10 7 -10 17 0
21 -4 17 -17 -5 -15 -4 -16 5 -3 14 19 14 50 1 50 -5 0 -10 9 -10 20 0 11 -4
20 -10 20 -5 0 -10 9 -10 20 0 11 -4 20 -9 20 -5 0 -12 16 -15 35 -4 19 -11
35 -16 35 -6 0 -10 14 -10 30 0 17 -4 30 -10 30 -5 0 -10 14 -10 30 0 17 -4
30 -10 30 -5 0 -10 26 -11 58 0 41 -3 51 -9 37 -6 -14 -9 -1 -10 45 -2 52 -4
59 -10 35 -5 -20 -9 8 -10 85 -2 87 -5 104 -10 70 -5 -31 -7 -10 -7 70 0 80 2
101 7 70 5 -34 7 -18 9 65 1 75 4 105 11 95 8 -12 10 -9 10 13 0 31 30 71 38
49 2 -6 15 -12 28 -12 14 0 22 -4 19 -10 -4 -6 6 -10 22 -10 22 0 25 -2 13
-10 -11 -7 -7 -10 18 -10 20 0 32 4 30 11 -2 6 -8 11 -13 11 -6 0 -27 9 -48
19 -21 11 -42 17 -47 14 -6 -3 -10 0 -10 9 0 8 6 16 13 19 6 2 0 4 -14 3 -14
0 -37 -12 -52 -26z"/>
<path d="M5345 2790 c-3 -5 -12 -7 -20 -3 -8 3 -15 0 -15 -6 0 -6 -12 -12 -27
-12 -17 -1 -21 -3 -11 -6 12 -3 -4 -16 -49 -39 -52 -28 -68 -33 -75 -22 -6 9
-7 5 -3 -11 5 -16 4 -21 -4 -17 -6 4 -11 1 -11 -7 0 -8 -13 -20 -30 -27 -16
-7 -30 -16 -30 -21 0 -5 -6 -9 -13 -9 -8 0 -22 -9 -32 -20 -14 -16 -21 -18
-28 -8 -6 9 -7 5 -4 -10 5 -20 3 -22 -11 -10 -12 10 -14 10 -8 0 5 -8 -2 -14
-23 -18 -17 -4 -31 -12 -31 -18 0 -6 -5 -4 -10 4 -8 13 -10 13 -10 -2 0 -11
-11 -20 -27 -24 -31 -8 -75 -38 -67 -46 2 -3 -7 -4 -21 -2 -17 1 -25 -2 -22
-9 2 -7 -5 -13 -18 -13 -27 -2 -125 -46 -125 -56 0 -5 -9 -8 -20 -8 -11 0 -23
-7 -26 -15 -4 -8 -10 -13 -14 -10 -5 3 -24 -1 -42 -9 -50 -22 -72 -29 -81 -27
-5 1 -5 -4 -1 -10 5 -9 2 -10 -10 -6 -10 4 -15 3 -11 -3 3 -6 -5 -10 -19 -10
-14 0 -26 -4 -26 -10 0 -5 -3 -9 -7 -8 -15 4 -78 -15 -84 -25 -4 -5 -19 -9
-33 -9 -15 0 -29 -4 -32 -9 -3 -5 -14 -9 -25 -9 -11 0 -17 5 -14 10 3 6 1 10
-4 10 -6 0 -11 -4 -11 -9 0 -8 -12 -14 -75 -39 -5 -2 -3 1 5 7 20 14 4 14 -21
0 -22 -11 -97 -27 -169 -35 -25 -2 -65 -9 -90 -14 -42 -8 -142 -20 -235 -26
-83 -7 -544 -16 -635 -14 -443 13 -526 17 -640 29 -58 7 -135 15 -173 18 -37
3 -70 10 -73 14 -3 5 -17 9 -32 9 -15 0 -48 7 -74 15 -30 9 -48 10 -48 4 0 -6
-7 -3 -17 6 -10 11 -27 15 -45 13 -23 -4 -28 -1 -23 11 3 8 3 13 0 9 -7 -6
-124 23 -173 44 -18 8 -29 18 -25 23 5 4 1 6 -8 2 -10 -3 -33 3 -53 14 -20 10
-43 19 -51 19 -8 0 -15 5 -15 11 0 5 -4 8 -9 4 -5 -3 -12 -1 -16 5 -4 6 -10 8
-15 5 -5 -3 -11 -1 -15 5 -4 6 -11 8 -16 5 -5 -4 -9 -3 -9 2 0 4 -23 19 -50
32 -28 14 -50 28 -50 32 0 12 -49 17 -54 5 -2 -6 -5 -3 -5 8 -1 13 -6 17 -20
13 -15 -3 -18 -1 -14 11 4 10 2 13 -5 8 -7 -4 -12 -2 -12 5 0 8 -5 7 -17 -2
-10 -9 -14 -9 -10 -2 5 7 -1 16 -12 22 -11 6 -25 17 -33 24 -11 10 -16 9 -30
-5 -17 -17 -17 -18 2 -18 11 0 20 -4 20 -10 0 -5 9 -10 20 -10 11 0 20 -4 20
-10 0 -5 9 -10 20 -10 11 0 20 -4 20 -10 0 -5 9 -10 20 -10 11 0 20 -4 20 -10
0 -5 9 -10 20 -10 11 0 20 -4 20 -10 0 -5 9 -10 21 -10 11 0 17 -4 14 -10 -4
-6 7 -10 27 -10 25 0 29 -3 18 -10 -12 -8 -9 -10 13 -10 16 0 26 -4 22 -10 -3
-6 3 -10 14 -10 12 0 21 -4 21 -10 0 -5 9 -10 20 -10 11 0 20 -6 20 -12 0 -9
4 -8 10 2 6 10 10 11 10 3 0 -7 9 -13 20 -13 11 0 20 -4 20 -9 0 -6 9 -8 20
-6 12 2 20 -2 20 -10 0 -9 8 -12 24 -9 14 2 28 0 31 -6 3 -5 18 -10 33 -10 21
0 24 -2 12 -10 -11 -7 -7 -10 18 -10 17 0 32 -4 32 -10 0 -5 14 -10 30 -10 17
0 30 -4 30 -10 0 -5 24 -10 53 -10 37 0 48 -3 37 -10 -11 -7 1 -10 40 -11 43
-1 49 -3 30 -9 -18 -6 -6 -9 45 -10 55 -2 63 -4 40 -10 -21 -5 0 -8 70 -10 81
-2 91 -4 55 -10 -32 -5 -4 -8 95 -10 107 -3 127 -5 85 -10 -32 -4 65 -8 230
-11 l285 -3 -185 -6 c-102 -3 58 -6 355 -6 297 0 457 3 355 6 l-185 6 275 3
c158 3 254 7 225 11 -38 5 -19 8 80 10 91 2 118 5 90 10 -31 6 -19 8 55 10 67
2 86 5 65 10 -22 6 -10 8 50 10 60 2 72 4 50 10 -25 6 -19 8 30 10 44 1 55 4
40 10 -14 6 -3 9 40 9 43 1 56 4 45 11 -11 7 -3 10 28 10 26 0 41 4 37 10 -4
6 7 10 27 10 26 0 30 3 18 11 -11 8 -7 9 17 5 20 -3 37 0 45 8 8 7 21 12 31
10 9 -1 17 4 17 11 0 8 8 12 20 10 12 -2 20 2 20 9 0 8 10 11 30 8 18 -3 30 0
30 7 0 6 9 11 21 11 11 0 17 5 14 10 -4 6 5 10 20 10 15 0 24 4 20 10 -4 6 5
10 20 10 15 0 24 4 20 10 -4 6 5 10 20 10 15 0 24 4 20 10 -3 6 3 10 14 10 12
0 21 5 21 10 0 6 9 10 20 10 11 0 20 5 20 10 0 6 9 10 20 10 11 0 20 5 20 10
0 6 9 10 20 10 11 0 20 5 20 10 0 6 10 10 23 10 18 0 19 2 7 10 -11 7 -7 10
18 10 20 0 31 4 27 10 -3 6 3 10 14 10 12 0 21 5 21 10 0 6 8 10 18 10 10 0
24 9 31 19 8 11 22 18 33 16 11 -2 18 2 18 11 0 8 5 12 10 9 6 -3 10 1 10 9 0
10 6 13 15 10 9 -4 27 6 44 25 16 17 37 31 48 31 15 0 16 2 3 10 -12 8 -10 10
8 10 13 0 20 4 17 10 -4 6 6 10 22 10 22 0 25 2 13 10 -12 8 -9 10 13 10 15 0
27 5 27 10 0 6 9 10 19 10 11 0 21 6 23 12 8 22 38 -18 38 -49 0 -22 2 -25 10
-13 7 10 10 -13 11 -75 1 -70 3 -81 9 -50 4 25 7 -13 7 -100 0 -90 -3 -124 -7
-95 -5 35 -8 20 -10 -65 -2 -78 -5 -100 -10 -75 -6 28 -8 20 -9 -40 -1 -52 -4
-70 -11 -60 -7 11 -10 4 -10 -27 0 -24 -4 -43 -10 -43 -5 0 -10 -16 -10 -36 0
-21 -4 -33 -10 -29 -6 4 -10 -7 -10 -24 0 -17 -4 -31 -10 -31 -5 0 -10 -11
-10 -25 0 -14 -4 -25 -9 -25 -8 0 -25 -56 -22 -72 0 -5 -5 -8 -13 -8 -9 0 -13
-7 -11 -20 2 -11 0 -20 -6 -20 -5 0 -9 -8 -9 -18 0 -10 -9 -24 -20 -32 -11 -8
-20 -25 -20 -38 0 -13 -4 -20 -10 -17 -5 3 -10 -3 -10 -15 0 -12 -4 -18 -10
-15 -5 3 -10 -1 -10 -10 0 -9 -4 -13 -10 -10 -6 4 -10 -5 -10 -20 0 -15 -4
-24 -10 -20 -6 3 -10 -4 -10 -17 0 -18 -2 -20 -10 -8 -8 12 -10 11 -10 -5 0
-11 -9 -27 -20 -35 -11 -8 -20 -21 -20 -30 0 -9 -9 -22 -19 -30 -11 -7 -18
-17 -15 -22 3 -4 -2 -8 -11 -8 -9 0 -13 -4 -10 -10 3 -5 -1 -10 -9 -10 -9 0
-16 -8 -16 -19 0 -10 -7 -24 -15 -31 -18 -15 -20 -35 -3 -24 7 5 8 3 3 -5 -5
-9 -11 -9 -17 -3 -7 7 -43 -22 -109 -89 -54 -54 -106 -99 -116 -99 -15 0 -16
-2 -3 -10 13 -8 12 -10 -3 -10 -20 0 -69 -44 -60 -54 4 -3 -1 -6 -11 -6 -9 0
-15 -4 -11 -10 5 -8 -88 -27 -107 -22 -5 1 -8 -3 -8 -9 0 -5 -4 -7 -10 -4 -5
3 -10 2 -10 -3 0 -5 -21 -7 -47 -6 -35 3 -43 1 -28 -5 15 -7 5 -10 -40 -10
-43 -1 -56 -4 -45 -11 12 -8 9 -10 -12 -10 -34 0 -44 3 -40 13 1 4 -7 7 -18 7
-11 0 -20 5 -20 11 0 6 -9 9 -20 6 -14 -4 -20 0 -21 11 0 14 -2 13 -9 -3 -7
-16 -9 -17 -9 -3 -1 11 -8 16 -21 13 -11 -2 -20 0 -20 6 0 5 -9 9 -20 9 -11 0
-20 5 -20 10 0 6 -16 10 -36 10 -21 0 -33 4 -29 10 4 6 -9 10 -32 10 -28 0
-34 3 -23 10 11 7 5 10 -22 10 -21 0 -38 -4 -38 -10 0 -5 9 -10 20 -10 10 0
24 -8 29 -18 8 -13 10 -14 11 -2 0 13 1 13 10 0 9 -13 10 -13 10 0 0 13 2 13
9 1 5 -8 17 -15 28 -16 10 0 33 -8 51 -17 17 -9 32 -12 32 -7 0 6 7 3 16 -5 8
-9 21 -13 27 -9 7 4 7 1 -1 -9 -11 -14 -10 -16 7 -11 12 3 21 1 21 -4 0 -5 12
-10 26 -11 14 -1 32 -9 40 -17 18 -17 51 -19 89 -5 14 5 36 12 48 14 12 3 36
9 52 13 17 5 37 9 45 8 8 0 18 4 22 9 3 5 24 10 46 11 22 1 48 7 56 14 9 8 16
10 16 7 0 -4 11 4 25 18 14 14 25 30 25 35 0 6 7 7 17 4 9 -4 14 -2 10 3 -3 6
7 18 24 28 16 9 29 21 29 26 0 5 6 7 13 4 8 -3 18 6 25 21 7 14 19 28 27 31 8
4 12 11 9 16 -4 6 2 6 14 -1 17 -9 19 -8 15 9 -3 12 0 20 8 20 7 0 9 3 6 7 -4
3 7 16 23 28 16 12 26 26 22 30 -4 5 -2 5 5 1 7 -4 19 5 30 19 10 15 28 38 41
52 12 14 22 30 22 35 0 5 5 6 12 2 6 -4 8 -3 5 3 -4 6 0 13 8 17 8 3 15 12 15
19 0 18 36 51 48 43 5 -3 9 1 9 8 0 8 -7 12 -16 9 -10 -3 -8 3 7 15 12 11 22
23 22 26 0 19 52 86 62 80 6 -4 8 -3 4 4 -8 13 13 62 35 82 9 8 19 24 21 35 2
11 10 19 17 17 9 -2 9 3 0 19 -6 13 -7 19 -1 15 6 -3 13 3 17 14 3 11 10 20
14 20 4 0 7 9 8 19 2 27 39 106 45 95 3 -5 3 -3 1 5 -3 13 8 59 24 101 4 8 5
21 4 28 -1 6 4 12 11 13 7 0 4 4 -7 9 -15 6 -16 9 -4 9 9 1 16 7 17 14 0 6 3
21 6 32 2 11 5 29 6 40 l1 20 9 -20 c8 -19 4 62 -5 108 -2 9 1 15 5 12 16 -10
22 62 17 177 -6 135 -15 198 -29 216 -6 7 -8 15 -5 19 4 3 -4 16 -18 28 -13
13 -21 26 -18 29 4 3 1 6 -5 6 -6 0 -13 -4 -17 -10z m-2712 -687 c-7 -2 -19
-2 -25 0 -7 3 -2 5 12 5 14 0 19 -2 13 -5z"/>
<path d="M5421 2764 c0 -11 3 -14 6 -6 3 7 2 16 -1 19 -3 4 -6 -2 -5 -13z"/>
<path d="M806 2705 c-18 -14 -18 -15 -2 -15 10 0 35 -18 56 -40 21 -22 46 -40
54 -40 9 0 16 -5 16 -11 0 -5 5 -7 10 -4 6 3 10 -1 10 -9 0 -9 7 -13 20 -11
13 3 20 -2 20 -12 0 -10 6 -13 16 -9 16 6 48 -17 37 -28 -4 -3 7 -6 24 -6 23
0 32 5 36 23 5 20 5 20 -7 4 -13 -16 -15 -16 -40 4 -14 11 -26 28 -26 37 0 14
-2 15 -9 3 -8 -12 -12 -12 -25 -2 -8 7 -20 10 -26 6 -7 -4 -10 0 -8 11 2 13
-2 18 -14 16 -9 -1 -22 7 -28 18 -6 11 -15 18 -21 15 -5 -4 -9 -1 -9 4 0 6 -7
11 -17 11 -9 0 -14 3 -10 6 5 6 -23 44 -33 44 -3 0 -14 -7 -24 -15z"/>
<path d="M2485 2581 c-24 -6 -14 -9 45 -13 310 -26 380 -31 418 -31 23 0 42
-4 42 -9 0 -5 4 -6 10 -3 5 3 96 12 202 20 106 8 203 17 216 19 13 3 43 6 67
7 82 5 34 19 -58 18 -64 -1 -83 -4 -62 -9 18 -5 -35 -9 -135 -10 -100 -1 -153
-5 -135 -10 19 -5 -13 -8 -85 -8 -75 1 -103 3 -80 8 22 5 -29 8 -130 10 -100
1 -155 5 -140 10 32 10 -132 11 -175 1z"/>
<path d="M5320 1861 c0 -6 4 -13 10 -16 6 -3 7 1 4 9 -7 18 -14 21 -14 7z"/>
<path d="M725 1790 c-3 -6 1 -7 9 -4 18 7 21 14 7 14 -6 0 -13 -4 -16 -10z"/>
<path d="M790 1740 c0 -11 7 -23 16 -27 12 -4 13 -8 3 -13 -9 -6 -4 -18 17
-47 16 -21 36 -51 44 -68 17 -34 19 -36 65 -89 19 -21 32 -43 28 -49 -3 -6 -1
-7 5 -3 7 4 12 2 12 -5 0 -6 10 -20 22 -30 11 -11 17 -19 13 -19 -5 0 10 -18
33 -40 22 -22 36 -40 32 -40 -5 0 -7 -7 -3 -16 5 -13 7 -13 14 -2 5 7 9 8 9 2
0 -6 11 -17 25 -24 14 -7 25 -19 25 -26 0 -6 7 -15 16 -18 8 -3 12 -10 9 -16
-3 -5 0 -10 7 -10 7 -1 31 -19 53 -40 22 -22 46 -38 53 -35 7 3 11 1 8 -3 -3
-5 4 -14 14 -22 10 -8 17 -17 14 -22 -3 -4 2 -8 10 -8 9 0 16 -4 16 -10 0 -5
5 -10 11 -10 6 0 25 -10 42 -22 16 -12 44 -23 61 -25 17 -2 33 -8 34 -13 2 -6
8 -7 13 -4 12 7 101 -13 147 -32 42 -18 66 -18 102 1 21 11 30 23 29 38 -1 14
-3 16 -6 6 -3 -11 -13 -14 -36 -12 -22 3 -28 1 -19 -5 11 -7 11 -10 -3 -15 -9
-4 -18 -1 -21 8 -4 11 -22 15 -63 16 -42 0 -51 3 -36 10 15 6 7 8 -27 5 -39
-2 -48 0 -48 13 0 14 -2 14 -10 1 -5 -8 -10 -10 -10 -4 0 7 -15 11 -39 10 -28
-2 -43 3 -52 16 -8 10 -19 18 -27 18 -17 0 -43 25 -35 34 4 3 -2 6 -12 6 -10
0 -16 3 -12 6 8 8 -18 34 -33 34 -6 0 -8 5 -5 10 4 6 -5 10 -21 10 -15 0 -25
3 -21 6 7 7 -149 164 -163 164 -6 0 -10 7 -10 16 0 8 -4 12 -10 9 -5 -3 -10 3
-10 14 0 12 -5 21 -11 21 -5 0 -7 5 -4 10 3 6 -1 10 -10 10 -9 0 -13 5 -10 10
3 6 -1 10 -10 10 -9 0 -13 5 -10 10 3 6 1 10 -4 10 -6 0 -11 7 -11 15 0 17
-43 65 -59 65 -5 0 -7 10 -4 23 4 18 3 19 -6 7 -9 -12 -11 -11 -11 8 0 12 -4
22 -10 22 -5 0 -10 9 -10 21 0 11 -4 17 -10 14 -5 -3 -10 1 -10 10 0 9 -4 13
-10 10 -6 -4 -10 6 -10 22 0 22 -2 25 -10 13 -8 -12 -10 -9 -10 13 0 15 -4 27
-10 27 -5 0 -10 9 -10 20 0 11 -4 20 -10 20 -5 0 -10 -9 -10 -20z"/>
<path d="M886 1517 c3 -10 9 -15 12 -12 3 3 0 11 -7 18 -10 9 -11 8 -5 -6z"/>
<path d="M5090 1480 c0 -5 5 -10 11 -10 5 0 7 5 4 10 -3 6 -8 10 -11 10 -2 0
-4 -4 -4 -10z"/>
<path d="M1130 1231 c0 -10 19 -25 25 -20 1 2 -3 10 -11 17 -8 7 -14 8 -14 3z"/>
<path d="M2730 1230 c96 -6 89 -6 -85 -9 -117 -3 -175 -7 -150 -11 32 -6 22
-8 -50 -10 -62 -1 -82 -4 -65 -10 18 -6 6 -8 -45 -10 -49 -1 -64 -4 -50 -10
14 -6 3 -9 -40 -10 -46 -2 -54 -4 -35 -10 21 -7 19 -8 -17 -9 -24 -1 -43 -5
-43 -11 0 -5 -13 -10 -30 -10 -16 0 -30 -4 -30 -10 0 -5 -15 -10 -32 -10 -25
0 -29 -3 -18 -10 11 -7 3 -10 -28 -10 -26 0 -41 -4 -37 -10 4 -6 -7 -10 -25
-10 -18 0 -29 -4 -25 -10 4 -6 -5 -10 -19 -10 -14 0 -26 -4 -26 -8 0 -5 -13
-7 -30 -6 -21 1 -30 -3 -30 -13 0 -8 -4 -11 -10 -8 -5 3 -10 -4 -10 -16 0 -17
3 -19 13 -10 8 6 18 7 22 3 5 -4 6 0 3 8 -4 11 3 16 30 18 20 1 38 6 42 11 5
9 60 25 73 23 4 -1 18 3 30 10 12 7 25 13 30 14 4 1 8 2 10 3 1 2 13 4 26 7
14 2 30 9 38 15 7 6 13 9 13 5 0 -4 17 2 38 12 20 11 47 18 59 17 12 -1 20 2
17 7 -3 4 13 8 35 8 23 0 41 4 41 9 0 4 42 14 93 20 50 7 116 17 146 23 60 11
725 15 836 4 188 -17 309 -37 292 -49 -8 -5 -5 -6 9 -3 11 4 39 0 62 -8 23 -8
42 -13 42 -10 0 2 16 -3 37 -11 20 -8 38 -13 41 -10 3 2 11 -3 18 -13 12 -16
13 -16 14 0 0 9 6 19 13 21 6 3 -8 6 -33 6 -33 1 -41 4 -30 11 11 7 3 10 -30
11 -34 0 -40 2 -25 9 15 6 4 9 -40 10 -49 2 -55 4 -30 10 24 6 17 8 -35 10
-49 1 -59 4 -40 10 17 5 -8 9 -75 11 -85 2 -92 3 -50 9 32 4 -28 8 -160 10
-178 3 -195 5 -110 10 55 3 -66 6 -270 6 -203 0 -323 -3 -265 -6z"/>
<path d="M860 985 c0 -5 5 -17 10 -25 5 -8 10 -10 10 -5 0 6 -5 17 -10 25 -5
8 -10 11 -10 5z"/>
<path d="M2860 960 c-8 -5 -35 -10 -60 -10 -26 0 -51 -5 -58 -12 -9 -9 -12 -9
-12 3 -1 10 -3 9 -11 -4 -6 -9 -15 -14 -21 -11 -7 5 -9 2 -6 -8 5 -11 0 -14
-19 -12 -18 2 -23 -1 -19 -12 3 -9 1 -12 -5 -9 -5 4 -16 2 -23 -4 -7 -6 -22
-9 -32 -5 -15 5 -16 4 -5 -4 12 -9 12 -13 -3 -27 -9 -10 -15 -24 -12 -31 3 -8
0 -13 -7 -11 -14 2 -21 -44 -12 -80 3 -15 10 -21 18 -16 8 4 7 1 -2 -10 -11
-14 -11 -17 0 -17 12 0 12 -2 0 -9 -11 -7 -8 -11 10 -17 13 -4 27 -7 31 -6 4
1 5 -5 2 -13 -4 -8 8 -28 28 -47 18 -17 24 -25 14 -17 -18 13 -18 13 -6 -7 8
-14 21 -20 34 -18 12 3 16 2 9 -2 -8 -3 -5 -12 9 -26 16 -16 18 -22 7 -29 -10
-6 -7 -8 8 -6 12 0 19 5 16 11 -3 5 -1 6 5 2 7 -4 12 -14 12 -22 0 -8 5 -12
10 -9 6 3 13 -1 16 -9 7 -19 40 -30 78 -27 15 2 26 -1 23 -6 -3 -5 9 -8 26 -6
98 8 317 7 322 -2 3 -5 3 0 1 13 -3 17 -1 21 7 14 13 -11 41 11 30 22 -4 3 0
6 7 6 7 0 19 8 27 18 8 9 12 12 9 6 -3 -6 1 -11 8 -11 9 0 13 10 11 24 -2 16
2 23 11 19 7 -3 20 7 29 20 11 17 22 24 33 20 16 -6 16 -5 1 7 -24 18 0 39 27
24 17 -9 18 -9 5 6 -7 9 -9 17 -4 17 16 0 53 94 53 134 0 34 -30 95 -52 104
-5 2 -5 9 -1 15 3 7 2 9 -2 4 -5 -4 -19 2 -31 14 -16 15 -31 20 -49 17 -22 -5
-25 -3 -20 16 5 17 4 18 -4 6 -10 -13 -11 -13 -11 0 0 13 -1 13 -11 0 -9 -12
-10 -10 -6 8 4 18 3 21 -7 13 -7 -6 -15 -8 -19 -5 -17 17 -384 30 -407 14z
m265 -20 c-30 -5 -17 -8 55 -9 65 -1 90 -4 80 -11 -11 -7 -7 -10 18 -10 17 0
32 -4 32 -10 0 -5 9 -10 20 -10 11 0 20 -4 20 -10 0 -5 7 -10 16 -10 9 0 28
-13 44 -30 15 -16 30 -26 34 -23 3 3 6 -3 6 -15 0 -11 5 -24 10 -27 6 -3 10
-17 10 -31 0 -14 -4 -22 -10 -19 -5 3 -10 -3 -10 -15 0 -23 -21 -50 -39 -50
-6 0 -8 -6 -5 -14 6 -15 -151 -178 -177 -184 -8 -2 -15 -8 -17 -13 -2 -5 -92
-9 -210 -8 -125 0 -199 4 -187 9 18 8 18 9 2 9 -10 1 -53 37 -96 80 -44 44
-82 77 -85 74 -3 -4 -6 5 -6 18 0 14 -9 31 -20 39 -11 8 -20 22 -20 32 0 10
-4 18 -10 18 -5 0 -10 16 -10 36 0 21 4 33 10 29 6 -3 10 3 10 15 0 24 22 50
42 50 8 0 20 9 28 20 8 11 22 20 32 20 10 0 18 5 18 10 0 6 19 10 43 11 36 1
38 2 17 9 -17 5 5 9 70 10 74 2 86 4 55 10 -24 4 22 7 115 7 93 0 139 -3 115
-7z"/>
<path d="M4990 789 c7 -11 14 -18 17 -15 8 8 -5 36 -17 36 -7 0 -7 -6 0 -21z"/>
<path d="M4965 781 c3 -5 -16 -26 -41 -48 -25 -21 -56 -48 -69 -60 -13 -12
-26 -19 -29 -16 -3 4 -6 -1 -6 -11 0 -9 -4 -14 -10 -11 -5 3 -21 -5 -34 -19
-13 -14 -31 -26 -41 -26 -10 0 -15 -3 -12 -7 11 -10 -55 -53 -82 -53 -19 0
-22 -3 -12 -9 11 -7 9 -10 -8 -16 -12 -3 -31 -16 -43 -28 -11 -12 -18 -15 -14
-7 4 8 1 7 -7 -3 -8 -10 -28 -19 -43 -21 -17 -1 -28 -8 -26 -15 1 -6 -11 -17
-28 -22 -17 -6 -27 -16 -23 -22 3 -6 1 -7 -6 -3 -6 4 -18 2 -26 -4 -8 -6 -19
-9 -25 -5 -5 3 -10 2 -10 -3 0 -7 -84 -55 -100 -57 -3 0 -15 -6 -26 -13 -12
-6 -24 -8 -28 -5 -3 3 -6 0 -6 -8 -1 -10 -5 -8 -16 6 -14 19 -15 19 -12 -4 2
-15 -3 -25 -12 -26 -8 -2 -28 -9 -45 -16 -16 -6 -36 -13 -44 -15 -7 -1 -18 -7
-24 -13 -6 -6 -21 -11 -33 -11 -13 0 -26 -5 -29 -10 -3 -6 -15 -10 -26 -10
-10 0 -19 -3 -19 -7 0 -5 -12 -9 -26 -10 -15 0 -29 -5 -33 -11 -3 -5 -16 -8
-28 -7 -13 1 -23 -4 -23 -10 0 -7 -11 -10 -31 -7 -21 3 -34 -1 -44 -14 -8 -11
-15 -14 -15 -7 0 6 -6 10 -12 8 -38 -9 -57 -18 -53 -24 2 -4 -9 -5 -25 -3 -15
2 -70 -5 -122 -17 -51 -11 -114 -22 -140 -23 -27 -1 -48 -6 -48 -11 0 -6 -29
-8 -71 -5 -75 6 -109 2 -109 -13 0 -5 51 -9 113 -8 72 0 105 3 92 9 -13 6 8 9
65 10 57 1 78 4 65 10 -14 6 1 9 48 9 37 1 67 5 67 11 0 6 24 10 53 10 37 0
48 3 37 10 -11 7 -2 10 33 10 30 0 46 4 42 10 -4 6 8 10 29 10 20 0 36 4 36 9
0 5 18 8 40 7 25 0 40 3 40 11 0 7 11 10 30 8 19 -3 29 0 27 8 -1 7 7 11 21 9
12 -2 22 2 22 7 0 6 11 11 25 11 14 0 25 5 25 10 0 6 9 10 20 10 11 0 20 6 20
13 0 9 10 12 30 9 18 -3 30 0 30 7 0 6 9 11 20 11 11 0 20 5 20 10 0 6 9 10
20 10 11 0 20 5 20 10 0 6 12 10 26 10 14 0 23 4 19 10 -4 6 6 10 22 10 22 0
25 2 13 10 -12 8 -9 10 13 10 16 0 26 4 22 10 -4 6 7 10 27 10 25 0 29 3 18
10 -12 8 -11 10 8 10 12 0 22 5 22 10 0 6 9 10 20 10 11 0 20 5 20 10 0 6 8
10 18 10 10 0 24 9 31 19 8 11 22 18 33 16 10 -2 18 2 18 10 0 7 14 16 30 20
17 4 28 11 24 16 -3 5 3 9 13 9 10 0 25 9 33 20 8 11 21 20 28 20 8 0 27 14
42 30 15 17 33 30 40 30 7 0 25 14 40 30 15 17 36 30 47 30 15 0 16 2 3 10
-12 8 -10 10 8 10 13 0 20 4 17 10 -3 6 1 10 10 10 9 0 13 5 10 10 -3 6 1 10
9 10 8 0 18 9 21 20 3 11 11 20 16 20 15 0 10 17 -7 24 -8 3 -13 2 -9 -3z
m-450 -351 c3 -6 -1 -7 -9 -4 -18 7 -21 14 -7 14 6 0 13 -4 16 -10z"/>
<path d="M1160 710 c0 -5 5 -10 11 -10 5 0 7 5 4 10 -3 6 -8 10 -11 10 -2 0
-4 -4 -4 -10z"/>
<path d="M1810 290 c0 -5 5 -10 11 -10 5 0 7 5 4 10 -3 6 -8 10 -11 10 -2 0
-4 -4 -4 -10z"/>
</g>
</svg>
