<?xml version="1.0" encoding="UTF-8"?>
<svg version="1.1" xmlns="http://www.w3.org/2000/svg" width="310" height="310">
<path d="M0,0 L11,0 L30,2 L49,6 L68,13 L87,23 L100,32 L111,42 L118,48 L125,56 L134,68 L145,87 L153,107 L158,127 L160,143 L160,167 L157,187 L152,206 L144,224 L135,240 L126,252 L115,264 L107,272 L94,282 L79,291 L62,299 L47,304 L27,308 L19,309 L-8,309 L-32,305 L-48,300 L-64,293 L-80,284 L-93,274 L-105,263 L-116,251 L-125,238 L-134,222 L-142,202 L-147,181 L-149,166 L-149,144 L-146,123 L-141,104 L-133,86 L-125,71 L-116,59 L-107,49 L-93,35 L-79,25 L-61,15 L-41,7 L-25,3 L-12,1 Z M5,20 L-11,21 L-25,24 L-53,34 L-70,43 L-80,51 L-90,60 L-101,72 L-111,87 L-120,106 L-124,118 L-126,130 L-124,133 L-122,133 L-118,113 L-110,97 L-103,88 L-94,81 L-91,80 L-89,88 L-89,94 L-96,108 L-97,111 L-97,125 L-90,139 L-87,142 L-78,144 L-72,151 L-61,159 L-45,167 L-26,173 L-15,175 L-4,176 L16,176 L37,173 L53,168 L65,163 L77,156 L88,146 L89,144 L98,142 L104,134 L108,125 L109,120 L109,113 L105,102 L102,96 L100,93 L101,85 L102,80 L108,83 L118,92 L128,110 L131,120 L133,132 L135,134 L136,132 L136,121 L130,103 L119,82 L111,71 L100,59 L93,52 L78,41 L59,32 L29,22 L6,20 Z M-116,166 L-119,182 L-116,199 L-112,211 L-104,226 L-93,240 L-84,249 L-76,255 L-61,259 L-50,254 L-30,248 L-18,246 L29,246 L45,249 L66,256 L70,258 L80,257 L89,254 L100,245 L109,234 L117,223 L124,209 L128,195 L129,189 L129,173 L127,166 L117,172 L106,179 L84,190 L71,195 L53,199 L37,201 L-25,201 L-43,199 L-63,194 L-81,186 L-102,175 L-110,169 Z M5,260 L-11,263 L-16,267 L-16,273 L-7,283 L-5,285 L17,285 L26,276 L28,272 L27,267 L22,263 L6,260 Z " fill="#02C5C0" transform="translate(150,1)"/>
<path d="M0,0 L15,0 L22,4 L23,6 L23,17 L18,22 L15,23 L1,23 L-6,20 L-8,16 L-8,7 L-5,2 Z " fill="#02C5C0" transform="translate(148,38)"/>
</svg>
