<?xml version="1.0" encoding="UTF-8"?>
<svg version="1.1" xmlns="http://www.w3.org/2000/svg" width="310" height="310">
<path d="M0,0 L3,0 L3,1 L18,1 L18,2 L25,2 L25,3 L31,3 L31,4 L36,4 L36,5 L40,5 L40,6 L44,6 L44,7 L47,7 L47,8 L50,8 L50,9 L53,9 L53,10 L56,10 L56,11 L58,11 L58,12 L61,12 L61,13 L63,13 L63,14 L65,14 L65,15 L67,15 L67,16 L70,16 L70,17 L71,17 L71,18 L73,18 L73,19 L75,19 L75,20 L77,20 L77,21 L79,21 L79,22 L81,22 L81,23 L82,23 L82,24 L84,24 L84,25 L86,25 L86,26 L87,26 L87,27 L88,27 L88,28 L90,28 L90,29 L91,29 L91,30 L93,30 L93,31 L94,31 L94,32 L95,32 L95,33 L97,33 L97,34 L98,34 L98,35 L99,35 L99,36 L100,36 L100,37 L101,37 L101,38 L103,38 L103,39 L104,39 L104,40 L105,40 L105,41 L106,41 L106,42 L107,42 L107,43 L108,43 L108,44 L109,44 L109,45 L110,45 L110,46 L111,46 L111,47 L112,47 L112,48 L113,48 L113,49 L114,49 L114,50 L115,50 L115,51 L116,51 L116,52 L117,52 L117,53 L118,53 L118,55 L119,55 L119,56 L120,56 L120,57 L121,57 L121,58 L122,58 L122,59 L123,59 L123,61 L124,61 L124,62 L125,62 L125,63 L126,63 L126,65 L127,65 L127,66 L128,66 L128,67 L129,67 L129,69 L130,69 L130,70 L131,70 L131,72 L132,72 L132,74 L133,74 L133,75 L134,75 L134,77 L135,77 L135,79 L136,79 L136,81 L137,81 L137,82 L138,82 L138,84 L139,84 L139,86 L140,86 L140,88 L141,88 L141,91 L142,91 L142,93 L143,93 L143,95 L144,95 L144,97 L145,97 L145,100 L146,100 L146,102 L147,102 L147,105 L148,105 L148,108 L149,108 L149,111 L150,111 L150,115 L151,115 L151,119 L152,119 L152,124 L153,124 L153,129 L154,129 L154,136 L155,136 L155,147 L156,147 L156,163 L155,163 L155,173 L154,173 L154,180 L153,180 L153,186 L152,186 L152,190 L151,190 L151,194 L150,194 L150,198 L149,198 L149,202 L148,202 L148,205 L147,205 L147,207 L146,207 L146,210 L145,210 L145,212 L144,212 L144,215 L143,215 L143,217 L142,217 L142,219 L141,219 L141,221 L140,221 L140,223 L139,223 L139,225 L138,225 L138,227 L137,227 L137,229 L136,229 L136,231 L135,231 L135,232 L134,232 L134,234 L133,234 L133,236 L132,236 L132,237 L131,237 L131,239 L130,239 L130,241 L129,241 L129,242 L128,242 L128,244 L127,244 L127,245 L126,245 L126,246 L125,246 L125,248 L124,248 L124,249 L123,249 L123,250 L122,250 L122,252 L121,252 L121,253 L120,253 L120,254 L119,254 L119,255 L118,255 L118,256 L117,256 L117,257 L116,257 L116,259 L115,259 L115,260 L114,260 L114,261 L113,261 L113,262 L112,262 L112,263 L111,263 L111,264 L110,264 L110,265 L109,265 L109,266 L107,266 L107,267 L106,267 L106,268 L105,268 L105,269 L104,269 L104,270 L103,270 L103,271 L102,271 L102,272 L101,272 L101,273 L100,273 L100,274 L98,274 L98,275 L97,275 L97,276 L96,276 L96,277 L95,277 L95,278 L93,278 L93,279 L92,279 L92,280 L91,280 L91,281 L89,281 L89,282 L88,282 L88,283 L86,283 L86,284 L85,284 L85,285 L83,285 L83,286 L82,286 L82,287 L80,287 L80,288 L78,288 L78,289 L76,289 L76,290 L74,290 L74,291 L73,291 L73,292 L71,292 L71,293 L69,293 L69,294 L66,294 L66,295 L64,295 L64,296 L62,296 L62,297 L60,297 L60,298 L57,298 L57,299 L55,299 L55,300 L52,300 L52,301 L49,301 L49,302 L46,302 L46,303 L42,303 L42,304 L38,304 L38,305 L33,305 L33,306 L28,306 L28,307 L22,307 L22,308 L12,308 L12,309 L-9,309 L-9,308 L-18,308 L-18,307 L-25,307 L-25,306 L-30,306 L-30,305 L-35,305 L-35,304 L-39,304 L-39,303 L-42,303 L-42,302 L-46,302 L-46,301 L-49,301 L-49,300 L-52,300 L-52,299 L-54,299 L-54,298 L-57,298 L-57,297 L-59,297 L-59,296 L-61,296 L-61,295 L-63,295 L-63,294 L-65,294 L-65,293 L-67,293 L-67,292 L-69,292 L-69,291 L-71,291 L-71,290 L-73,290 L-73,289 L-75,289 L-75,288 L-77,288 L-77,287 L-78,287 L-78,286 L-80,286 L-80,285 L-82,285 L-82,284 L-83,284 L-83,283 L-85,283 L-85,282 L-86,282 L-86,281 L-88,281 L-88,280 L-89,280 L-89,279 L-90,279 L-90,278 L-92,278 L-92,277 L-93,277 L-93,276 L-94,276 L-94,275 L-95,275 L-95,274 L-97,274 L-97,273 L-98,273 L-98,272 L-99,272 L-99,271 L-100,271 L-100,270 L-101,270 L-101,269 L-102,269 L-102,268 L-103,268 L-103,267 L-104,267 L-104,266 L-105,266 L-105,265 L-106,265 L-106,264 L-107,264 L-107,263 L-108,263 L-108,262 L-109,262 L-109,261 L-110,261 L-110,260 L-111,260 L-111,259 L-112,259 L-112,258 L-113,258 L-113,257 L-114,257 L-114,256 L-115,256 L-115,255 L-116,255 L-116,254 L-117,254 L-117,253 L-118,253 L-118,251 L-119,251 L-119,250 L-120,250 L-120,249 L-121,249 L-121,248 L-122,248 L-122,246 L-123,246 L-123,245 L-124,245 L-124,243 L-125,243 L-125,242 L-126,242 L-126,240 L-127,240 L-127,239 L-128,239 L-128,237 L-129,237 L-129,236 L-130,236 L-130,234 L-131,234 L-131,232 L-132,232 L-132,230 L-133,230 L-133,229 L-134,229 L-134,227 L-135,227 L-135,225 L-136,225 L-136,223 L-137,223 L-137,221 L-138,221 L-138,219 L-139,219 L-139,217 L-140,217 L-140,214 L-141,214 L-141,212 L-142,212 L-142,209 L-143,209 L-143,207 L-144,207 L-144,204 L-145,204 L-145,201 L-146,201 L-146,198 L-147,198 L-147,194 L-148,194 L-148,190 L-149,190 L-149,185 L-150,185 L-150,179 L-151,179 L-151,172 L-152,172 L-152,161 L-153,161 L-153,150 L-152,150 L-152,137 L-151,137 L-151,130 L-150,130 L-150,125 L-149,125 L-149,120 L-148,120 L-148,116 L-147,116 L-147,112 L-146,112 L-146,108 L-145,108 L-145,105 L-144,105 L-144,103 L-143,103 L-143,100 L-142,100 L-142,98 L-141,98 L-141,95 L-140,95 L-140,93 L-139,93 L-139,91 L-138,91 L-138,89 L-137,89 L-137,87 L-136,87 L-136,85 L-135,85 L-135,83 L-134,83 L-134,81 L-133,81 L-133,79 L-132,79 L-132,77 L-131,77 L-131,76 L-130,76 L-130,74 L-129,74 L-129,72 L-128,72 L-128,71 L-127,71 L-127,69 L-126,69 L-126,68 L-125,68 L-125,66 L-124,66 L-124,65 L-123,65 L-123,63 L-122,63 L-122,62 L-121,62 L-121,61 L-120,61 L-120,59 L-119,59 L-119,58 L-118,58 L-118,57 L-117,57 L-117,56 L-116,56 L-116,55 L-115,55 L-115,54 L-114,54 L-114,52 L-113,52 L-113,51 L-112,51 L-112,50 L-111,50 L-111,49 L-110,49 L-110,48 L-109,48 L-109,47 L-108,47 L-108,46 L-107,46 L-107,45 L-106,45 L-106,44 L-105,44 L-105,43 L-104,43 L-104,42 L-103,42 L-103,41 L-102,41 L-102,40 L-101,40 L-101,39 L-99,39 L-99,38 L-98,38 L-98,37 L-97,37 L-97,36 L-96,36 L-96,35 L-95,35 L-95,34 L-93,34 L-93,33 L-92,33 L-92,32 L-91,32 L-91,31 L-90,31 L-90,30 L-88,30 L-88,29 L-87,29 L-87,28 L-85,28 L-85,27 L-84,27 L-84,26 L-82,26 L-82,25 L-81,25 L-81,24 L-79,24 L-79,23 L-77,23 L-77,22 L-76,22 L-76,21 L-74,21 L-74,20 L-72,20 L-72,19 L-70,19 L-70,18 L-68,18 L-68,17 L-66,17 L-66,16 L-64,16 L-64,15 L-62,15 L-62,14 L-60,14 L-60,13 L-58,13 L-58,12 L-55,12 L-55,11 L-53,11 L-53,10 L-50,10 L-50,9 L-47,9 L-47,8 L-44,8 L-44,7 L-41,7 L-41,6 L-37,6 L-37,5 L-33,5 L-33,4 L-28,4 L-28,3 L-22,3 L-22,2 L-15,2 L-15,1 L0,1 Z M-13,21 L-13,22 L-21,22 L-21,23 L-24,23 L-24,24 L-27,24 L-27,25 L-31,25 L-31,26 L-34,26 L-34,27 L-37,27 L-37,28 L-40,28 L-40,29 L-43,29 L-43,30 L-45,30 L-45,31 L-48,31 L-48,32 L-51,32 L-51,33 L-53,33 L-53,34 L-56,34 L-56,35 L-58,35 L-58,36 L-60,36 L-60,37 L-62,37 L-62,38 L-64,38 L-64,39 L-66,39 L-66,40 L-68,40 L-68,41 L-70,41 L-70,42 L-72,42 L-72,43 L-74,43 L-74,44 L-75,44 L-75,45 L-77,45 L-77,46 L-78,46 L-78,47 L-80,47 L-80,48 L-81,48 L-81,49 L-82,49 L-82,50 L-84,50 L-84,51 L-85,51 L-85,52 L-86,52 L-86,53 L-87,53 L-87,54 L-88,54 L-88,55 L-89,55 L-89,56 L-90,56 L-90,57 L-91,57 L-91,58 L-92,58 L-92,59 L-93,59 L-93,60 L-94,60 L-94,61 L-95,61 L-95,62 L-96,62 L-96,63 L-97,63 L-97,64 L-98,64 L-98,65 L-99,65 L-99,66 L-100,66 L-100,67 L-101,67 L-101,68 L-102,68 L-102,69 L-103,69 L-103,71 L-104,71 L-104,72 L-105,72 L-105,73 L-106,73 L-106,74 L-107,74 L-107,76 L-108,76 L-108,77 L-109,77 L-109,79 L-110,79 L-110,80 L-111,80 L-111,82 L-112,82 L-112,83 L-113,83 L-113,85 L-114,85 L-114,87 L-115,87 L-115,88 L-116,88 L-116,90 L-117,90 L-117,92 L-118,92 L-118,94 L-119,94 L-119,96 L-120,96 L-120,98 L-121,98 L-121,100 L-122,100 L-122,102 L-123,102 L-123,105 L-124,105 L-124,108 L-125,108 L-125,111 L-126,111 L-126,114 L-127,114 L-127,118 L-128,118 L-128,127 L-129,127 L-129,132 L-128,132 L-128,133 L-126,133 L-126,125 L-125,125 L-125,118 L-124,118 L-124,115 L-123,115 L-123,112 L-122,112 L-122,109 L-121,109 L-121,107 L-120,107 L-120,105 L-119,105 L-119,104 L-118,104 L-118,102 L-117,102 L-117,100 L-116,100 L-116,98 L-115,98 L-115,97 L-114,97 L-114,95 L-113,95 L-113,94 L-112,94 L-112,92 L-111,92 L-111,91 L-110,91 L-110,90 L-109,90 L-109,89 L-108,89 L-108,88 L-107,88 L-107,87 L-106,87 L-106,86 L-105,86 L-105,85 L-104,85 L-104,84 L-102,84 L-102,83 L-101,83 L-101,82 L-100,82 L-100,81 L-98,81 L-98,80 L-97,80 L-97,79 L-95,79 L-95,81 L-94,81 L-94,84 L-93,84 L-93,87 L-92,87 L-92,89 L-91,89 L-91,93 L-92,93 L-92,94 L-93,94 L-93,96 L-94,96 L-94,98 L-95,98 L-95,100 L-96,100 L-96,102 L-97,102 L-97,105 L-98,105 L-98,107 L-99,107 L-99,109 L-100,109 L-100,113 L-101,113 L-101,123 L-100,123 L-100,127 L-99,127 L-99,129 L-98,129 L-98,131 L-97,131 L-97,133 L-96,133 L-96,135 L-95,135 L-95,137 L-94,137 L-94,138 L-93,138 L-93,139 L-92,139 L-92,141 L-90,141 L-90,142 L-83,142 L-83,143 L-82,143 L-82,144 L-81,144 L-81,145 L-80,145 L-80,146 L-79,146 L-79,147 L-78,147 L-78,149 L-77,149 L-77,150 L-75,150 L-75,151 L-74,151 L-74,152 L-73,152 L-73,153 L-72,153 L-72,154 L-71,154 L-71,155 L-69,155 L-69,156 L-68,156 L-68,157 L-66,157 L-66,158 L-64,158 L-64,159 L-63,159 L-63,160 L-61,160 L-61,161 L-59,161 L-59,162 L-57,162 L-57,163 L-55,163 L-55,164 L-53,164 L-53,165 L-51,165 L-51,166 L-48,166 L-48,167 L-45,167 L-45,168 L-42,168 L-42,169 L-39,169 L-39,170 L-36,170 L-36,171 L-32,171 L-32,172 L-28,172 L-28,173 L-22,173 L-22,174 L-16,174 L-16,175 L-1,175 L-1,176 L4,176 L4,175 L19,175 L19,174 L26,174 L26,173 L31,173 L31,172 L35,172 L35,171 L39,171 L39,170 L42,170 L42,169 L46,169 L46,168 L48,168 L48,167 L51,167 L51,166 L54,166 L54,165 L56,165 L56,164 L58,164 L58,163 L60,163 L60,162 L62,162 L62,161 L64,161 L64,160 L66,160 L66,159 L68,159 L68,158 L69,158 L69,157 L71,157 L71,156 L72,156 L72,155 L74,155 L74,154 L75,154 L75,153 L76,153 L76,152 L77,152 L77,151 L79,151 L79,150 L80,150 L80,149 L81,149 L81,148 L82,148 L82,147 L83,147 L83,145 L84,145 L84,144 L85,144 L85,143 L86,143 L86,142 L93,142 L93,141 L95,141 L95,140 L96,140 L96,138 L97,138 L97,137 L98,137 L98,135 L99,135 L99,133 L100,133 L100,131 L101,131 L101,129 L102,129 L102,127 L103,127 L103,124 L104,124 L104,117 L105,117 L105,115 L104,115 L104,110 L103,110 L103,107 L102,107 L102,105 L101,105 L101,103 L100,103 L100,101 L99,101 L99,98 L98,98 L98,96 L97,96 L97,95 L96,95 L96,94 L95,94 L95,92 L94,92 L94,89 L95,89 L95,87 L96,87 L96,84 L97,84 L97,81 L98,81 L98,79 L100,79 L100,80 L102,80 L102,81 L103,81 L103,82 L104,82 L104,83 L105,83 L105,84 L107,84 L107,85 L108,85 L108,86 L109,86 L109,87 L110,87 L110,88 L111,88 L111,89 L112,89 L112,90 L113,90 L113,91 L114,91 L114,92 L115,92 L115,93 L116,93 L116,95 L117,95 L117,96 L118,96 L118,98 L119,98 L119,100 L120,100 L120,102 L121,102 L121,104 L122,104 L122,105 L123,105 L123,107 L124,107 L124,109 L125,109 L125,112 L126,112 L126,115 L127,115 L127,117 L128,117 L128,123 L129,123 L129,132 L130,132 L130,133 L131,133 L131,132 L132,132 L132,124 L131,124 L131,117 L130,117 L130,113 L129,113 L129,110 L128,110 L128,108 L127,108 L127,105 L126,105 L126,102 L125,102 L125,100 L124,100 L124,98 L123,98 L123,96 L122,96 L122,94 L121,94 L121,92 L120,92 L120,90 L119,90 L119,88 L118,88 L118,86 L117,86 L117,85 L116,85 L116,83 L115,83 L115,82 L114,82 L114,80 L113,80 L113,78 L112,78 L112,77 L111,77 L111,76 L110,76 L110,74 L109,74 L109,73 L108,73 L108,72 L107,72 L107,70 L106,70 L106,69 L105,69 L105,68 L104,68 L104,67 L103,67 L103,66 L102,66 L102,65 L101,65 L101,64 L100,64 L100,62 L99,62 L99,61 L98,61 L98,60 L97,60 L97,59 L96,59 L96,58 L95,58 L95,57 L94,57 L94,56 L92,56 L92,55 L91,55 L91,54 L90,54 L90,53 L89,53 L89,52 L88,52 L88,51 L87,51 L87,50 L86,50 L86,49 L84,49 L84,48 L83,48 L83,47 L81,47 L81,46 L80,46 L80,45 L78,45 L78,44 L77,44 L77,43 L75,43 L75,42 L73,42 L73,41 L71,41 L71,40 L69,40 L69,39 L68,39 L68,38 L65,38 L65,37 L63,37 L63,36 L61,36 L61,35 L59,35 L59,34 L56,34 L56,33 L54,33 L54,32 L51,32 L51,31 L48,31 L48,30 L46,30 L46,29 L43,29 L43,28 L40,28 L40,27 L37,27 L37,26 L34,26 L34,25 L30,25 L30,24 L27,24 L27,23 L24,23 L24,22 L16,22 L16,21 Z M-120,167 L-120,171 L-121,171 L-121,179 L-122,179 L-122,184 L-121,184 L-121,193 L-120,193 L-120,197 L-119,197 L-119,201 L-118,201 L-118,205 L-117,205 L-117,208 L-116,208 L-116,210 L-115,210 L-115,212 L-114,212 L-114,214 L-113,214 L-113,216 L-112,216 L-112,218 L-111,218 L-111,220 L-110,220 L-110,222 L-109,222 L-109,224 L-108,224 L-108,225 L-107,225 L-107,227 L-106,227 L-106,228 L-105,228 L-105,230 L-104,230 L-104,231 L-103,231 L-103,232 L-102,232 L-102,234 L-101,234 L-101,235 L-100,235 L-100,236 L-99,236 L-99,237 L-98,237 L-98,239 L-97,239 L-97,240 L-96,240 L-96,241 L-95,241 L-95,242 L-94,242 L-94,243 L-93,243 L-93,244 L-92,244 L-92,245 L-91,245 L-91,246 L-90,246 L-90,247 L-89,247 L-89,248 L-87,248 L-87,249 L-86,249 L-86,250 L-85,250 L-85,251 L-84,251 L-84,252 L-83,252 L-83,253 L-81,253 L-81,254 L-80,254 L-80,255 L-75,255 L-75,256 L-71,256 L-71,257 L-66,257 L-66,258 L-65,258 L-65,257 L-62,257 L-62,256 L-60,256 L-60,255 L-57,255 L-57,254 L-55,254 L-55,253 L-52,253 L-52,252 L-49,252 L-49,251 L-46,251 L-46,250 L-43,250 L-43,249 L-40,249 L-40,248 L-36,248 L-36,247 L-32,247 L-32,246 L-26,246 L-26,245 L-17,245 L-17,244 L20,244 L20,245 L30,245 L30,246 L35,246 L35,247 L39,247 L39,248 L43,248 L43,249 L46,249 L46,250 L49,250 L49,251 L52,251 L52,252 L55,252 L55,253 L58,253 L58,254 L60,254 L60,255 L63,255 L63,256 L65,256 L65,257 L68,257 L68,258 L69,258 L69,257 L74,257 L74,256 L78,256 L78,255 L83,255 L83,254 L85,254 L85,253 L86,253 L86,252 L87,252 L87,251 L88,251 L88,250 L89,250 L89,249 L91,249 L91,248 L92,248 L92,247 L93,247 L93,246 L94,246 L94,245 L95,245 L95,244 L96,244 L96,243 L97,243 L97,242 L98,242 L98,241 L99,241 L99,240 L100,240 L100,239 L101,239 L101,238 L102,238 L102,236 L103,236 L103,235 L104,235 L104,234 L105,234 L105,233 L106,233 L106,231 L107,231 L107,230 L108,230 L108,228 L109,228 L109,227 L110,227 L110,225 L111,225 L111,224 L112,224 L112,222 L113,222 L113,220 L114,220 L114,219 L115,219 L115,217 L116,217 L116,215 L117,215 L117,213 L118,213 L118,210 L119,210 L119,208 L120,208 L120,205 L121,205 L121,202 L122,202 L122,198 L123,198 L123,193 L124,193 L124,186 L125,186 L125,177 L124,177 L124,170 L123,170 L123,167 L122,167 L122,168 L120,168 L120,169 L118,169 L118,170 L116,170 L116,171 L115,171 L115,172 L113,172 L113,173 L112,173 L112,174 L111,174 L111,175 L109,175 L109,176 L108,176 L108,177 L106,177 L106,178 L105,178 L105,179 L103,179 L103,180 L101,180 L101,181 L99,181 L99,182 L97,182 L97,183 L95,183 L95,184 L93,184 L93,185 L91,185 L91,186 L89,186 L89,187 L87,187 L87,188 L85,188 L85,189 L83,189 L83,190 L81,190 L81,191 L78,191 L78,192 L76,192 L76,193 L74,193 L74,194 L71,194 L71,195 L68,195 L68,196 L65,196 L65,197 L61,197 L61,198 L57,198 L57,199 L53,199 L53,200 L47,200 L47,201 L39,201 L39,202 L27,202 L27,203 L-24,203 L-24,202 L-36,202 L-36,201 L-44,201 L-44,200 L-50,200 L-50,199 L-55,199 L-55,198 L-58,198 L-58,197 L-62,197 L-62,196 L-65,196 L-65,195 L-68,195 L-68,194 L-70,194 L-70,193 L-73,193 L-73,192 L-76,192 L-76,191 L-78,191 L-78,190 L-80,190 L-80,189 L-82,189 L-82,188 L-84,188 L-84,187 L-86,187 L-86,186 L-88,186 L-88,185 L-90,185 L-90,184 L-92,184 L-92,183 L-94,183 L-94,182 L-96,182 L-96,181 L-98,181 L-98,180 L-100,180 L-100,179 L-101,179 L-101,178 L-103,178 L-103,177 L-105,177 L-105,176 L-106,176 L-106,175 L-108,175 L-108,174 L-109,174 L-109,173 L-110,173 L-110,172 L-111,172 L-111,171 L-113,171 L-113,170 L-115,170 L-115,169 L-117,169 L-117,168 L-119,168 L-119,167 Z M-4,261 L-4,262 L-11,262 L-11,263 L-14,263 L-14,264 L-16,264 L-16,265 L-17,265 L-17,266 L-19,266 L-19,268 L-20,268 L-20,272 L-19,272 L-19,274 L-18,274 L-18,275 L-17,275 L-17,277 L-16,277 L-16,278 L-15,278 L-15,279 L-14,279 L-14,280 L-13,280 L-13,281 L-12,281 L-12,282 L-11,282 L-11,283 L-10,283 L-10,284 L-8,284 L-8,285 L12,285 L12,284 L14,284 L14,283 L15,283 L15,282 L16,282 L16,281 L17,281 L17,280 L18,280 L18,279 L19,279 L19,278 L20,278 L20,277 L21,277 L21,275 L22,275 L22,274 L23,274 L23,271 L24,271 L24,269 L23,269 L23,267 L22,267 L22,266 L21,266 L21,265 L19,265 L19,264 L17,264 L17,263 L14,263 L14,262 L7,262 L7,261 Z " fill="#00C1B9" transform="translate(154,1)"/>
<path d="M0,0 L12,0 L12,1 L14,1 L14,2 L16,2 L16,3 L18,3 L18,4 L19,4 L19,5 L20,5 L20,6 L21,6 L21,8 L22,8 L22,16 L21,16 L21,19 L20,19 L20,20 L19,20 L19,21 L18,21 L18,22 L16,22 L16,23 L15,23 L15,24 L11,24 L11,25 L0,25 L0,24 L-4,24 L-4,23 L-5,23 L-5,22 L-7,22 L-7,21 L-8,21 L-8,20 L-9,20 L-9,18 L-10,18 L-10,16 L-11,16 L-11,9 L-10,9 L-10,7 L-9,7 L-9,5 L-8,5 L-8,4 L-7,4 L-7,3 L-6,3 L-6,2 L-3,2 L-3,1 L0,1 Z " fill="#00C1B9" transform="translate(150,37)"/>
<path d="M0,0 L3,0 L3,1 L0,1 Z " fill="#00C1B9" transform="translate(242,139)"/>
<path d="M0,0 L3,0 L3,1 L0,1 Z " fill="#00C1B9" transform="translate(66,139)"/>
<path d="M0,0 L2,0 L2,1 L0,1 Z " fill="#00C1B9" transform="translate(75,208)"/>
<path d="M0,0 L2,0 L2,1 L0,1 Z " fill="#00C1B9" transform="translate(257,80)"/>
<path d="M0,0 L2,0 L2,1 L0,1 Z " fill="#00C1B9" transform="translate(52,80)"/>
<path d="M0,0 L1,0 L1,1 L0,1 Z " fill="#00C2B9" transform="translate(233,209)"/>
<path d="M0,0 L1,0 L1,1 L0,1 Z " fill="#00C2B9" transform="translate(77,209)"/>
<path d="M0,0 L1,0 L1,1 L0,1 Z " fill="#00C2B9" transform="translate(235,208)"/>
<path d="M0,0 L1,0 L1,1 L0,1 Z " fill="#00C2B9" transform="translate(237,207)"/>
<path d="M0,0 L1,0 L1,1 L0,1 Z " fill="#00C2B9" transform="translate(73,207)"/>
<path d="M0,0 L1,0 L1,1 L0,1 Z " fill="#00C2B9" transform="translate(250,135)"/>
<path d="M0,0 L1,0 L1,1 L0,1 Z " fill="#00C2B9" transform="translate(49,83)"/>
<path d="M0,0 L1,0 L1,1 L0,1 Z " fill="#00C2B9" transform="translate(260,82)"/>
<path d="M0,0 L1,0 L1,1 L0,1 Z " fill="#00C2B9" transform="translate(50,82)"/>
<path d="M0,0 L1,0 L1,1 L0,1 Z " fill="#00C2B9" transform="translate(259,81)"/>
<path d="M0,0 L1,0 L1,1 L0,1 Z " fill="#00C2B9" transform="translate(51,81)"/>
<path d="M0,0 L1,0 L1,1 L0,1 Z " fill="#00C2B9" transform="translate(256,79)"/>
<path d="M0,0 L1,0 L1,1 L0,1 Z " fill="#00C2B9" transform="translate(54,79)"/>
<path d="M0,0 L1,0 L1,1 L0,1 Z " fill="#00C2B9" transform="translate(254,78)"/>
<path d="M0,0 L1,0 L1,1 L0,1 Z " fill="#00C2B9" transform="translate(56,78)"/>
<path d="M0,0 L1,0 L1,1 L0,1 Z " fill="#00C1B9" transform="translate(253,77)"/>
<path d="M0,0 L1,0 L1,1 L0,1 Z " fill="#00C1B9" transform="translate(57,77)"/>
</svg>
