<?xml version="1.0" encoding="UTF-8" standalone="no"?>
<svg
   width="100%"
   height="auto"
   viewBox="0 0 100 100"
   version="1.1"
   id="svg1"
   sodipodi:docname="orbsvgwithstrokeblack.svg"
   inkscape:version="1.4.3 (0d15f75, 2025-12-25)"
   xmlns:inkscape="http://www.inkscape.org/namespaces/inkscape"
   xmlns:sodipodi="http://sodipodi.sourceforge.net/DTD/sodipodi-0.dtd"
   xmlns="http://www.w3.org/2000/svg"
   xmlns:svg="http://www.w3.org/2000/svg">
  <defs
     id="defs1" />
  <sodipodi:namedview
     id="namedview1"
     pagecolor="#ffffff"
     bordercolor="#000000"
     borderopacity="0.25"
     inkscape:showpageshadow="2"
     inkscape:pageopacity="0.0"
     inkscape:pagecheckerboard="0"
     inkscape:deskcolor="#d1d1d1"
     inkscape:zoom="8.0115198"
     inkscape:cx="40.753815"
     inkscape:cy="40.878636"
     inkscape:window-width="2560"
     inkscape:window-height="1351"
     inkscape:window-x="-9"
     inkscape:window-y="-9"
     inkscape:window-maximized="1"
     inkscape:current-layer="svg1" />
  <path
     d="M 37.628,2.11 C 24.832,5.115 11.546,16.435 5.24,29.705 1.866,36.804 1.502,38.411 1.156,47.703 c -0.308,8.278 0.017,11.508 1.722,17.12 2.447,8.057 8.502,17.607 14.444,22.784 6.245,5.44 17.468,10.456 26.215,11.716 32.516,4.685 61.325,-24.91 55.574,-57.09 C 95.788,23.637 82.616,8.359 65.295,3.009 58.295,0.847 44.865,0.411 37.628,2.11 M 38,8.882 C 29.936,11.485 26.251,13.653 20.167,19.375 14.369,24.827 7.943,36.299 8.068,40.972 c 0.061,2.309 0.142,2.355 0.928,0.528 0.474,-1.1 1.13,-3.249 1.458,-4.775 0.328,-1.527 2.239,-4.593 4.246,-6.814 3.179,-3.519 3.771,-3.821 4.597,-2.344 0.654,1.168 0.445,2.751 -0.674,5.098 -2.295,4.812 -2.065,9.006 0.627,11.444 C 29.541,53.427 38.182,57 50.424,57 c 8.827,0 15.517,-1.89 22,-6.215 2.709,-1.807 5.705,-3.712 6.66,-4.233 C 80.771,45.63 84,39.959 84,37.918 c 0,-0.558 -0.839,-2.752 -1.865,-4.875 -1.966,-4.069 -1.397,-6.741 1.221,-5.736 2.241,0.859 6.71,8.325 7.352,12.28 0.301,1.856 0.903,3.154 1.337,2.885 C 94.072,41.219 88.809,29.028 83.316,22.255 73.224,9.809 53.325,3.937 38,8.882 m 8.569,4.444 c -4.099,2.997 1.784,8.161 6.452,5.663 2.527,-1.353 2.552,-4.612 0.045,-5.954 -2.583,-1.382 -4.316,-1.304 -6.497,0.291 M 10.303,55.652 c -0.92,2.399 0.519,10.079 2.684,14.323 2.849,5.585 7.923,11.089 11.659,12.65 2.8,1.17 3.87,1.078 9.016,-0.78 8.157,-2.945 24.396,-3.02 32.619,-0.151 3.18,1.109 6.896,1.804 8.258,1.543 3.561,-0.68 11.954,-10.3 13.855,-15.88 1.648,-4.837 2.196,-13.371 0.856,-13.339 -0.412,0.01 -2.707,1.344 -5.098,2.965 C 74.335,63.636 70.39,64.5 49.83,64.5 H 31.16 L 21.011,59.346 C 12.987,55.271 10.746,54.498 10.303,55.652 M 45.25,84.98 c -5.316101,3.428433 -0.721,7.42 5.429,7.42 4.551,0 8.307,-3.843 6.005,-6.145 -1.783,-1.782 -9.291332,-2.154539 -12.245332,-0.900539"
     stroke="none"
     fill="black"
     fill-rule="evenodd"
     id="path1"
     inkscape:label="path1"
     style="fill:#00d6d4;fill-opacity:1;stroke-width:1;stroke-dasharray:none;stroke:#000000;stroke-opacity:1"
     sodipodi:nodetypes="ccccccccccccccccccsccscccccccccccccccccccsccccscc" />
</svg>
