<?xml version="1.0" encoding="UTF-8"?>
<svg version="1.1" xmlns="http://www.w3.org/2000/svg" width="310" height="310">
<path d="M0,0 L11,0 L11,1 L23,1 L23,2 L30,2 L30,3 L36,3 L36,4 L41,4 L41,5 L45,5 L45,6 L49,6 L49,7 L52,7 L52,8 L55,8 L55,9 L58,9 L58,10 L61,10 L61,11 L63,11 L63,12 L65,12 L65,13 L68,13 L68,14 L70,14 L70,15 L72,15 L72,16 L74,16 L74,17 L76,17 L76,18 L78,18 L78,19 L80,19 L80,20 L82,20 L82,21 L83,21 L83,22 L85,22 L85,23 L87,23 L87,24 L88,24 L88,25 L90,25 L90,26 L92,26 L92,27 L93,27 L93,28 L95,28 L95,29 L96,29 L96,30 L97,30 L97,31 L99,31 L99,32 L100,32 L100,33 L101,33 L101,34 L102,34 L102,35 L104,35 L104,36 L105,36 L105,37 L106,37 L106,38 L107,38 L107,39 L108,39 L108,40 L109,40 L109,41 L110,41 L110,42 L111,42 L111,43 L113,43 L113,44 L114,44 L114,45 L115,45 L115,46 L116,46 L116,47 L117,47 L117,48 L118,48 L118,50 L119,50 L119,51 L120,51 L120,52 L121,52 L121,53 L122,53 L122,54 L123,54 L123,55 L124,55 L124,56 L125,56 L125,57 L126,57 L126,59 L127,59 L127,60 L128,60 L128,61 L129,61 L129,62 L130,62 L130,64 L131,64 L131,65 L132,65 L132,67 L133,67 L133,68 L134,68 L134,70 L135,70 L135,71 L136,71 L136,73 L137,73 L137,75 L138,75 L138,76 L139,76 L139,78 L140,78 L140,80 L141,80 L141,82 L142,82 L142,84 L143,84 L143,85 L144,85 L144,87 L145,87 L145,90 L146,90 L146,92 L147,92 L147,94 L148,94 L148,96 L149,96 L149,99 L150,99 L150,101 L151,101 L151,104 L152,104 L152,107 L153,107 L153,110 L154,110 L154,114 L155,114 L155,118 L156,118 L156,122 L157,122 L157,127 L158,127 L158,134 L159,134 L159,143 L160,143 L160,167 L159,167 L159,176 L158,176 L158,182 L157,182 L157,187 L156,187 L156,192 L155,192 L155,196 L154,196 L154,199 L153,199 L153,203 L152,203 L152,206 L151,206 L151,208 L150,208 L150,211 L149,211 L149,213 L148,213 L148,216 L147,216 L147,218 L146,218 L146,220 L145,220 L145,222 L144,222 L144,224 L143,224 L143,226 L142,226 L142,228 L141,228 L141,230 L140,230 L140,232 L139,232 L139,233 L138,233 L138,235 L137,235 L137,237 L136,237 L136,238 L135,238 L135,240 L134,240 L134,241 L133,241 L133,243 L132,243 L132,244 L131,244 L131,246 L130,246 L130,247 L129,247 L129,248 L128,248 L128,250 L127,250 L127,251 L126,251 L126,252 L125,252 L125,253 L124,253 L124,254 L123,254 L123,256 L122,256 L122,257 L121,257 L121,258 L120,258 L120,259 L119,259 L119,260 L118,260 L118,261 L117,261 L117,262 L116,262 L116,263 L115,263 L115,264 L114,264 L114,265 L113,265 L113,266 L112,266 L112,267 L111,267 L111,268 L110,268 L110,269 L109,269 L109,270 L108,270 L108,271 L107,271 L107,272 L105,272 L105,273 L104,273 L104,274 L103,274 L103,275 L102,275 L102,276 L101,276 L101,277 L99,277 L99,278 L98,278 L98,279 L97,279 L97,280 L95,280 L95,281 L94,281 L94,282 L92,282 L92,283 L91,283 L91,284 L89,284 L89,285 L88,285 L88,286 L86,286 L86,287 L84,287 L84,288 L83,288 L83,289 L81,289 L81,290 L79,290 L79,291 L77,291 L77,292 L75,292 L75,293 L73,293 L73,294 L71,294 L71,295 L69,295 L69,296 L67,296 L67,297 L64,297 L64,298 L62,298 L62,299 L59,299 L59,300 L57,300 L57,301 L54,301 L54,302 L51,302 L51,303 L47,303 L47,304 L43,304 L43,305 L39,305 L39,306 L33,306 L33,307 L27,307 L27,308 L19,308 L19,309 L-8,309 L-8,308 L-16,308 L-16,307 L-22,307 L-22,306 L-27,306 L-27,305 L-32,305 L-32,304 L-36,304 L-36,303 L-39,303 L-39,302 L-43,302 L-43,301 L-46,301 L-46,300 L-48,300 L-48,299 L-51,299 L-51,298 L-53,298 L-53,297 L-56,297 L-56,296 L-58,296 L-58,295 L-60,295 L-60,294 L-62,294 L-62,293 L-64,293 L-64,292 L-66,292 L-66,291 L-68,291 L-68,290 L-70,290 L-70,289 L-71,289 L-71,288 L-73,288 L-73,287 L-75,287 L-75,286 L-77,286 L-77,285 L-78,285 L-78,284 L-80,284 L-80,283 L-81,283 L-81,282 L-83,282 L-83,281 L-84,281 L-84,280 L-86,280 L-86,279 L-87,279 L-87,278 L-88,278 L-88,277 L-89,277 L-89,276 L-91,276 L-91,275 L-92,275 L-92,274 L-93,274 L-93,273 L-94,273 L-94,272 L-95,272 L-95,271 L-97,271 L-97,270 L-98,270 L-98,269 L-99,269 L-99,268 L-100,268 L-100,267 L-101,267 L-101,266 L-102,266 L-102,265 L-103,265 L-103,264 L-104,264 L-104,263 L-105,263 L-105,262 L-106,262 L-106,261 L-107,261 L-107,260 L-108,260 L-108,259 L-109,259 L-109,258 L-110,258 L-110,257 L-111,257 L-111,255 L-112,255 L-112,254 L-113,254 L-113,253 L-114,253 L-114,252 L-115,252 L-115,251 L-116,251 L-116,249 L-117,249 L-117,248 L-118,248 L-118,247 L-119,247 L-119,246 L-120,246 L-120,244 L-121,244 L-121,243 L-122,243 L-122,241 L-123,241 L-123,240 L-124,240 L-124,238 L-125,238 L-125,236 L-126,236 L-126,235 L-127,235 L-127,233 L-128,233 L-128,231 L-129,231 L-129,230 L-130,230 L-130,228 L-131,228 L-131,226 L-132,226 L-132,224 L-133,224 L-133,222 L-134,222 L-134,220 L-135,220 L-135,217 L-136,217 L-136,215 L-137,215 L-137,213 L-138,213 L-138,210 L-139,210 L-139,208 L-140,208 L-140,205 L-141,205 L-141,202 L-142,202 L-142,199 L-143,199 L-143,195 L-144,195 L-144,191 L-145,191 L-145,187 L-146,187 L-146,181 L-147,181 L-147,175 L-148,175 L-148,166 L-149,166 L-149,144 L-148,144 L-148,135 L-147,135 L-147,128 L-146,128 L-146,123 L-145,123 L-145,118 L-144,118 L-144,114 L-143,114 L-143,111 L-142,111 L-142,107 L-141,107 L-141,104 L-140,104 L-140,102 L-139,102 L-139,99 L-138,99 L-138,97 L-137,97 L-137,94 L-136,94 L-136,92 L-135,92 L-135,90 L-134,90 L-134,88 L-133,88 L-133,86 L-132,86 L-132,84 L-131,84 L-131,82 L-130,82 L-130,80 L-129,80 L-129,78 L-128,78 L-128,76 L-127,76 L-127,75 L-126,75 L-126,73 L-125,73 L-125,71 L-124,71 L-124,70 L-123,70 L-123,68 L-122,68 L-122,67 L-121,67 L-121,65 L-120,65 L-120,64 L-119,64 L-119,63 L-118,63 L-118,61 L-117,61 L-117,60 L-116,60 L-116,59 L-115,59 L-115,58 L-114,58 L-114,56 L-113,56 L-113,55 L-112,55 L-112,54 L-111,54 L-111,53 L-110,53 L-110,52 L-109,52 L-109,51 L-108,51 L-108,50 L-107,50 L-107,49 L-106,49 L-106,48 L-105,48 L-105,47 L-104,47 L-104,46 L-103,46 L-103,45 L-102,45 L-102,44 L-101,44 L-101,43 L-100,43 L-100,42 L-99,42 L-99,41 L-98,41 L-98,40 L-97,40 L-97,39 L-96,39 L-96,38 L-95,38 L-95,37 L-94,37 L-94,36 L-93,36 L-93,35 L-91,35 L-91,34 L-90,34 L-90,33 L-89,33 L-89,32 L-88,32 L-88,31 L-86,31 L-86,30 L-85,30 L-85,29 L-83,29 L-83,28 L-82,28 L-82,27 L-80,27 L-80,26 L-79,26 L-79,25 L-77,25 L-77,24 L-76,24 L-76,23 L-74,23 L-74,22 L-72,22 L-72,21 L-70,21 L-70,20 L-69,20 L-69,19 L-67,19 L-67,18 L-65,18 L-65,17 L-63,17 L-63,16 L-61,16 L-61,15 L-59,15 L-59,14 L-57,14 L-57,13 L-54,13 L-54,12 L-52,12 L-52,11 L-49,11 L-49,10 L-47,10 L-47,9 L-44,9 L-44,8 L-41,8 L-41,7 L-37,7 L-37,6 L-34,6 L-34,5 L-30,5 L-30,4 L-25,4 L-25,3 L-19,3 L-19,2 L-12,2 L-12,1 L0,1 Z M5,20 L5,21 L-11,21 L-11,22 L-17,22 L-17,23 L-22,23 L-22,24 L-25,24 L-25,25 L-28,25 L-28,26 L-31,26 L-31,27 L-34,27 L-34,28 L-37,28 L-37,29 L-40,29 L-40,30 L-42,30 L-42,31 L-45,31 L-45,32 L-48,32 L-48,33 L-50,33 L-50,34 L-53,34 L-53,35 L-55,35 L-55,36 L-57,36 L-57,37 L-59,37 L-59,38 L-61,38 L-61,39 L-63,39 L-63,40 L-65,40 L-65,41 L-67,41 L-67,42 L-68,42 L-68,43 L-70,43 L-70,44 L-71,44 L-71,45 L-73,45 L-73,46 L-74,46 L-74,47 L-75,47 L-75,48 L-77,48 L-77,49 L-78,49 L-78,50 L-79,50 L-79,51 L-80,51 L-80,52 L-81,52 L-81,53 L-83,53 L-83,54 L-84,54 L-84,55 L-85,55 L-85,56 L-86,56 L-86,57 L-87,57 L-87,58 L-88,58 L-88,59 L-89,59 L-89,60 L-90,60 L-90,61 L-91,61 L-91,62 L-92,62 L-92,63 L-93,63 L-93,64 L-94,64 L-94,65 L-95,65 L-95,66 L-96,66 L-96,68 L-97,68 L-97,69 L-98,69 L-98,70 L-99,70 L-99,71 L-100,71 L-100,72 L-101,72 L-101,74 L-102,74 L-102,75 L-103,75 L-103,76 L-104,76 L-104,78 L-105,78 L-105,79 L-106,79 L-106,81 L-107,81 L-107,82 L-108,82 L-108,84 L-109,84 L-109,86 L-110,86 L-110,87 L-111,87 L-111,89 L-112,89 L-112,91 L-113,91 L-113,93 L-114,93 L-114,95 L-115,95 L-115,97 L-116,97 L-116,99 L-117,99 L-117,101 L-118,101 L-118,104 L-119,104 L-119,106 L-120,106 L-120,109 L-121,109 L-121,111 L-122,111 L-122,114 L-123,114 L-123,118 L-124,118 L-124,123 L-125,123 L-125,129 L-126,129 L-126,130 L-125,130 L-125,132 L-124,132 L-124,133 L-122,133 L-122,129 L-121,129 L-121,121 L-120,121 L-120,116 L-119,116 L-119,113 L-118,113 L-118,110 L-117,110 L-117,108 L-116,108 L-116,106 L-115,106 L-115,104 L-114,104 L-114,103 L-113,103 L-113,101 L-112,101 L-112,99 L-111,99 L-111,97 L-110,97 L-110,96 L-109,96 L-109,94 L-108,94 L-108,93 L-107,93 L-107,91 L-106,91 L-106,90 L-105,90 L-105,89 L-104,89 L-104,88 L-103,88 L-103,87 L-102,87 L-102,86 L-101,86 L-101,85 L-99,85 L-99,84 L-98,84 L-98,83 L-97,83 L-97,82 L-95,82 L-95,81 L-94,81 L-94,80 L-91,80 L-91,82 L-90,82 L-90,85 L-89,85 L-89,88 L-88,88 L-88,94 L-89,94 L-89,95 L-90,95 L-90,97 L-91,97 L-91,99 L-92,99 L-92,101 L-93,101 L-93,104 L-94,104 L-94,106 L-95,106 L-95,108 L-96,108 L-96,111 L-97,111 L-97,125 L-96,125 L-96,128 L-95,128 L-95,130 L-94,130 L-94,132 L-93,132 L-93,134 L-92,134 L-92,136 L-91,136 L-91,137 L-90,137 L-90,139 L-89,139 L-89,140 L-88,140 L-88,141 L-87,141 L-87,142 L-82,142 L-82,143 L-78,143 L-78,144 L-77,144 L-77,145 L-76,145 L-76,146 L-75,146 L-75,148 L-74,148 L-74,149 L-73,149 L-73,150 L-72,150 L-72,151 L-70,151 L-70,152 L-69,152 L-69,153 L-68,153 L-68,154 L-67,154 L-67,155 L-66,155 L-66,156 L-64,156 L-64,157 L-63,157 L-63,158 L-61,158 L-61,159 L-59,159 L-59,160 L-58,160 L-58,161 L-56,161 L-56,162 L-54,162 L-54,163 L-52,163 L-52,164 L-50,164 L-50,165 L-48,165 L-48,166 L-45,166 L-45,167 L-42,167 L-42,168 L-39,168 L-39,169 L-36,169 L-36,170 L-33,170 L-33,171 L-30,171 L-30,172 L-26,172 L-26,173 L-21,173 L-21,174 L-15,174 L-15,175 L-4,175 L-4,176 L16,176 L16,175 L26,175 L26,174 L32,174 L32,173 L37,173 L37,172 L41,172 L41,171 L44,171 L44,170 L48,170 L48,169 L51,169 L51,168 L53,168 L53,167 L56,167 L56,166 L59,166 L59,165 L61,165 L61,164 L63,164 L63,163 L65,163 L65,162 L67,162 L67,161 L69,161 L69,160 L71,160 L71,159 L72,159 L72,158 L74,158 L74,157 L75,157 L75,156 L77,156 L77,155 L78,155 L78,154 L79,154 L79,153 L80,153 L80,152 L82,152 L82,151 L83,151 L83,150 L84,150 L84,149 L85,149 L85,148 L86,148 L86,147 L87,147 L87,146 L88,146 L88,144 L89,144 L89,143 L93,143 L93,142 L98,142 L98,141 L99,141 L99,140 L100,140 L100,139 L101,139 L101,137 L102,137 L102,136 L103,136 L103,134 L104,134 L104,132 L105,132 L105,130 L106,130 L106,128 L107,128 L107,125 L108,125 L108,120 L109,120 L109,113 L108,113 L108,109 L107,109 L107,106 L106,106 L106,104 L105,104 L105,102 L104,102 L104,100 L103,100 L103,97 L102,97 L102,96 L101,96 L101,95 L100,95 L100,93 L99,93 L99,88 L100,88 L100,85 L101,85 L101,82 L102,82 L102,80 L105,80 L105,81 L107,81 L107,82 L108,82 L108,83 L109,83 L109,84 L110,84 L110,85 L112,85 L112,86 L113,86 L113,87 L114,87 L114,88 L115,88 L115,89 L116,89 L116,90 L117,90 L117,91 L118,91 L118,92 L119,92 L119,94 L120,94 L120,95 L121,95 L121,97 L122,97 L122,99 L123,99 L123,101 L124,101 L124,103 L125,103 L125,104 L126,104 L126,106 L127,106 L127,108 L128,108 L128,110 L129,110 L129,113 L130,113 L130,116 L131,116 L131,120 L132,120 L132,127 L133,127 L133,132 L134,132 L134,134 L135,134 L135,132 L136,132 L136,121 L135,121 L135,117 L134,117 L134,114 L133,114 L133,111 L132,111 L132,108 L131,108 L131,106 L130,106 L130,103 L129,103 L129,101 L128,101 L128,99 L127,99 L127,97 L126,97 L126,95 L125,95 L125,93 L124,93 L124,91 L123,91 L123,89 L122,89 L122,87 L121,87 L121,85 L120,85 L120,84 L119,84 L119,82 L118,82 L118,81 L117,81 L117,79 L116,79 L116,78 L115,78 L115,76 L114,76 L114,75 L113,75 L113,73 L112,73 L112,72 L111,72 L111,71 L110,71 L110,70 L109,70 L109,69 L108,69 L108,67 L107,67 L107,66 L106,66 L106,65 L105,65 L105,64 L104,64 L104,63 L103,63 L103,62 L102,62 L102,61 L101,61 L101,60 L100,60 L100,59 L99,59 L99,58 L98,58 L98,57 L97,57 L97,56 L96,56 L96,55 L95,55 L95,54 L94,54 L94,53 L93,53 L93,52 L91,52 L91,51 L90,51 L90,50 L89,50 L89,49 L88,49 L88,48 L86,48 L86,47 L85,47 L85,46 L84,46 L84,45 L82,45 L82,44 L81,44 L81,43 L79,43 L79,42 L78,42 L78,41 L76,41 L76,40 L74,40 L74,39 L72,39 L72,38 L70,38 L70,37 L68,37 L68,36 L66,36 L66,35 L64,35 L64,34 L61,34 L61,33 L59,33 L59,32 L56,32 L56,31 L53,31 L53,30 L51,30 L51,29 L48,29 L48,28 L45,28 L45,27 L42,27 L42,26 L39,26 L39,25 L36,25 L36,24 L32,24 L32,23 L29,23 L29,22 L22,22 L22,21 L6,21 L6,20 Z M-116,166 L-116,169 L-117,169 L-117,175 L-118,175 L-118,181 L-119,181 L-119,182 L-118,182 L-118,188 L-117,188 L-117,195 L-116,195 L-116,199 L-115,199 L-115,203 L-114,203 L-114,206 L-113,206 L-113,209 L-112,209 L-112,211 L-111,211 L-111,213 L-110,213 L-110,215 L-109,215 L-109,217 L-108,217 L-108,219 L-107,219 L-107,221 L-106,221 L-106,223 L-105,223 L-105,224 L-104,224 L-104,226 L-103,226 L-103,227 L-102,227 L-102,229 L-101,229 L-101,230 L-100,230 L-100,231 L-99,231 L-99,233 L-98,233 L-98,234 L-97,234 L-97,235 L-96,235 L-96,236 L-95,236 L-95,238 L-94,238 L-94,239 L-93,239 L-93,240 L-92,240 L-92,241 L-91,241 L-91,242 L-90,242 L-90,243 L-89,243 L-89,244 L-88,244 L-88,245 L-87,245 L-87,246 L-86,246 L-86,247 L-85,247 L-85,248 L-84,248 L-84,249 L-82,249 L-82,250 L-81,250 L-81,251 L-80,251 L-80,252 L-79,252 L-79,253 L-78,253 L-78,254 L-76,254 L-76,255 L-73,255 L-73,256 L-69,256 L-69,257 L-64,257 L-64,258 L-62,258 L-62,259 L-61,259 L-61,258 L-60,258 L-60,257 L-57,257 L-57,256 L-55,256 L-55,255 L-52,255 L-52,254 L-50,254 L-50,253 L-47,253 L-47,252 L-44,252 L-44,251 L-41,251 L-41,250 L-38,250 L-38,249 L-34,249 L-34,248 L-30,248 L-30,247 L-25,247 L-25,246 L-18,246 L-18,245 L29,245 L29,246 L37,246 L37,247 L41,247 L41,248 L45,248 L45,249 L49,249 L49,250 L52,250 L52,251 L55,251 L55,252 L58,252 L58,253 L61,253 L61,254 L63,254 L63,255 L66,255 L66,256 L68,256 L68,257 L70,257 L70,258 L75,258 L75,257 L80,257 L80,256 L84,256 L84,255 L88,255 L88,254 L89,254 L89,253 L90,253 L90,252 L91,252 L91,251 L92,251 L92,250 L94,250 L94,249 L95,249 L95,248 L96,248 L96,247 L97,247 L97,246 L98,246 L98,245 L100,245 L100,243 L101,243 L101,242 L102,242 L102,241 L103,241 L103,240 L104,240 L104,239 L105,239 L105,238 L106,238 L106,237 L107,237 L107,235 L108,235 L108,234 L109,234 L109,233 L110,233 L110,232 L111,232 L111,230 L112,230 L112,229 L113,229 L113,227 L114,227 L114,226 L115,226 L115,224 L116,224 L116,223 L117,223 L117,221 L118,221 L118,219 L119,219 L119,218 L120,218 L120,216 L121,216 L121,214 L122,214 L122,211 L123,211 L123,209 L124,209 L124,206 L125,206 L125,203 L126,203 L126,200 L127,200 L127,195 L128,195 L128,189 L129,189 L129,173 L128,173 L128,169 L127,169 L127,166 L126,166 L126,167 L125,167 L125,168 L123,168 L123,169 L121,169 L121,170 L120,170 L120,171 L118,171 L118,172 L117,172 L117,173 L116,173 L116,174 L114,174 L114,175 L113,175 L113,176 L111,176 L111,177 L110,177 L110,178 L108,178 L108,179 L106,179 L106,180 L104,180 L104,181 L102,181 L102,182 L100,182 L100,183 L98,183 L98,184 L96,184 L96,185 L94,185 L94,186 L92,186 L92,187 L90,187 L90,188 L88,188 L88,189 L86,189 L86,190 L84,190 L84,191 L81,191 L81,192 L79,192 L79,193 L77,193 L77,194 L74,194 L74,195 L71,195 L71,196 L67,196 L67,197 L63,197 L63,198 L59,198 L59,199 L53,199 L53,200 L46,200 L46,201 L37,201 L37,202 L-25,202 L-25,201 L-36,201 L-36,200 L-43,200 L-43,199 L-48,199 L-48,198 L-52,198 L-52,197 L-56,197 L-56,196 L-60,196 L-60,195 L-63,195 L-63,194 L-65,194 L-65,193 L-68,193 L-68,192 L-70,192 L-70,191 L-73,191 L-73,190 L-75,190 L-75,189 L-77,189 L-77,188 L-79,188 L-79,187 L-81,187 L-81,186 L-83,186 L-83,185 L-85,185 L-85,184 L-87,184 L-87,183 L-89,183 L-89,182 L-91,182 L-91,181 L-93,181 L-93,180 L-95,180 L-95,179 L-97,179 L-97,178 L-98,178 L-98,177 L-100,177 L-100,176 L-102,176 L-102,175 L-103,175 L-103,174 L-105,174 L-105,173 L-106,173 L-106,172 L-107,172 L-107,171 L-108,171 L-108,170 L-110,170 L-110,169 L-112,169 L-112,168 L-114,168 L-114,167 L-115,167 L-115,166 Z M5,260 L5,261 L-3,261 L-3,262 L-8,262 L-8,263 L-11,263 L-11,264 L-12,264 L-12,265 L-14,265 L-14,266 L-15,266 L-15,267 L-16,267 L-16,273 L-15,273 L-15,274 L-14,274 L-14,276 L-13,276 L-13,277 L-12,277 L-12,278 L-11,278 L-11,279 L-10,279 L-10,280 L-9,280 L-9,281 L-8,281 L-8,282 L-7,282 L-7,283 L-6,283 L-6,284 L-5,284 L-5,285 L17,285 L17,284 L18,284 L18,283 L19,283 L19,282 L20,282 L20,281 L21,281 L21,280 L22,280 L22,279 L23,279 L23,278 L24,278 L24,277 L25,277 L25,276 L26,276 L26,274 L27,274 L27,272 L28,272 L28,268 L27,268 L27,267 L26,267 L26,266 L25,266 L25,265 L24,265 L24,264 L22,264 L22,263 L19,263 L19,262 L14,262 L14,261 L6,261 L6,260 Z " fill="#02C5C0" transform="translate(150,1)"/>
<path d="M0,0 L15,0 L15,1 L17,1 L17,2 L19,2 L19,3 L21,3 L21,4 L22,4 L22,6 L23,6 L23,17 L22,17 L22,19 L21,19 L21,20 L19,20 L19,21 L18,21 L18,22 L15,22 L15,23 L1,23 L1,22 L-2,22 L-2,21 L-4,21 L-4,20 L-6,20 L-6,18 L-7,18 L-7,16 L-8,16 L-8,7 L-7,7 L-7,5 L-6,5 L-6,3 L-5,3 L-5,2 L-3,2 L-3,1 L0,1 Z " fill="#02C5C0" transform="translate(148,38)"/>
</svg>
